<svg width="187" height="186" viewBox="0 0 187 186" fill="none" xmlns="http://www.w3.org/2000/svg">
<path d="M50.3345 141.618L50.476 141.76L50.6174 141.618C60.5979 131.634 76.2327 130.981 87.1002 139.423V166.923C86.9796 166.939 86.8594 166.956 86.7395 166.972C85.8952 167.088 85.0664 167.202 84.1996 167.202C74.078 167.202 65.3173 161.715 60.4834 153.61L60.3998 153.469L60.2458 153.523C58.0222 154.299 55.677 154.801 53.1971 154.801C41.3292 154.801 31.7002 145.172 31.7002 133.295C31.7002 131.906 31.8566 130.551 32.1132 129.228L32.1467 129.055L31.9794 129C24.6342 126.581 19.2996 119.745 19.2996 111.596C19.2996 105.949 21.9018 100.961 25.9132 97.587L26.0739 97.4518L25.9311 97.2979C21.8504 92.8998 19.2996 87.0624 19.2996 80.5954C19.2996 69.1192 27.2006 59.5597 37.8347 56.8416L37.9923 56.8014L37.985 56.6389C37.9787 56.4981 37.9593 56.3628 37.9416 56.2382C37.9395 56.2239 37.9375 56.2098 37.9355 56.1958C37.9158 56.0563 37.8996 55.9276 37.8996 55.7941C37.8996 45.643 46.1391 37.4016 56.2977 37.4016C56.568 37.4016 56.8329 37.4299 57.1046 37.4659C57.1772 37.4755 57.2508 37.4857 57.3252 37.496C57.5253 37.5239 57.7312 37.5525 57.9383 37.5718L58.0943 37.5864L58.1458 37.4384C61.9117 26.6153 72.0947 18.8016 84.1996 18.8016C85.0459 18.8016 85.8552 18.911 86.6791 19.0223C86.8189 19.0412 86.9593 19.0602 87.1002 19.0787V39.2644C82.8666 35.9491 77.6011 33.8954 71.8046 33.8954H71.6046V34.0954V43.3954V43.5954H71.8046C80.2464 43.5954 87.0819 50.4325 87.1002 58.8636V84.7914C80.7776 84.8422 75.07 87.3015 70.6972 91.2153C63.8323 82.7657 64.2313 70.378 72.0984 62.5182L72.24 62.3767L72.0985 62.2352L65.5215 55.6601L65.3801 55.5188L65.2387 55.6601C60.3538 60.5432 57.5244 66.6547 56.5547 72.9899C50.5679 78.7782 41.0304 78.7328 35.1199 72.8187L34.9785 72.6772L34.837 72.8186L28.2582 79.3937L28.1168 79.5351L28.2582 79.6765C36.0065 87.4286 47.5313 88.9167 56.8514 84.3687C58.0293 89.7811 60.6674 94.9143 64.7405 99.1968C63.2208 102.42 62.3008 105.985 62.3008 109.79V109.99H62.5008H71.8008H72.0008V109.79C72.0008 101.406 78.7413 94.5988 87.1002 94.4918V127.928C79.3175 124.002 70.464 122.931 62.0938 124.788C59.6176 113.588 49.6449 105.204 37.6996 105.204H37.4996V105.404V114.704V114.904H37.6996C45.4962 114.904 51.8529 120.753 52.8034 128.292C49.5771 129.993 46.4797 132.038 43.7594 134.76L43.6181 134.902L43.7594 135.043L50.3345 141.618Z" fill="white" stroke="black" stroke-width="0.4"/>
<path d="M156.087 93.4882L156.168 93.5694L156.279 93.5401C157.032 93.3418 157.81 93.2008 158.607 93.2008C163.634 93.2008 167.707 97.2758 167.707 102.301C167.707 107.326 163.634 111.401 158.607 111.401C153.584 111.401 149.507 107.326 149.507 102.301C149.507 101.495 149.648 100.726 149.846 99.9728L149.876 99.8617L149.794 99.7804L138.223 88.2094L138.165 88.1508H138.082H96.8094V79.2508H138.082H138.165L138.223 79.1922L149.794 67.6211L149.876 67.5399L149.846 67.4288C149.648 66.6757 149.507 65.9052 149.507 65.1008C149.507 60.0776 153.584 56.0008 158.607 56.0008C163.634 56.0008 167.707 60.0776 167.707 65.1008C167.707 70.124 163.634 74.2008 158.607 74.2008C157.81 74.2008 157.032 74.0598 156.279 73.8614L156.168 73.8321L156.087 73.9134L146.441 83.5594L146.299 83.7008L146.441 83.8422L156.087 93.4882Z" fill="#03BE77" stroke="black" stroke-width="0.4"/>
<path d="M113.396 97.85H113.511L113.569 97.7509C115.152 95.0421 118.049 93.2 121.407 93.2C126.434 93.2 130.507 97.275 130.507 102.3C130.507 107.325 126.434 111.4 121.407 111.4C118.049 111.4 115.153 109.558 113.569 106.849L113.511 106.75H113.396H96.8094V97.85H113.396Z" fill="#03BE77" stroke="black" stroke-width="0.4"/>
<path d="M119.597 60.6508H119.712L119.77 60.5516C121.353 57.8411 124.25 56.0008 127.608 56.0008C132.631 56.0008 136.708 60.0776 136.708 65.1008C136.708 70.1239 132.631 74.2008 127.608 74.2008C124.25 74.2008 121.353 72.3605 119.77 69.6499L119.712 69.5508H119.597H96.8094V60.6508H119.597Z" fill="#03BE77" stroke="black" stroke-width="0.4"/>
<path d="M131.996 116.452H132.111L132.169 116.352C133.752 113.644 136.649 111.802 140.007 111.802C145.034 111.802 149.107 115.877 149.107 120.902C149.107 125.927 145.034 130.002 140.007 130.002C136.649 130.002 133.753 128.16 132.169 125.451L132.111 125.352H131.996H96.8094V116.452H131.996Z" fill="#03BE77" stroke="black" stroke-width="0.4"/>
<path d="M150.596 153.652H150.711L150.769 153.552C152.352 150.844 155.249 149.002 158.607 149.002C163.634 149.002 167.707 153.077 167.707 158.102C167.707 163.127 163.634 167.202 158.607 167.202C155.249 167.202 152.353 165.36 150.769 162.651L150.711 162.552H150.596H143.196L124.651 144.01L124.592 143.952H124.509H96.8094V135.052H128.277L146.822 153.593L146.88 153.652H146.963H150.596Z" fill="#03BE77" stroke="black" stroke-width="0.4"/>
<path d="M107.198 153.651H107.313L107.371 153.552C108.954 150.843 111.852 149.001 115.209 149.001C120.233 149.001 124.309 153.076 124.309 158.101C124.309 163.126 120.233 167.201 115.209 167.201C111.852 167.201 108.954 165.359 107.371 162.65L107.313 162.551H107.198H96.8094V153.651H107.198Z" fill="#03BE77" stroke="black" stroke-width="0.4"/>
<path d="M150.596 23.4516H150.711L150.769 23.3524C152.352 20.6419 155.249 18.8016 158.607 18.8016C163.634 18.8016 167.707 22.8784 167.707 27.9016C167.707 32.9248 163.634 37.0016 158.607 37.0016C155.249 37.0016 152.353 35.1613 150.769 32.4506L150.711 32.3516H150.596H146.963H146.88L146.822 32.4101L128.277 50.9516H96.8094V42.0516H124.509H124.592L124.651 41.993L143.196 23.4516H150.596Z" fill="#03BE77" stroke="black" stroke-width="0.4"/>
<path d="M107.198 23.4516H107.313L107.371 23.3524C108.954 20.6419 111.852 18.8016 115.209 18.8016C120.233 18.8016 124.309 22.8784 124.309 27.9016C124.309 32.9247 120.233 37.0016 115.209 37.0016C111.852 37.0016 108.954 35.1613 107.371 32.4507L107.313 32.3516H107.198H96.8094V23.4516H107.198Z" fill="#03BE77" stroke="black" stroke-width="0.4"/>
</svg>
