<svg width="190" height="189" viewBox="0 0 190 189" fill="none" xmlns="http://www.w3.org/2000/svg">
<g clip-path="url(#clip0_1654_17021)">
<rect x="1.5" y="1" width="187" height="187" fill="#F1F1F1" fill-opacity="0.5"/>
<path d="M39.1199 188.009C40.2128 189.106 42.0025 189.131 43.1205 188.017C44.2174 186.924 44.2418 185.134 43.1279 184.016L24.7383 165.559L20.7303 169.552L39.1199 188.009Z" fill="white" stroke="black" stroke-width="0.4"/>
<path d="M61.569 184.214C62.6618 185.311 64.4515 185.335 65.5695 184.221C66.6875 183.107 66.6908 181.339 65.5769 180.221L37.877 152.418L33.869 156.411L61.569 184.214Z" fill="#1BCE7C" stroke="black" stroke-width="0.4"/>
<path d="M33.7095 95.6251C32.6166 94.5282 30.8269 94.5038 29.7089 95.6177C28.5909 96.7316 28.5876 98.5002 29.7015 99.6182L60.1757 130.205L64.1837 126.212L33.7095 95.6251Z" fill="white" stroke="black" stroke-width="0.4"/>
<path d="M58.9595 94.6368C57.8666 93.5399 56.0769 93.5155 54.9589 94.6294C53.8409 95.7433 53.8376 97.512 54.9515 98.63L73.3411 117.088L77.3491 113.094L58.9595 94.6368Z" fill="#1BCE7C" stroke="black" stroke-width="0.4"/>
<path d="M86.0415 69.043L121.434 104.566C122.526 105.663 122.544 107.453 121.426 108.567C120.329 109.66 118.54 109.677 117.426 108.559L82.0335 73.0362C80.9407 71.9393 80.9229 70.1495 82.0409 69.0356C83.1589 67.9639 84.9486 67.9461 86.0415 69.043Z" fill="#1BCE7C" stroke="black" stroke-width="0.4"/>
<path d="M87.5454 44.2657L146.266 103.204C147.359 104.301 147.377 106.09 146.259 107.204C145.162 108.297 143.372 108.315 142.258 107.197L83.5375 48.2589C82.4446 47.162 82.4268 45.3722 83.5448 44.2583C84.6629 43.1444 86.4315 43.1477 87.5454 44.2657Z" fill="white"/>
<path d="M96.3911 26.8243L163.708 94.39C164.8 95.4869 164.818 97.2767 163.7 98.3906C162.603 99.4835 160.813 99.5012 159.7 98.3832L92.3832 30.8175C91.2903 29.7205 91.2725 27.9308 92.3906 26.8169C93.5296 25.7241 95.2982 25.7274 96.3911 26.8243Z" fill="black"/>
<path d="M-66.7667 271.611L-66.7663 271.613C-61.3988 295.735 -58.0452 321.64 -78.1278 341.649C-79.9276 343.442 -82.854 343.456 -84.667 341.636L-85.8019 340.497C-87.595 338.698 -87.6095 335.771 -85.7898 333.958C-77.0445 325.245 -73.8116 315.071 -73.4847 303.999C-73.1581 292.936 -75.7326 280.968 -78.6042 268.659L-78.6054 268.655C-78.8506 267.701 -79.0663 266.778 -79.2902 265.819C-79.3327 265.637 -79.3755 265.454 -79.4189 265.269C-79.5443 264.678 -79.6907 264.025 -79.8372 263.413C-79.8727 263.258 -79.9096 263.098 -79.9473 262.936C-80.0432 262.522 -80.1433 262.091 -80.2328 261.669L-80.2335 261.667C-80.3663 261.081 -80.5013 260.499 -80.6362 259.918C-80.905 258.759 -81.1734 257.602 -81.4234 256.424L-81.4238 256.423C-86.7912 232.258 -90.1658 206.374 -70.0832 186.366C-50.0006 166.357 -24.1082 169.807 0.0146838 175.284L0.0167087 175.285C0.974144 175.492 1.91338 175.715 2.84883 175.936C3.65108 176.127 4.45056 176.316 5.25633 176.495L5.26282 176.496C5.54103 176.548 5.82571 176.616 6.11753 176.687C6.16326 176.698 6.20919 176.71 6.25529 176.721C6.50177 176.782 6.75307 176.844 7.00422 176.898C7.59209 177.025 8.24283 177.173 8.8513 177.321L8.85221 177.322C9.3229 177.434 9.78707 177.55 10.2493 177.667C10.913 177.833 11.5727 177.999 12.2418 178.149C24.5611 181.066 36.5243 183.68 47.585 183.391C58.6555 183.103 68.8314 179.907 77.5661 171.205C86.3008 162.503 89.5338 152.339 89.8659 141.272C90.1977 130.215 87.6338 118.247 84.7727 105.927L84.7715 105.923C84.5266 104.971 84.3113 104.049 84.0877 103.092C84.0449 102.908 84.0018 102.724 83.9581 102.537C83.833 101.948 83.6871 101.297 83.541 100.686C83.4879 100.397 83.4193 100.105 83.3491 99.8141C83.3378 99.7672 83.3264 99.7203 83.3151 99.6735C83.2554 99.4271 83.1961 99.1823 83.1441 98.9374L83.1435 98.9347C83.0107 98.35 82.8759 97.7686 82.7412 97.1877C82.4722 96.0279 82.2037 94.8702 81.9536 93.6923L81.9532 93.6905C76.5858 69.5263 73.2322 43.6214 93.2937 23.6339C95.0934 21.8408 98.0199 21.8263 99.8329 23.646L100.968 24.7851C102.761 26.5848 102.775 29.5113 100.956 31.3243C92.2209 40.0268 88.9933 50.1962 88.6664 61.268C88.3398 72.33 90.9089 84.3026 93.7699 96.622C93.9306 97.3515 94.1005 98.0572 94.2729 98.7735C94.3696 99.175 94.467 99.5797 94.5641 99.994L94.5644 99.9949C94.6373 100.299 94.7102 100.615 94.7834 100.931C94.856 101.245 94.9289 101.56 95.0018 101.864C95.0549 102.153 95.1235 102.446 95.1937 102.736C95.205 102.783 95.2163 102.83 95.2276 102.877C95.2874 103.123 95.3467 103.368 95.3987 103.613L95.3993 103.616C95.532 104.2 95.6669 104.782 95.8016 105.362C96.0706 106.522 96.3391 107.68 96.5892 108.858L96.5896 108.86C101.957 133.024 105.332 158.908 85.2491 178.916C65.1665 198.925 39.274 195.476 15.1512 189.998L15.1492 189.998C14.1917 189.791 13.2524 189.568 12.3169 189.346C11.5147 189.156 10.7153 188.966 9.90956 188.788L9.90308 188.787C9.62486 188.735 9.34019 188.667 9.04837 188.595C9.00271 188.584 8.95684 188.573 8.91082 188.561C8.66428 188.501 8.4129 188.439 8.16168 188.384C7.57381 188.257 6.92307 188.109 6.31459 187.961L6.31368 187.961C5.84288 187.849 5.37859 187.732 4.91624 187.616C4.25265 187.449 3.59312 187.283 2.92415 187.133C-9.39515 184.216 -21.3531 181.597 -32.4112 181.883C-43.479 182.169 -53.655 185.364 -62.4002 194.077C-71.1454 202.79 -74.3784 212.965 -74.7053 224.037C-75.0319 235.099 -72.4574 247.067 -69.5857 259.377L-69.5846 259.381C-69.3393 260.334 -69.1237 261.258 -68.8998 262.216C-68.8573 262.398 -68.8145 262.582 -68.7711 262.767C-68.6457 263.357 -68.4993 264.011 -68.3528 264.623C-68.3176 264.777 -68.2809 264.935 -68.2435 265.096C-68.1473 265.511 -68.0469 265.943 -67.9572 266.366L-67.9565 266.369C-67.8239 266.953 -67.6891 267.535 -67.5544 268.115C-67.2854 269.275 -67.0168 270.433 -66.7667 271.611Z" fill="white" stroke="black" stroke-width="0.4"/>
<path d="M-69.3679 259.588C-57.0486 262.505 -45.0906 265.124 -34.0325 264.838C-22.9647 264.552 -12.7887 261.357 -4.04351 252.644C4.70174 243.931 7.93473 233.756 8.26159 222.685C8.58816 211.622 6.01366 199.654 3.14202 187.345L3.1409 187.341C2.89601 186.389 2.68068 185.467 2.45718 184.51C2.41432 184.326 2.37116 184.142 2.32742 183.955C2.20206 183.365 2.05578 182.711 1.90935 182.1C1.87405 181.945 1.83721 181.787 1.79975 181.625C1.70359 181.211 1.60319 180.778 1.51345 180.355L1.51284 180.353C1.38011 179.768 1.24527 179.186 1.11054 178.606C0.841555 177.446 0.573075 176.288 0.322977 175.11L0.322568 175.109C-5.04486 150.944 -8.4195 125.06 11.6631 105.052C31.7457 85.0433 57.6381 88.4927 81.761 93.9703L81.763 93.9708C82.7205 94.1778 83.6598 94.4005 84.5954 94.6223C85.3975 94.8125 86.1969 95.002 87.0026 95.1804L87.0026 95.1805L87.0091 95.1817C87.2873 95.2338 87.572 95.3016 87.8638 95.3731C87.9098 95.3844 87.9559 95.3958 88.0023 95.4072C88.2477 95.4676 88.4979 95.5293 88.748 95.5834C89.0532 95.6577 89.3688 95.7319 89.6835 95.806C89.9994 95.8803 90.3143 95.9544 90.6186 96.0284L90.6186 96.0284L90.6222 96.0292C91.1879 96.1561 91.7436 96.2934 92.3016 96.4314L92.3019 96.4315C92.8588 96.5692 93.4181 96.7074 93.9883 96.8353C106.308 99.7524 118.271 102.366 129.331 102.077C140.402 101.789 150.578 98.5934 159.312 89.8909C161.112 88.0978 164.039 88.0834 165.852 89.903L166.986 91.0422C168.78 92.8419 168.794 95.7683 166.974 97.5813C146.892 117.59 120.999 114.141 96.8765 108.663L96.8745 108.662C95.9169 108.455 94.9776 108.233 94.0421 108.011C93.2399 107.821 92.4405 107.631 91.6348 107.453L91.6348 107.453L91.6283 107.451C91.3501 107.399 91.0654 107.332 90.7736 107.26C90.7277 107.249 90.6816 107.237 90.6354 107.226C90.3891 107.165 90.1379 107.104 89.887 107.049C89.2991 106.922 88.6483 106.774 88.0399 106.626L88.0389 106.626L-69.3226 259.394M-69.3679 259.588C-69.3682 259.588 -69.3684 259.588 -69.3687 259.588L-69.3226 259.394M-69.3679 259.588C-69.3674 259.588 -69.3668 259.589 -69.3663 259.589L-69.3226 259.394M-69.3679 259.588C-70.0367 259.438 -70.696 259.273 -71.3595 259.106C-71.822 258.99 -72.2864 258.873 -72.7574 258.761L-72.7583 258.76C-73.3668 258.612 -74.0175 258.464 -74.6054 258.337C-74.8564 258.283 -75.1075 258.221 -75.3539 258.16C-75.4001 258.149 -75.4462 258.138 -75.4921 258.126C-75.7839 258.055 -76.0686 257.987 -76.3468 257.935L-76.3533 257.934C-77.159 257.755 -77.9585 257.566 -78.7608 257.375C-79.6962 257.154 -80.6355 256.931 -81.5929 256.724L-81.5949 256.724C-105.718 251.246 -131.61 247.796 -151.693 267.805C-153.512 269.618 -153.498 272.544 -151.705 274.344L-150.57 275.483C-148.757 277.303 -145.831 277.288 -144.031 275.495C-135.286 266.782 -125.104 263.582 -114.034 263.293C-102.973 263.005 -91.0158 265.623 -78.7072 268.551M-69.3226 259.394C-69.9912 259.244 -70.6452 259.079 -71.3061 258.913C-71.7686 258.797 -72.2344 258.68 -72.711 258.566C-73.3214 258.418 -73.9738 258.269 -74.5631 258.142C-74.811 258.088 -75.0588 258.027 -75.3051 257.966C-75.6444 257.883 -75.9807 257.8 -76.31 257.738C-77.1054 257.562 -77.9053 257.373 -78.7096 257.182C-79.6505 256.959 -80.5975 256.735 -81.5506 256.528C-105.67 251.052 -131.668 247.571 -151.834 267.663C-153.732 269.555 -153.717 272.608 -151.847 274.485L-150.712 275.624C-148.82 277.523 -145.767 277.508 -143.89 275.637C-126.487 258.298 -103.376 262.889 -78.7517 268.746M-78.7072 268.551C-78.7075 268.551 -78.7077 268.551 -78.708 268.551L-78.7517 268.746M-78.7072 268.551C-78.7066 268.551 -78.706 268.551 -78.7055 268.551L-78.7517 268.746M-78.7072 268.551C-78.0381 268.701 -77.3785 268.867 -76.7149 269.034C-76.2524 269.15 -75.7879 269.267 -75.3169 269.379L-75.316 269.379C-74.7076 269.527 -74.0568 269.675 -73.4689 269.802C-73.218 269.857 -72.9668 269.918 -72.7205 269.979L-72.5822 270.013C-72.2904 270.085 -72.0058 270.153 -71.7276 270.205L-71.7211 270.206C-70.9255 270.382 -70.1255 270.572 -69.3228 270.762L-69.1137 270.811C-68.2402 271.018 -67.3633 271.225 -66.4814 271.416L-66.4794 271.416C-42.3566 276.894 -16.4641 280.343 3.61849 260.334C23.7011 240.326 20.3264 214.442 14.959 190.278L14.9586 190.276C14.7085 189.098 14.44 187.94 14.171 186.781C14.0363 186.2 13.9014 185.618 13.7687 185.034L13.7681 185.031C13.6783 184.608 13.5778 184.175 13.4815 183.76C13.4441 183.599 13.4074 183.441 13.3722 183.287M-78.7517 268.746C-78.0832 268.896 -77.4292 269.06 -76.7683 269.226C-76.3058 269.343 -75.8399 269.46 -75.3633 269.573C-74.753 269.722 -74.1005 269.87 -73.5112 269.998C-73.2634 270.051 -73.0155 270.112 -72.7693 270.173C-72.43 270.257 -72.0936 270.34 -71.7643 270.401C-70.9689 270.577 -70.169 270.767 -69.3646 270.958C-68.4237 271.181 -67.4768 271.405 -66.5237 271.611C-42.404 277.088 -16.4067 280.568 3.75965 260.476C23.926 240.384 20.5209 214.395 15.1543 190.234C14.9038 189.055 14.6346 187.894 14.3653 186.733C14.2307 186.153 14.096 185.572 13.9638 184.989C13.8735 184.564 13.7723 184.128 13.6759 183.713C13.6386 183.552 13.6019 183.394 13.5669 183.241M13.3722 183.287C13.3723 183.287 13.3724 183.287 13.3724 183.288L13.5669 183.241M13.3722 183.287C13.3722 183.286 13.3721 183.286 13.372 183.286L13.5669 183.241M13.3722 183.287C13.2258 182.675 13.0795 182.022 12.9541 181.431M13.5669 183.241C13.4207 182.63 13.2745 181.977 13.1492 181.387M13.1492 181.387L12.9545 181.433C12.9544 181.432 12.9543 181.432 12.9541 181.431M13.1492 181.387C13.1054 181.2 13.0621 181.015 13.0191 180.831C12.7956 179.874 12.5798 178.95 12.3344 177.996L84.6041 105.993L84.6499 105.798C84.6496 105.798 84.6492 105.798 84.6489 105.798C72.3299 102.902 60.372 100.283 49.3142 100.564C38.2464 100.844 28.0704 104.029 19.3251 112.742C10.5798 121.455 7.34682 131.63 7.01996 142.702C6.69339 153.764 9.26789 165.732 12.1395 178.041L12.1407 178.046C12.3855 178.997 12.6009 179.919 12.8243 180.876C12.8672 181.06 12.9104 181.245 12.9541 181.431M13.1492 181.387L12.9536 181.429C12.9538 181.43 12.954 181.431 12.9541 181.431" fill="#03BE77" stroke="black" stroke-width="0.4"/>
<path d="M95.7885 135.615C96.8854 134.522 96.9097 132.732 95.7958 131.614L77.4062 113.156L73.3983 117.149L91.7879 135.607C92.9018 136.725 94.6915 136.707 95.7885 135.615Z" fill="white" stroke="black" stroke-width="0.4"/>
<path d="M94.7148 160.861C95.8117 159.768 95.8361 157.978 94.7222 156.86L64.248 126.273L60.2401 130.267L90.7143 160.854C91.8282 161.93 93.6179 161.954 94.7148 160.861Z" fill="#1BCE7C" stroke="black" stroke-width="0.4"/>
<path d="M19.243 107.431C18.2552 106.44 16.5496 106.5 15.4316 107.614C14.3136 108.728 14.2262 110.412 15.235 111.424L47.0753 143.383L51.0832 139.389L19.243 107.431Z" fill="#1BCE7C" stroke="black" stroke-width="0.4"/>
<path d="M82.9243 171.349L51.084 139.391L47.076 143.384L78.9163 175.342C79.9041 176.333 81.6097 176.273 82.7277 175.16C83.8457 174.046 83.9331 172.361 82.9243 171.349Z" fill="white" stroke="black" stroke-width="0.4"/>
<path d="M6.28313 124.715C5.18622 125.808 5.16185 127.598 6.27574 128.716L33.9547 156.497L37.9626 152.504L10.2837 124.723C9.16981 123.605 7.38005 123.622 6.28313 124.715Z" fill="white" stroke="black" stroke-width="0.4"/>
<path d="M2.3886 147.129C1.29168 148.222 1.26732 150.012 2.38121 151.13L20.7708 169.588L24.7788 165.594L6.38916 147.137C5.27528 146.019 3.48551 146.037 2.3886 147.129Z" fill="#1BCE7C" stroke="black" stroke-width="0.4"/>
<path d="M99.5688 30.0079C98.476 28.911 96.6863 28.8866 95.5683 30.0005C94.4714 31.0934 94.447 32.883 95.5609 34.0011L126.035 64.5881L130.043 60.5949L99.5688 30.0079Z" fill="white" stroke="black" stroke-width="0.4"/>
<path d="M160.572 95.2478C161.669 94.1549 161.694 92.3652 160.58 91.2472L130.105 60.6602L126.098 64.6533L156.572 95.2404C157.686 96.3163 159.475 96.3406 160.572 95.2478Z" fill="#1BCE7C" stroke="black" stroke-width="0.4"/>
<path d="M89.0984 45.8258C88.1107 44.8344 86.405 44.8944 85.287 46.0083C84.1901 47.1012 84.0817 48.8065 85.0905 49.819L112.959 77.7903L116.967 73.7972L89.0984 45.8258Z" fill="#1BCE7C" stroke="black" stroke-width="0.4"/>
<path d="M144.118 101.053L116.943 73.7773L112.935 77.7705L140.11 105.046C141.098 106.037 142.803 105.977 143.921 104.863C145.039 103.749 145.127 102.065 144.118 101.053Z" fill="white" stroke="black" stroke-width="0.4"/>
<path d="M83.9765 70.9771C82.8796 72.0699 82.8552 73.8596 83.9691 74.9776L99.7946 90.8618L103.803 86.8686L87.9771 70.9844C86.8842 69.8875 85.0734 69.8842 83.9765 70.9771Z" fill="white" stroke="black" stroke-width="0.4"/>
</g>
<rect x="1.1" y="0.6" width="187.8" height="187.8" stroke="black" stroke-opacity="0.3" stroke-width="0.8"/>
<defs>
<clipPath id="clip0_1654_17021">
<rect x="1.5" y="1" width="187" height="187" fill="white"/>
</clipPath>
</defs>
</svg>
