<svg width="190" height="189" viewBox="0 0 190 189" fill="none" xmlns="http://www.w3.org/2000/svg">
<path d="M1.5 1H188.5V188H1.5V1Z" fill="#F1F1F1" fill-opacity="0.5"/>
<path d="M1.5 0.6H1.1V1V188V188.4H1.5H188.5H188.9V188V1V0.6H188.5H1.5Z" stroke="black" stroke-opacity="0.3" stroke-width="0.8"/>
<path d="M96.2318 81.341H96.2309H96.2302H96.2294H96.2286H96.2278H96.227H96.2262H96.2254H96.2246H96.2238H96.223H96.2222H96.2214H96.2206H96.2199H96.2191H96.2183H96.2175H96.2167H96.2159H96.2152H96.2144H96.2136H96.2128H96.212H96.2113H96.2105H96.2097H96.209H96.2082H96.2074H96.2066H96.2059H96.2051H96.2043H96.2036H96.2028H96.202H96.2013H96.2005H96.1998H96.199H96.1982H96.1975H96.1967H96.196H96.1952H96.1944H96.1937H96.1929H96.1922H96.1914H96.1907H96.1899H96.1892H96.1884H96.1877H96.1869H96.1862H96.1854H96.1847H96.1839H96.1832H96.1825H96.1817H96.181H96.1802H96.1795H96.1788H96.178H96.1773H96.1765H96.1758H96.1751H96.1743H96.1736H96.1729H96.1721H96.1714H96.1707H96.17H96.1692H96.1685H96.1678H96.167H96.1663H96.1656H96.1649H96.1641H96.1634H96.1627H96.162H96.1612H96.1605H96.1598H96.1591H96.1584H96.1576H96.1569H96.1562H96.1555H96.1548H96.1541H96.1534H96.1526H96.1519H96.1512H96.1505H96.1498H96.1491H96.1484H96.1477H96.1469H96.1462H96.1455H96.1448H96.1441H96.1434H96.1427H96.142H96.1413H96.1406H96.1399H96.1392H96.1385H96.1378H96.1371H96.1364H96.1357H96.135H96.1343H96.1336H96.1329H96.1322H96.1315H96.1308H96.1301H96.1294H96.1287H96.128H96.1273H96.1266H96.1259H96.1252H96.1245H96.1238H96.1232H96.1225H96.1218H96.1211H96.1204H96.1197H96.119H96.1183H96.1176H96.1169H96.1163H96.1156H96.1149H96.1142H96.1135H96.1128H96.1121H96.1115H96.1108H96.1101H96.1094H96.1087H96.108H96.1074H96.1067H96.106H96.1053H96.1046H96.104H96.1033H96.1026H96.1019H96.1012H96.1006H96.0999H96.0992H96.0985H96.0978H96.0972H96.0965H96.0958H96.0951H96.0945H96.0938H96.0931H96.0924H96.0917H96.0911H96.0904H96.0897H96.0891H96.0884H96.0877H96.087H96.0864H96.0857H96.085H96.0843H96.0837H96.083H96.0823H96.0816H96.081H96.0803H96.0796H96.079H96.0783H96.0776H96.0769H96.0763H96.0756H96.0749H96.0743H96.0736H96.0729H96.0723H96.0716H96.0709H96.0702H96.0696H96.0689H96.0682H96.0676H96.0669H96.0662H96.0656H96.0649H96.0642H96.0636H96.0629H96.0622H96.0616H96.0609H96.0602H96.0596H96.0589H96.0582H96.0576H96.0569H96.0562H96.0555H96.0549H96.0542H96.0535H96.0529H96.0522H96.0515H96.0509H96.0502H96.0495H96.0489H96.0482H96.0475H96.0469H96.0462H96.0455H96.0449H96.0442H96.0435H96.0429H96.0422H96.0415H96.0409H96.0402H96.0395H96.0389H96.0382H96.0375H96.0369H96.0362H96.0355H96.0349H96.0342H96.0335H96.0329H96.0322H96.0315H96.0308H96.0302H96.0295H96.0288H96.0282H96.0275H96.0268H96.0262H96.0255H96.0248H96.0241H96.0235H96.0228H96.0221H96.0215H96.0208H96.0201H96.0195H96.0188H96.0181H96.0174H96.0168H96.0161H96.0154H96.0147H96.0141H96.0134H96.0127H96.0121H96.0114H96.0107H96.01H96.0094H96.0087H96.008H96.0073H96.0067H96.006H96.0053H96.0046H96.004H96.0033H96.0026H96.0019H96.0012H96.0006H95.9999H95.9992H95.9985H95.9979H95.9972H95.9965H95.9958H95.9951H95.9945H95.9938H95.9931H95.9924H95.9917H95.991H95.9904H95.9897H95.989H95.9883H95.9876H95.9869H95.9863H95.9856H95.9849H95.9842H95.9835H95.9828H95.9821H95.9814H95.9808H95.9801H95.9794H95.9787H95.978H95.9773H95.9766H95.9759H95.9752H95.9745H95.9739H95.9732H95.9725H95.9718H95.9711H95.9704H95.9697H95.969H95.9683H95.9676H95.9669H95.9662H95.9655H95.9648H95.9641H95.9634H95.9627H95.962H95.9613H95.9606H95.9599H95.9592H95.9585H95.9578H95.9571H95.9564H95.9557H95.955H95.9543H95.9536H95.9528H95.9521H95.9514H95.9507H95.95H95.9493H95.9486H95.9479H95.9472H95.9464H95.9457H95.945H95.9443H95.9436H95.9429H95.9422H95.9414H95.9407H95.94H95.9393H95.9386H95.9378H95.9371H95.9364H95.9357H95.9349H95.9342H95.9335H95.9328H95.932H95.9313H95.9306H95.9299H95.9291H95.9284H95.9277H95.9269H95.9262H95.9255H95.9247H95.924H95.9233H95.9225H95.9218H95.9211H95.9203H95.9196H95.9188H95.9181H95.9174H95.9166H95.9159H95.9151H95.9144H95.9136H95.9129H95.9122H95.9114H95.9107H95.9099H95.9092H95.9084H95.9077H95.9069H95.9062H95.9054H95.9046H95.9039H95.9031H95.9024H95.9016H95.9009H95.9001H95.8993H95.8986H95.8978H95.897H95.8963H95.8955H95.8948H95.894H95.8932H95.8924H95.8917H95.8909H95.8901H95.8894H95.8886H95.8878H95.887H95.8864C95.639 81.2949 95.315 81.2961 95.0344 81.3405C81.9407 80.924 72.0613 70.6194 72.0613 57.9222C72.0613 44.992 82.5856 34.4578 95.5029 34.4578C108.42 34.4578 118.945 44.992 118.945 57.9222C118.899 70.627 108.963 80.9325 96.3653 81.341H96.3652H96.3649H96.3647H96.3644H96.3641H96.3639H96.3636H96.3633H96.3631H96.3628H96.3625H96.3623H96.362H96.3617H96.3615H96.3612H96.3609H96.3607H96.3604H96.3601H96.3599H96.3596H96.3593H96.3591H96.3588H96.3585H96.3583H96.358H96.3577H96.3575H96.3572H96.3569H96.3567H96.3564H96.3561H96.3559H96.3556H96.3553H96.3551H96.3548H96.3545H96.3543H96.354H96.3537H96.3535H96.3532H96.3529H96.3527H96.3524H96.3521H96.3519H96.3516H96.3513H96.3511H96.3508H96.3505H96.3503H96.35H96.3497H96.3495H96.3492H96.3489H96.3487H96.3484H96.3481H96.3479H96.3476H96.3473H96.3471H96.3468H96.3465H96.3463H96.346H96.3457H96.3455H96.3452H96.3449H96.3447H96.3444H96.3441H96.3439H96.3436H96.3433H96.3431H96.3428H96.3425H96.3423H96.342H96.3417H96.3415H96.3412H96.3409H96.3407H96.3404H96.3401H96.3399H96.3396H96.3393H96.3391H96.3388H96.3385H96.3382H96.338H96.3377H96.3374H96.3372H96.3369H96.3366H96.3364H96.3361H96.3358H96.3356H96.3353H96.335H96.3348H96.3345H96.3342H96.334H96.3337H96.3334H96.3332H96.3329H96.3326H96.3324H96.3321H96.3318H96.3316H96.3313H96.331H96.3308H96.3305H96.3302H96.33H96.3297H96.3294H96.3292H96.3289H96.3286H96.3284H96.3281H96.3278H96.3276H96.3273H96.327H96.3268H96.3265H96.3262H96.326H96.3257H96.3254H96.3252H96.3249H96.3246H96.3244H96.3241H96.3238H96.3236H96.3233H96.323H96.3228H96.3225H96.3222H96.322H96.3217H96.3214H96.3212H96.3209H96.3206H96.3204H96.3201H96.3198H96.3196H96.3193H96.319H96.3188H96.3185H96.3182H96.318H96.3177H96.3174H96.3172H96.3169H96.3166H96.3164H96.3161H96.3158H96.3156H96.3153H96.315H96.3148H96.3145H96.3142H96.314H96.3137H96.3134H96.3132H96.3129H96.3126H96.3124H96.3121H96.3118H96.3116H96.3113H96.311H96.3108H96.3105H96.3102H96.31H96.3097H96.3094H96.3092H96.3089H96.3086H96.3084H96.3081H96.3078H96.3076H96.3073H96.307H96.3068H96.3065H96.3062H96.306H96.3057H96.3054H96.3052H96.3049H96.3046H96.3044H96.3041H96.3038H96.3036H96.3033H96.303H96.3027H96.3025H96.3022H96.3019H96.3017H96.3014H96.3011H96.3009H96.3006H96.3003H96.3001H96.2998H96.2995H96.2993H96.299H96.2987H96.2985H96.2982H96.2979H96.2977H96.2974H96.2971H96.2969H96.2966H96.2963H96.2961H96.2958H96.2955H96.2953H96.295H96.2947H96.2945H96.2942H96.2939H96.2937H96.2934H96.2931H96.2929H96.2926H96.2923H96.2921H96.2918H96.2915H96.2913H96.291H96.2907H96.2905H96.2902H96.2899H96.2897H96.2894H96.2891H96.2889H96.2886H96.2883H96.2881H96.2878H96.2875H96.2873H96.287H96.2867H96.2865H96.2862H96.2859H96.2857H96.2854H96.2851H96.2849H96.2846H96.2843H96.2841H96.2838H96.2835H96.2833H96.283H96.2827H96.2825H96.2822H96.2819H96.2817H96.2814H96.2811H96.2809H96.2806H96.2803H96.2801H96.2798H96.2795H96.2793H96.279H96.2787H96.2785H96.2782H96.2779H96.2777H96.2774H96.2771H96.2769H96.2766H96.2763H96.2761H96.2758H96.2755H96.2753H96.275H96.2747H96.2745H96.2742H96.2739H96.2737H96.2734H96.2731H96.2729H96.2726H96.2723H96.2721H96.2718H96.2715H96.2713H96.271H96.2707H96.2705H96.2702H96.2699H96.2697H96.2694H96.2691H96.2689H96.2686H96.2683H96.268H96.2678H96.2675H96.2673H96.267H96.2667H96.2664H96.2662H96.2659H96.2656H96.2654H96.2651H96.2648H96.2646H96.2643H96.264H96.2638H96.2635H96.2632H96.263H96.2627H96.2624H96.2622H96.2619H96.2616H96.2614H96.2611H96.2608H96.2606H96.2603H96.26H96.2598H96.2595H96.2592H96.259H96.2587H96.2584H96.2582H96.2579H96.2576H96.2574H96.2571H96.2568H96.2566H96.2563H96.256H96.2558H96.2555H96.2552H96.255H96.2547H96.2544H96.2542H96.2539H96.2536H96.2534H96.2531H96.2528H96.2526H96.2523H96.252H96.2518H96.2515H96.2512H96.251H96.2507H96.2504H96.2502H96.2499H96.2496H96.2494H96.2491H96.2488H96.2486H96.2483H96.248H96.2478H96.2475H96.2472H96.247H96.2467H96.2464H96.2462H96.2459H96.2456H96.2454H96.2451H96.2448H96.2446H96.2443H96.244H96.2438H96.2435H96.2432H96.243H96.2427H96.2424H96.2422H96.2419H96.2416H96.2414H96.2411H96.2408H96.2406H96.2403H96.24H96.2398H96.2395H96.2392H96.239H96.2387H96.2384H96.2382H96.2379H96.2376H96.2374H96.2371H96.2368H96.2366H96.2363H96.236H96.2358H96.2355H96.2352H96.235H96.2347H96.2344H96.2342H96.2339H96.2336H96.2334H96.2331H96.2328H96.2326H96.2323H96.232H96.2318Z" fill="white" stroke="black" stroke-width="0.4"/>
<path d="M59.5255 150.013L59.5244 150.012C50.0624 143.75 44.9129 135.191 44.9129 125.905C44.9129 116.619 50.0628 107.992 59.5248 101.661C69.742 94.8835 83.1374 91.4891 96.5258 91.4891C109.914 91.4891 123.275 94.8836 133.424 101.661L133.424 101.661C142.819 107.924 148.036 116.483 148.036 125.768C148.036 135.055 142.886 143.682 133.424 150.013C123.207 156.824 109.845 160.236 96.4745 160.236C83.1031 160.236 69.6738 156.824 59.5255 150.013Z" fill="#03BE77" stroke="black" stroke-width="0.4"/>
</svg>
