<svg width="1033" height="1033" viewBox="0 0 1033 1033" fill="none" xmlns="http://www.w3.org/2000/svg">
<mask id="mask0_1654_16835" style="mask-type:alpha" maskUnits="userSpaceOnUse" x="256" y="256" width="521" height="521">
<mask id="path-1-inside-1_1654_16835" fill="white">
<path fill-rule="evenodd" clip-rule="evenodd" d="M588.945 290.578C557.451 249.007 484.887 244.314 452.9 283.266C445.468 292.261 438.18 301.516 430.883 310.817C423.021 308.995 415.258 307.268 407.65 305.843C355.985 298.717 301.356 346.709 306.281 396.871C307.305 407.627 308.573 418.454 309.88 429.316C303.361 434.161 296.914 439.019 290.655 443.966C251.942 475.757 239.498 549.073 287.098 586.256C293.956 591.181 301.156 595.997 308.491 600.819C307.282 609.008 306.134 617.154 305.188 625.228C300.294 675.081 343.338 735.723 403.287 728.357C412.196 726.896 421.292 725.07 430.497 723.157C434.809 729.529 439.135 735.829 443.544 741.957C475.422 783.228 548.149 791.498 588.557 742.612C593.163 736.537 597.681 730.259 602.185 723.896C609.505 725.304 616.787 726.652 624.009 727.83C675.733 734.472 733.007 688.894 727.012 625.754C726.003 618.415 724.799 611 723.526 603.538C730.144 598.973 736.675 594.396 742.987 589.724C796.365 546.366 779.527 471.768 737.708 440.086C733.315 437.092 728.812 434.147 724.248 431.219C725.649 423.568 726.979 415.967 728.102 408.446C735.187 340.045 670.532 299.201 618.559 306.37C612.907 307.44 607.206 308.641 601.469 309.903C597.327 303.271 593.185 296.772 588.945 290.578ZM601.469 309.903C597.074 310.87 592.657 311.872 588.225 312.877C565.203 318.1 541.778 323.415 518.825 324.338C492.911 325.381 465.762 319.002 439.468 312.824C436.595 312.149 433.733 311.477 430.883 310.817C430.228 311.652 429.573 312.488 428.917 313.323C412.09 334.782 395.149 356.384 376.244 375.524C358.891 393.093 338.361 408.261 318.068 423.255C315.332 425.277 312.6 427.295 309.88 429.316C310.111 431.237 310.344 433.16 310.577 435.083C313.851 462.155 317.147 489.409 317.313 516.311C317.466 541.005 313.675 566.247 309.927 591.199C309.445 594.411 308.963 597.618 308.491 600.819C310.872 602.384 313.266 603.949 315.668 605.52C338.879 620.694 362.746 636.297 380.84 655.908C397.14 673.575 411.026 694.223 424.734 714.606C426.656 717.465 428.575 720.318 430.497 723.157C432.696 722.701 434.901 722.239 437.111 721.776C464.253 716.093 492.163 710.25 518.825 711.323C542.843 712.289 567.262 717.071 591.368 721.791C594.982 722.499 598.588 723.205 602.185 723.896C604.312 720.892 606.435 717.868 608.564 714.838C623.263 693.91 638.182 672.668 655.894 655.174C673.346 637.936 694.471 623.46 715.278 609.202C718.036 607.312 720.789 605.426 723.526 603.538C722.87 599.692 722.195 595.834 721.519 591.967C717.115 566.776 712.644 541.205 712.798 516.311C712.949 491.782 717.651 466.608 722.282 441.813C722.943 438.273 723.603 434.741 724.248 431.219C720.09 428.553 715.882 425.9 711.657 423.238C691.684 410.652 671.363 397.846 654.479 382.269C635.418 364.683 620.732 340.975 606.507 318.013C604.823 315.296 603.146 312.588 601.469 309.903Z"/>
</mask>
<path fill-rule="evenodd" clip-rule="evenodd" d="M588.945 290.578C557.451 249.007 484.887 244.314 452.9 283.266C445.468 292.261 438.18 301.516 430.883 310.817C423.021 308.995 415.258 307.268 407.65 305.843C355.985 298.717 301.356 346.709 306.281 396.871C307.305 407.627 308.573 418.454 309.88 429.316C303.361 434.161 296.914 439.019 290.655 443.966C251.942 475.757 239.498 549.073 287.098 586.256C293.956 591.181 301.156 595.997 308.491 600.819C307.282 609.008 306.134 617.154 305.188 625.228C300.294 675.081 343.338 735.723 403.287 728.357C412.196 726.896 421.292 725.07 430.497 723.157C434.809 729.529 439.135 735.829 443.544 741.957C475.422 783.228 548.149 791.498 588.557 742.612C593.163 736.537 597.681 730.259 602.185 723.896C609.505 725.304 616.787 726.652 624.009 727.83C675.733 734.472 733.007 688.894 727.012 625.754C726.003 618.415 724.799 611 723.526 603.538C730.144 598.973 736.675 594.396 742.987 589.724C796.365 546.366 779.527 471.768 737.708 440.086C733.315 437.092 728.812 434.147 724.248 431.219C725.649 423.568 726.979 415.967 728.102 408.446C735.187 340.045 670.532 299.201 618.559 306.37C612.907 307.44 607.206 308.641 601.469 309.903C597.327 303.271 593.185 296.772 588.945 290.578ZM601.469 309.903C597.074 310.87 592.657 311.872 588.225 312.877C565.203 318.1 541.778 323.415 518.825 324.338C492.911 325.381 465.762 319.002 439.468 312.824C436.595 312.149 433.733 311.477 430.883 310.817C430.228 311.652 429.573 312.488 428.917 313.323C412.09 334.782 395.149 356.384 376.244 375.524C358.891 393.093 338.361 408.261 318.068 423.255C315.332 425.277 312.6 427.295 309.88 429.316C310.111 431.237 310.344 433.16 310.577 435.083C313.851 462.155 317.147 489.409 317.313 516.311C317.466 541.005 313.675 566.247 309.927 591.199C309.445 594.411 308.963 597.618 308.491 600.819C310.872 602.384 313.266 603.949 315.668 605.52C338.879 620.694 362.746 636.297 380.84 655.908C397.14 673.575 411.026 694.223 424.734 714.606C426.656 717.465 428.575 720.318 430.497 723.157C432.696 722.701 434.901 722.239 437.111 721.776C464.253 716.093 492.163 710.25 518.825 711.323C542.843 712.289 567.262 717.071 591.368 721.791C594.982 722.499 598.588 723.205 602.185 723.896C604.312 720.892 606.435 717.868 608.564 714.838C623.263 693.91 638.182 672.668 655.894 655.174C673.346 637.936 694.471 623.46 715.278 609.202C718.036 607.312 720.789 605.426 723.526 603.538C722.87 599.692 722.195 595.834 721.519 591.967C717.115 566.776 712.644 541.205 712.798 516.311C712.949 491.782 717.651 466.608 722.282 441.813C722.943 438.273 723.603 434.741 724.248 431.219C720.09 428.553 715.882 425.9 711.657 423.238C691.684 410.652 671.363 397.846 654.479 382.269C635.418 364.683 620.732 340.975 606.507 318.013C604.823 315.296 603.146 312.588 601.469 309.903Z" fill="#D9D9D9" fill-opacity="0.5"/>
<path d="M452.9 283.266L453.385 283.666L453.386 283.665L452.9 283.266ZM588.945 290.578L589.464 290.222L589.455 290.21L589.446 290.198L588.945 290.578ZM407.65 305.843L407.765 305.225L407.75 305.222L407.735 305.22L407.65 305.843ZM306.281 396.871L306.907 396.811L306.907 396.809L306.281 396.871ZM290.655 443.966L290.265 443.473L290.256 443.48L290.655 443.966ZM287.098 586.256L286.711 586.751L286.721 586.759L286.731 586.766L287.098 586.256ZM305.188 625.228L304.564 625.155L304.563 625.166L305.188 625.228ZM403.287 728.357L403.364 728.981L403.377 728.979L403.389 728.977L403.287 728.357ZM443.544 741.957L443.033 742.324L443.039 742.333L443.046 742.341L443.544 741.957ZM588.557 742.612L589.042 743.013L589.05 743.003L589.058 742.992L588.557 742.612ZM624.009 727.83L623.907 728.451L623.918 728.453L623.929 728.454L624.009 727.83ZM727.012 625.754L727.638 625.694L727.637 625.681L727.635 625.668L727.012 625.754ZM742.987 589.724L743.361 590.229L743.373 590.221L743.384 590.212L742.987 589.724ZM737.708 440.086L738.087 439.585L738.075 439.575L738.062 439.566L737.708 440.086ZM728.102 408.446L728.724 408.539L728.726 408.525L728.727 408.511L728.102 408.446ZM618.559 306.37L618.473 305.747L618.457 305.749L618.442 305.752L618.559 306.37ZM588.225 312.877L588.365 313.49L588.225 312.877ZM518.825 324.338L518.85 324.967L518.825 324.338ZM439.468 312.824L439.611 312.212L439.468 312.824ZM428.917 313.323L428.423 312.936L428.917 313.323ZM376.244 375.524L375.797 375.082L376.244 375.524ZM318.068 423.255L317.694 422.749L318.068 423.255ZM310.577 435.083L311.201 435.007L310.577 435.083ZM317.313 516.311L316.685 516.315L317.313 516.311ZM309.927 591.199L309.306 591.105L309.927 591.199ZM315.668 605.52L316.012 604.993L315.668 605.52ZM380.84 655.908L381.302 655.482L380.84 655.908ZM424.734 714.606L425.255 714.255L424.734 714.606ZM437.111 721.776L436.982 721.161L437.111 721.776ZM518.825 711.323L518.8 711.951L518.825 711.323ZM591.368 721.791L591.248 722.408L591.368 721.791ZM608.564 714.838L608.049 714.477L608.564 714.838ZM655.894 655.174L656.336 655.621L655.894 655.174ZM715.278 609.202L714.923 608.683L715.278 609.202ZM721.519 591.967L722.139 591.859L721.519 591.967ZM712.798 516.311L713.426 516.315L712.798 516.311ZM722.282 441.813L721.664 441.697L722.282 441.813ZM711.657 423.238L711.322 423.77L711.657 423.238ZM654.479 382.269L654.906 381.807L654.479 382.269ZM606.507 318.013L607.041 317.682V317.682L606.507 318.013ZM453.386 283.665C469.22 264.383 495.14 255.861 521.072 257.353C547.002 258.845 572.829 270.346 588.444 290.957L589.446 290.198C573.567 269.238 547.366 257.607 521.144 256.098C494.923 254.589 468.567 263.197 452.414 282.867L453.386 283.665ZM431.378 311.205C438.674 301.904 445.958 292.655 453.385 283.666L452.416 282.865C444.978 291.868 437.685 301.128 430.389 310.429L431.378 311.205ZM407.534 306.46C415.129 307.883 422.882 309.608 430.741 311.429L431.025 310.204C423.161 308.382 415.387 306.652 407.765 305.225L407.534 306.46ZM306.907 396.809C304.469 371.978 316.771 347.624 336.162 330.343C355.553 313.063 381.948 302.932 407.564 306.465L407.735 305.22C381.686 301.627 354.935 311.93 335.326 329.404C315.718 346.878 303.168 371.601 305.655 396.932L306.907 396.809ZM310.504 429.241C309.197 418.379 307.93 407.559 306.907 396.811L305.655 396.93C306.68 407.695 307.949 418.529 309.256 429.391L310.504 429.241ZM291.044 444.459C297.296 439.518 303.737 434.664 310.255 429.821L309.505 428.812C302.984 433.658 296.531 438.52 290.265 443.473L291.044 444.459ZM287.485 585.76C263.882 567.323 255.148 539.921 257.136 513.135C259.125 486.336 271.845 460.226 291.053 444.452L290.256 443.48C270.752 459.497 257.894 485.94 255.882 513.042C253.87 540.159 262.714 568.006 286.711 586.751L287.485 585.76ZM308.836 600.294C301.503 595.473 294.312 590.663 287.465 585.745L286.731 586.766C293.6 591.7 300.809 596.521 308.146 601.344L308.836 600.294ZM305.812 625.301C306.757 617.237 307.904 609.098 309.113 600.911L307.869 600.727C306.66 608.918 305.51 617.072 304.564 625.155L305.812 625.301ZM403.211 727.733C373.484 731.385 347.932 718.185 330.397 697.839C312.854 677.483 303.385 650.026 305.814 625.289L304.563 625.166C302.097 650.283 311.703 678.074 329.445 698.66C347.196 719.257 373.141 732.694 403.364 728.981L403.211 727.733ZM430.369 722.542C421.166 724.454 412.08 726.278 403.186 727.736L403.389 728.977C412.311 727.514 421.419 725.685 430.625 723.773L430.369 722.542ZM444.054 741.59C439.65 735.469 435.328 729.175 431.017 722.805L429.976 723.51C434.29 729.883 438.619 736.189 443.033 742.324L444.054 741.59ZM588.073 742.212C547.942 790.762 475.693 782.551 444.041 741.573L443.046 742.341C475.15 783.905 548.356 792.235 589.042 743.013L588.073 742.212ZM601.672 723.533C597.17 729.894 592.656 736.165 588.056 742.233L589.058 742.992C593.67 736.909 598.193 730.624 602.698 724.26L601.672 723.533ZM624.11 727.21C616.896 726.033 609.622 724.686 602.304 723.279L602.066 724.514C609.389 725.922 616.677 727.271 623.907 728.451L624.11 727.21ZM726.386 625.813C732.34 688.52 675.446 733.802 624.089 727.207L623.929 728.454C676.02 735.143 733.674 689.268 727.638 625.694L726.386 625.813ZM722.906 603.643C724.179 611.103 725.381 618.51 726.389 625.839L727.635 625.668C726.624 618.32 725.419 610.897 724.146 603.432L722.906 603.643ZM742.613 589.218C736.309 593.885 729.785 598.457 723.169 603.02L723.883 604.055C730.503 599.489 737.04 594.908 743.361 590.229L742.613 589.218ZM737.328 440.587C758.091 456.316 772.672 482.723 775.421 510.588C778.167 538.432 769.098 567.705 742.591 589.236L743.384 590.212C770.254 568.385 779.455 538.68 776.672 510.465C773.891 482.27 759.144 455.537 738.087 439.585L737.328 440.587ZM723.908 431.748C728.47 434.674 732.967 437.615 737.353 440.605L738.062 439.566C733.662 436.568 729.154 433.619 724.587 430.69L723.908 431.748ZM727.48 408.354C726.359 415.864 725.03 423.457 723.629 431.106L724.866 431.332C726.268 423.678 727.6 416.069 728.724 408.539L727.48 408.354ZM618.645 306.993C644.449 303.434 673.432 311.795 695.079 329.555C716.709 347.302 730.995 374.414 727.477 408.382L728.727 408.511C732.294 374.077 717.795 346.567 695.876 328.583C673.973 310.613 644.642 302.138 618.473 305.747L618.645 306.993ZM601.604 310.517C607.338 309.256 613.033 308.056 618.676 306.987L618.442 305.752C612.782 306.824 607.075 308.027 601.334 309.289L601.604 310.517ZM588.426 290.933C592.659 297.116 596.796 303.606 600.936 310.236L602.002 309.57C597.859 302.935 593.711 296.428 589.464 290.222L588.426 290.933ZM588.365 313.49C592.797 312.485 597.211 311.483 601.604 310.517L601.334 309.289C596.936 310.256 592.518 311.259 588.086 312.264L588.365 313.49ZM518.85 324.967C541.871 324.04 565.353 318.711 588.365 313.49L588.086 312.264C565.053 317.49 541.685 322.79 518.8 323.71L518.85 324.967ZM439.324 313.436C465.6 319.61 492.835 326.013 518.85 324.967L518.8 323.71C492.987 324.749 465.924 318.395 439.611 312.212L439.324 313.436ZM430.741 311.429C433.59 312.089 436.451 312.761 439.324 313.436L439.611 312.212C436.739 311.538 433.876 310.865 431.025 310.204L430.741 311.429ZM429.412 313.711C430.067 312.876 430.723 312.04 431.378 311.205L430.389 310.429C429.733 311.264 429.078 312.1 428.423 312.936L429.412 313.711ZM376.691 375.965C395.626 356.796 412.588 335.164 429.412 313.711L428.423 312.936C411.591 334.399 394.672 355.972 375.797 375.082L376.691 375.965ZM318.441 423.76C338.728 408.772 359.297 393.575 376.691 375.965L375.797 375.082C358.484 392.61 337.995 407.75 317.694 422.749L318.441 423.76ZM310.255 429.821C312.974 427.8 315.705 425.782 318.441 423.76L317.694 422.749C314.958 424.771 312.225 426.79 309.505 428.812L310.255 429.821ZM311.201 435.007C310.968 433.084 310.736 431.162 310.504 429.241L309.256 429.391C309.487 431.313 309.72 433.235 309.952 435.158L311.201 435.007ZM317.942 516.307C317.775 489.363 314.474 462.073 311.201 435.007L309.952 435.158C313.228 462.237 316.519 489.455 316.685 516.315L317.942 516.307ZM310.549 591.292C314.295 566.349 318.095 541.058 317.942 516.307L316.685 516.315C316.837 540.951 313.055 566.144 309.306 591.105L310.549 591.292ZM309.113 600.911C309.585 597.711 310.067 594.504 310.549 591.292L309.306 591.105C308.823 594.317 308.342 597.525 307.869 600.727L309.113 600.911ZM316.012 604.993C313.61 603.423 311.216 601.858 308.836 600.294L308.146 601.344C310.527 602.91 312.922 604.476 315.324 606.046L316.012 604.993ZM381.302 655.482C363.146 635.803 339.209 620.158 316.012 604.993L315.324 606.046C338.549 621.229 362.346 636.791 380.378 656.335L381.302 655.482ZM425.255 714.255C411.553 693.879 397.64 673.19 381.302 655.482L380.378 656.335C396.64 673.96 410.499 694.566 424.212 714.957L425.255 714.255ZM431.017 722.805C429.096 719.967 427.178 717.114 425.255 714.255L424.212 714.957C426.135 717.816 428.054 720.67 429.976 723.51L431.017 722.805ZM436.982 721.161C434.772 721.624 432.567 722.085 430.369 722.542L430.625 723.773C432.824 723.316 435.03 722.854 437.24 722.391L436.982 721.161ZM518.85 710.695C492.096 709.618 464.108 715.482 436.982 721.161L437.24 722.391C464.399 716.705 492.23 710.882 518.8 711.951L518.85 710.695ZM591.489 721.174C567.392 716.456 542.925 711.663 518.85 710.695L518.8 711.951C542.761 712.915 567.132 717.686 591.248 722.408L591.489 721.174ZM602.304 723.279C598.708 722.588 595.103 721.882 591.489 721.174L591.248 722.408C594.861 723.115 598.468 723.822 602.066 724.514L602.304 723.279ZM608.049 714.477C605.921 717.507 603.798 720.53 601.672 723.533L602.698 724.26C604.826 721.254 606.95 718.229 609.078 715.199L608.049 714.477ZM655.452 654.726C637.693 672.267 622.742 693.558 608.049 714.477L609.078 715.199C623.783 694.262 638.671 673.068 656.336 655.621L655.452 654.726ZM714.923 608.683C694.125 622.935 672.951 637.442 655.452 654.726L656.336 655.621C673.74 638.43 694.817 623.985 715.634 609.72L714.923 608.683ZM723.169 603.02C720.433 604.908 717.681 606.793 714.923 608.683L715.634 609.72C718.392 607.831 721.145 605.944 723.883 604.055L723.169 603.02ZM720.9 592.076C721.576 595.943 722.251 599.8 722.906 603.643L724.146 603.432C723.489 599.585 722.815 595.726 722.139 591.859L720.9 592.076ZM712.169 516.307C712.015 541.268 716.498 566.895 720.9 592.076L722.139 591.859C717.732 566.656 713.273 541.142 713.426 516.315L712.169 516.307ZM721.664 441.697C717.035 466.482 712.321 491.712 712.169 516.307L713.426 516.315C713.577 491.852 718.267 466.735 722.9 441.928L721.664 441.697ZM723.629 431.106C722.985 434.626 722.325 438.157 721.664 441.697L722.9 441.928C723.561 438.388 724.221 434.855 724.866 431.332L723.629 431.106ZM711.322 423.77C715.547 426.432 719.753 429.083 723.908 431.748L724.587 430.69C720.427 428.022 716.216 425.368 711.992 422.706L711.322 423.77ZM654.053 382.731C670.986 398.354 691.359 411.19 711.322 423.77L711.992 422.706C692.01 410.114 671.739 397.338 654.906 381.807L654.053 382.731ZM605.973 318.344C620.187 341.29 634.918 365.076 654.053 382.731L654.906 381.807C635.919 364.289 621.276 340.66 607.041 317.682L605.973 318.344ZM600.936 310.236C602.612 312.92 604.289 315.627 605.973 318.344L607.041 317.682C605.358 314.965 603.68 312.257 602.002 309.57L600.936 310.236Z" fill="#94C8B2" mask="url(#path-1-inside-1_1654_16835)"/>
</mask>
<g mask="url(#mask0_1654_16835)">
<path d="M513.148 159.141L493.154 882.959M867.128 517.272L147.463 517.272M768.866 261.028L235.858 760.888M765.183 769.832L230.071 256.293M689.415 829.289L315.837 199.993M861.224 419.405L162.016 615.139M597.335 865.069L413.525 170.897M855.684 614.613L162.016 419.405M386.868 853.938L616.277 170.897M823.061 689.329L197.975 333.639M322.149 824.554L685.689 204.693M867.128 548.316L150.487 486.228M456.848 876.118L549.454 159.141M742.032 793.51L259.537 236.298M215.864 729.844L791.491 287.336M657.85 842.186L348.985 189.995M181.136 662.494L830.428 355.212M564.187 872.435L447.377 163.906M151.619 581.991L861.224 451.514M181.136 377.311L846.739 655.128M294.263 806.664L712.174 221.298M205.341 294.177L809.381 720.899M861.224 580.938L151.619 453.606M422.121 869.659L581.55 163.906M715.197 810.874L284.793 214.725M194.817 701.431L812.012 316.802M627.853 857.176L383.777 180.516M327.369 576.203L846.739 385.73M527.881 879.275L479.474 159.141M150.487 548.842L867.128 485.702M348.984 840.339L657.853 190.469M259.009 791.931L740.979 239.981M367.927 394.163L789.387 746.155" stroke="#333333" stroke-width="0.628623"/>
</g>
<path d="M407.676 305.499L407.668 305.497L407.661 305.496C381.72 301.918 355.058 312.178 335.503 329.604C315.95 347.03 303.462 371.66 305.936 396.866C307.142 409.529 308.685 422.288 310.233 435.084L310.233 435.086C313.507 462.161 316.801 489.397 316.967 516.278C317.119 540.943 313.333 566.16 309.585 591.117L309.585 591.12C307.868 602.548 306.16 613.922 304.844 625.156H304.844L304.844 625.162C302.387 650.184 311.959 677.891 329.651 698.42C347.348 718.954 373.195 732.332 403.294 728.634L403.294 728.634L403.307 728.632C414.348 726.821 425.677 724.45 437.135 722.051L437.144 722.049C464.294 716.364 492.165 710.531 518.781 711.602C542.77 712.567 567.165 717.343 591.276 722.064C602.242 724.212 613.15 726.348 623.926 728.106L623.937 728.107C675.845 734.773 733.309 689.046 727.294 625.689L727.292 625.676C725.761 614.549 723.785 603.25 721.797 591.88L721.797 591.878C717.392 566.681 712.927 541.139 713.08 516.278C713.232 491.782 717.927 466.636 722.559 441.835L722.56 441.83C724.657 430.601 726.741 419.444 728.381 408.458L728.382 408.458L728.383 408.444C731.938 374.126 717.492 346.716 695.645 328.791C673.806 310.874 644.562 302.427 618.484 306.023L618.476 306.024L618.468 306.026C608.482 307.917 598.341 310.218 588.127 312.535L588.124 312.536C565.096 317.76 541.7 323.067 518.781 323.989C492.918 325.03 465.812 318.664 439.508 312.483L439.504 312.482C428.708 309.946 418.048 307.441 407.676 305.499ZM316.789 402.296L316.788 402.295C314.465 378.627 326.191 355.442 344.634 339.005C363.076 322.57 388.192 312.922 412.586 316.284C422.409 318.124 432.506 320.496 442.749 322.903L442.772 322.908C467.7 328.765 493.489 334.824 518.114 333.833C539.917 332.956 562.162 327.909 583.991 322.957L584.006 322.953C593.696 320.755 603.303 318.575 612.762 316.784C637.321 313.399 664.89 321.357 685.48 338.25C706.062 355.137 719.662 380.943 716.316 413.268C714.762 423.676 712.787 434.248 710.798 444.901L710.795 444.916C706.404 468.427 701.939 492.331 701.796 515.628C701.65 539.272 705.895 563.552 710.071 587.439L710.074 587.454L710.074 587.457C711.96 598.242 713.832 608.948 715.282 619.487C720.943 679.161 666.808 722.246 617.927 715.973C607.717 714.307 597.381 712.283 586.979 710.246L586.965 710.244C564.105 705.768 540.922 701.228 518.114 700.31C492.783 699.291 466.275 704.841 440.542 710.229L440.521 710.233C429.648 712.509 418.913 714.757 408.454 716.472C380.146 719.948 355.82 707.373 339.139 688.017C322.453 668.656 313.44 642.536 315.751 618.985C316.998 608.341 318.617 597.561 320.246 586.718L320.248 586.705C323.801 563.043 327.4 539.078 327.255 515.628C327.098 490.09 323.969 464.221 320.864 438.546L320.863 438.537C319.394 426.397 317.931 414.3 316.789 402.296Z" fill="white" stroke="#333333" stroke-width="0.628623"/>
<path d="M588.809 290.3L588.804 290.294L588.8 290.288C572.983 269.41 546.868 257.808 520.711 256.303C494.556 254.798 468.302 263.386 452.224 282.965C444.12 292.774 436.187 302.89 428.232 313.034L428.231 313.036C411.396 334.502 394.462 356.096 375.567 375.226C358.229 392.78 337.714 407.938 317.412 422.938L317.411 422.939C308.113 429.809 298.859 436.646 289.983 443.661L289.978 443.665C270.543 459.625 257.716 485.993 255.709 513.026C253.703 540.067 262.522 567.811 286.427 586.484L286.426 586.484L286.437 586.492C295.528 593.022 305.221 599.359 315.023 605.767L315.026 605.769C338.25 620.952 362.089 636.538 380.157 656.121C396.442 673.772 410.318 694.404 424.032 714.797C430.27 724.072 436.474 733.298 442.853 742.164L442.859 742.172C474.859 783.601 547.846 791.903 588.403 742.836L588.404 742.836L588.412 742.826C595.197 733.875 601.791 724.487 608.426 715.041L608.43 715.034C623.136 694.096 638.044 672.872 655.737 655.397C673.17 638.178 694.276 623.714 715.094 609.448C724.521 602.988 733.888 596.57 742.82 589.958L742.821 589.958L742.832 589.949C769.618 568.191 778.789 538.586 776.014 510.456C773.241 482.336 758.531 455.677 737.542 439.776L737.536 439.771L737.529 439.767C729.129 434.042 720.329 428.497 711.467 422.912L711.462 422.909C691.479 410.316 671.177 397.522 654.315 381.963C635.286 364.407 620.617 340.731 606.383 317.755L606.379 317.749C600.538 308.32 594.77 299.01 588.809 290.3ZM456.06 294.481L456.06 294.48C471.157 276.097 495.85 267.991 520.521 269.411C545.189 270.83 569.777 281.771 584.654 301.403C590.3 309.652 595.764 318.471 601.306 327.418L601.319 327.439C614.807 349.212 628.762 371.738 646.88 388.455C662.922 403.256 682.226 415.42 701.169 427.357L701.181 427.365C709.589 432.664 717.927 437.917 725.884 443.341C745.648 458.317 759.519 483.445 762.134 509.956C764.748 536.458 756.114 564.33 730.885 584.827C722.425 591.089 713.551 597.169 704.61 603.296L704.607 603.298L704.595 603.307C684.859 616.83 664.795 630.579 648.215 646.956C631.388 663.576 617.218 683.752 603.276 703.602L603.267 703.614C596.972 712.577 590.724 721.473 584.294 729.954C546.091 776.166 477.327 768.35 447.191 729.339C441.148 720.941 435.27 712.199 429.353 703.402L429.352 703.399L429.345 703.39C416.343 684.055 403.155 664.445 387.672 647.664C370.476 629.026 347.801 614.202 325.789 599.812L325.772 599.8C316.472 593.72 307.29 587.718 298.679 581.533C276.197 563.969 267.886 537.869 269.778 512.381C271.67 486.884 283.77 462.034 302.062 447.012C310.473 440.365 319.242 433.885 328.064 427.368L328.074 427.36C347.323 413.138 366.819 398.733 383.303 382.044C401.254 363.87 417.338 343.36 433.302 323.004L433.308 322.996C440.856 313.371 448.377 303.78 456.06 294.481Z" fill="white" stroke="#333333" stroke-width="0.628794"/>
</svg>
