<svg width="1920" height="1080" viewBox="0 0 1920 1080" fill="none" xmlns="http://www.w3.org/2000/svg">
<g opacity="0.66">
<mask id="mask0_1654_16843" style="mask-type:alpha" maskUnits="userSpaceOnUse" x="576" y="145" width="772" height="771">
<mask id="path-1-inside-1_1654_16843" fill="white">
<path fill-rule="evenodd" clip-rule="evenodd" d="M945.999 165.497C878.481 122.023 771.058 153.59 745.386 226.829C739.393 243.766 733.744 261.002 728.109 278.308C715.773 279.829 703.63 281.434 691.872 283.395C613.388 300.397 559.751 398.677 593.386 468.618C600.553 483.635 608.11 498.624 615.743 513.644C608.876 524.095 602.121 534.527 595.685 544.988C556.502 611.425 577.257 724.033 665.748 752.647C678.267 756.145 691.224 759.304 704.378 762.4C706.958 774.882 709.603 787.27 712.503 799.445C731.774 874.13 826.076 939.079 908.882 896.74C920.994 889.919 933.184 882.469 945.486 874.838C955.091 881.774 964.678 888.6 974.295 895.133C1042.21 937.97 1151.76 911.491 1184.36 819.434C1187.81 808.212 1191.03 796.745 1194.18 785.162C1205.51 783.329 1216.75 781.43 1227.81 779.317C1306.12 761.584 1364.86 665.396 1322.82 577.252C1317.48 567.174 1311.83 557.089 1306.04 546.971C1313.2 536.871 1320.23 526.799 1326.89 516.703C1381.16 425.787 1317.39 326.803 1240.16 303.088C1232.22 301.079 1224.15 299.2 1216 297.378C1213.99 285.572 1211.89 273.875 1209.54 262.406C1183.63 159.739 1068.54 134.845 997.167 172.682C989.561 177.216 981.951 181.967 974.322 186.823C964.828 179.422 955.403 172.214 945.999 165.497ZM974.322 186.823C968.475 190.545 962.617 194.329 956.739 198.126C926.204 217.848 895.136 237.915 862.43 251.382C825.505 266.587 782.87 271.711 741.577 276.675C737.069 277.217 732.576 277.757 728.109 278.308C727.602 279.863 727.096 281.419 726.589 282.975C713.595 322.902 700.513 363.097 683.289 400.769C667.479 435.35 645.807 468.136 624.383 500.546C621.494 504.918 618.608 509.283 615.743 513.644C617.092 516.298 618.443 518.954 619.795 521.61C638.839 559.031 658.011 596.703 672.47 635.521C685.743 671.153 693.602 709.661 701.371 747.727C702.371 752.628 703.37 757.521 704.378 762.4C708.65 763.405 712.943 764.404 717.248 765.406C758.835 775.083 801.599 785.033 838.133 803.831C871.043 820.765 902.038 843.287 932.636 865.52C936.926 868.637 941.208 871.749 945.486 874.838C948.424 873.015 951.369 871.183 954.32 869.345C990.569 846.781 1027.84 823.579 1066.97 811.038C1102.21 799.741 1140.06 793.75 1177.41 787.835C1183.02 786.948 1188.61 786.063 1194.18 785.162C1195.66 779.693 1197.14 774.199 1198.61 768.692C1208.81 730.658 1219.16 692.051 1235.53 657.39C1251.65 623.237 1274.55 591.136 1297.11 559.518C1300.1 555.328 1303.08 551.148 1306.04 546.971C1303.06 541.755 1300.04 536.53 1297.02 531.294C1277.34 497.189 1257.35 462.572 1244.42 426.489C1231.67 390.935 1225.17 352.044 1218.76 313.737C1217.84 308.268 1216.93 302.811 1216 297.378C1208.58 295.719 1201.1 294.109 1193.58 292.492C1158.05 284.847 1121.89 277.068 1089.24 263.464C1052.38 248.105 1018.61 221.581 985.898 195.892C982.025 192.851 978.168 189.821 974.322 186.823Z"/>
</mask>
<path fill-rule="evenodd" clip-rule="evenodd" d="M945.999 165.497C878.481 122.023 771.058 153.59 745.386 226.829C739.393 243.766 733.744 261.002 728.109 278.308C715.773 279.829 703.63 281.434 691.872 283.395C613.388 300.397 559.751 398.677 593.386 468.618C600.553 483.635 608.11 498.624 615.743 513.644C608.876 524.095 602.121 534.527 595.685 544.988C556.502 611.425 577.257 724.033 665.748 752.647C678.267 756.145 691.224 759.304 704.378 762.4C706.958 774.882 709.603 787.27 712.503 799.445C731.774 874.13 826.076 939.079 908.882 896.74C920.994 889.919 933.184 882.469 945.486 874.838C955.091 881.774 964.678 888.6 974.295 895.133C1042.21 937.97 1151.76 911.491 1184.36 819.434C1187.81 808.212 1191.03 796.745 1194.18 785.162C1205.51 783.329 1216.75 781.43 1227.81 779.317C1306.12 761.584 1364.86 665.396 1322.82 577.252C1317.48 567.174 1311.83 557.089 1306.04 546.971C1313.2 536.871 1320.23 526.799 1326.89 516.703C1381.16 425.787 1317.39 326.803 1240.16 303.088C1232.22 301.079 1224.15 299.2 1216 297.378C1213.99 285.572 1211.89 273.875 1209.54 262.406C1183.63 159.739 1068.54 134.845 997.167 172.682C989.561 177.216 981.951 181.967 974.322 186.823C964.828 179.422 955.403 172.214 945.999 165.497ZM974.322 186.823C968.475 190.545 962.617 194.329 956.739 198.126C926.204 217.848 895.136 237.915 862.43 251.382C825.505 266.587 782.87 271.711 741.577 276.675C737.069 277.217 732.576 277.757 728.109 278.308C727.602 279.863 727.096 281.419 726.589 282.975C713.595 322.902 700.513 363.097 683.289 400.769C667.479 435.35 645.807 468.136 624.383 500.546C621.494 504.918 618.608 509.283 615.743 513.644C617.092 516.298 618.443 518.954 619.795 521.61C638.839 559.031 658.011 596.703 672.47 635.521C685.743 671.153 693.602 709.661 701.371 747.727C702.371 752.628 703.37 757.521 704.378 762.4C708.65 763.405 712.943 764.404 717.248 765.406C758.835 775.083 801.599 785.033 838.133 803.831C871.043 820.765 902.038 843.287 932.636 865.52C936.926 868.637 941.208 871.749 945.486 874.838C948.424 873.015 951.369 871.183 954.32 869.345C990.569 846.781 1027.84 823.579 1066.97 811.038C1102.21 799.741 1140.06 793.75 1177.41 787.835C1183.02 786.948 1188.61 786.063 1194.18 785.162C1195.66 779.693 1197.14 774.199 1198.61 768.692C1208.81 730.658 1219.16 692.051 1235.53 657.39C1251.65 623.237 1274.55 591.136 1297.11 559.518C1300.1 555.328 1303.08 551.148 1306.04 546.971C1303.06 541.755 1300.04 536.53 1297.02 531.294C1277.34 497.189 1257.35 462.572 1244.42 426.489C1231.67 390.935 1225.17 352.044 1218.76 313.737C1217.84 308.268 1216.93 302.811 1216 297.378C1208.58 295.719 1201.1 294.109 1193.58 292.492C1158.05 284.847 1121.89 277.068 1089.24 263.464C1052.38 248.105 1018.61 221.581 985.898 195.892C982.025 192.851 978.168 189.821 974.322 186.823Z" fill="#D9D9D9" fill-opacity="0.5"/>
<path d="M745.386 226.829L746.299 227.152L746.3 227.149L745.386 226.829ZM945.999 165.497L946.562 164.71L946.543 164.696L946.523 164.684L945.999 165.497ZM691.872 283.395L691.713 282.44L691.69 282.444L691.667 282.449L691.872 283.395ZM593.386 468.618L594.259 468.201L594.258 468.198L593.386 468.618ZM595.685 544.988L594.86 544.481L594.856 544.488L594.851 544.496L595.685 544.988ZM665.748 752.647L665.45 753.568L665.469 753.574L665.488 753.579L665.748 752.647ZM712.503 799.445L711.561 799.669L711.563 799.678L711.565 799.687L712.503 799.445ZM908.882 896.74L909.323 897.601L909.34 897.593L909.357 897.583L908.882 896.74ZM974.295 895.133L973.751 895.934L973.765 895.943L973.778 895.952L974.295 895.133ZM1184.36 819.434L1185.27 819.758L1185.28 819.738L1185.28 819.719L1184.36 819.434ZM1227.81 779.317L1227.99 780.268L1228.01 780.265L1228.02 780.261L1227.81 779.317ZM1322.82 577.252L1323.7 576.835L1323.69 576.817L1323.68 576.799L1322.82 577.252ZM1326.89 516.703L1327.7 517.236L1327.71 517.218L1327.72 517.199L1326.89 516.703ZM1240.16 303.088L1240.45 302.163L1240.42 302.155L1240.4 302.149L1240.16 303.088ZM1209.54 262.406L1210.49 262.212L1210.48 262.191L1210.48 262.169L1209.54 262.406ZM997.167 172.682L996.714 171.827L996.692 171.838L996.671 171.851L997.167 172.682ZM956.739 198.126L956.213 197.313L956.739 198.126ZM862.43 251.382L862.798 252.277L862.43 251.382ZM741.577 276.675L741.693 277.636L741.577 276.675ZM726.589 282.975L727.51 283.274L726.589 282.975ZM683.289 400.769L684.17 401.171L683.289 400.769ZM624.383 500.546L625.191 501.08L625.191 501.08L624.383 500.546ZM619.795 521.61L620.658 521.171L619.795 521.61ZM672.47 635.521L671.563 635.859L672.47 635.521ZM701.371 747.727L702.319 747.534L701.371 747.727ZM717.248 765.406L717.029 766.348L717.248 765.406ZM838.133 803.831L838.576 802.971L838.133 803.831ZM932.636 865.52L933.205 864.737L932.636 865.52ZM954.32 869.345L953.809 868.524L954.32 869.345ZM1066.97 811.038L1066.67 810.117L1066.97 811.038ZM1177.41 787.835L1177.56 788.791L1177.41 787.835ZM1198.61 768.692L1199.55 768.943L1198.61 768.692ZM1235.53 657.39L1234.65 656.977L1235.53 657.39ZM1297.11 559.518L1296.32 558.956L1297.11 559.518ZM1297.02 531.294L1297.86 530.81L1297.02 531.294ZM1244.42 426.489L1245.33 426.162L1244.42 426.489ZM1218.76 313.737L1217.8 313.896L1218.76 313.737ZM1193.58 292.492L1193.38 293.438L1193.58 292.492ZM1089.24 263.464L1088.87 264.357L1089.24 263.464ZM985.898 195.892L985.3 196.654L985.3 196.654L985.898 195.892ZM746.3 227.149C759.008 190.895 791.989 164.871 830.28 153.323C868.568 141.775 911.999 144.757 945.475 166.311L946.523 164.684C912.481 142.764 868.441 139.792 829.721 151.469C791.003 163.146 757.437 189.525 744.473 226.509L746.3 227.149ZM729.029 278.607C734.665 261.301 740.31 244.076 746.299 227.152L744.474 226.506C738.476 243.456 732.824 260.702 727.188 278.008L729.029 278.607ZM692.031 284.35C703.769 282.392 715.896 280.789 728.227 279.268L727.99 277.347C715.651 278.869 703.491 280.476 691.713 282.44L692.031 284.35ZM594.258 468.198C577.608 433.576 582.527 391.854 601.437 356.612C620.346 321.373 653.164 292.771 692.077 284.341L691.667 282.449C652.096 291.021 618.854 320.06 599.731 355.697C580.611 391.331 575.528 433.718 592.513 469.037L594.258 468.198ZM616.606 513.206C608.973 498.187 601.421 483.206 594.259 468.201L592.512 469.035C599.685 484.063 607.247 499.062 614.88 514.083L616.606 513.206ZM596.509 545.495C602.938 535.047 609.687 524.624 616.552 514.176L614.934 513.113C608.065 523.567 601.304 534.008 594.86 544.481L596.509 545.495ZM666.046 751.726C622.167 737.537 595.052 702.524 583.77 662.737C572.481 622.928 577.076 578.445 596.518 545.48L594.851 544.496C575.11 577.968 570.491 623.007 581.907 663.265C593.329 703.544 620.838 739.142 665.45 753.568L666.046 751.726ZM704.6 761.457C691.449 758.362 678.508 755.208 666.009 751.715L665.488 753.579C678.027 757.083 690.999 760.245 704.156 763.342L704.6 761.457ZM713.444 799.221C710.548 787.06 707.905 774.683 705.326 762.204L703.43 762.596C706.011 775.081 708.658 787.48 711.561 799.669L713.444 799.221ZM908.441 895.878C867.382 916.872 823.451 911.287 787.339 891.131C751.208 870.965 723.002 836.261 713.44 799.203L711.565 799.687C721.275 837.314 749.856 872.427 786.395 892.821C822.954 913.227 867.577 918.947 909.323 897.601L908.441 895.878ZM944.976 874.015C932.676 881.645 920.5 889.086 908.407 895.896L909.357 897.583C921.488 890.751 933.693 883.293 945.996 875.661L944.976 874.015ZM974.839 894.332C965.234 887.807 955.655 880.987 946.053 874.053L944.919 875.623C954.528 882.561 964.123 889.393 973.751 895.934L974.839 894.332ZM1183.45 819.111C1151.07 910.535 1042.24 936.848 974.811 894.314L973.778 895.952C1042.18 939.093 1152.45 912.446 1185.27 819.758L1183.45 819.111ZM1193.24 784.907C1190.09 796.486 1186.88 807.943 1183.43 819.15L1185.28 819.719C1188.74 808.482 1191.96 797.003 1195.11 785.416L1193.24 784.907ZM1227.63 778.366C1216.58 780.477 1205.35 782.374 1194.02 784.206L1194.33 786.117C1205.66 784.284 1216.91 782.383 1227.99 780.268L1227.63 778.366ZM1321.95 577.669C1363.7 665.208 1305.36 760.766 1227.6 778.373L1228.02 780.261C1306.89 762.402 1366.03 665.585 1323.7 576.835L1321.95 577.669ZM1305.2 547.452C1310.98 557.566 1316.64 567.641 1321.97 577.705L1323.68 576.799C1318.33 566.708 1312.67 556.612 1306.88 546.491L1305.2 547.452ZM1326.08 516.17C1319.43 526.253 1312.41 536.315 1305.25 546.412L1306.83 547.531C1313.99 537.428 1321.03 527.345 1327.7 517.236L1326.08 516.17ZM1239.88 304.013C1278.22 315.787 1313.26 346.27 1331.97 385.115C1350.65 423.931 1353.01 471.059 1326.06 516.207L1327.72 517.199C1355.04 471.432 1352.65 423.61 1333.71 384.275C1314.79 344.97 1279.33 314.103 1240.45 302.163L1239.88 304.013ZM1215.79 298.322C1223.94 300.143 1232 302.021 1239.92 304.026L1240.4 302.149C1232.45 300.138 1224.37 298.256 1216.21 296.433L1215.79 298.322ZM1208.59 262.601C1210.94 274.055 1213.03 285.739 1215.05 297.541L1216.96 297.215C1214.94 285.404 1212.84 273.696 1210.49 262.212L1208.59 262.601ZM997.62 173.537C1033.06 154.752 1079.39 151.526 1120.08 165.769C1160.75 180.001 1195.74 211.659 1208.6 262.643L1210.48 262.169C1197.44 210.486 1161.93 178.364 1120.72 163.941C1079.55 149.53 1032.65 152.775 996.714 171.827L997.62 173.537ZM974.842 187.64C982.467 182.786 990.067 178.041 997.663 173.514L996.671 171.851C989.054 176.392 981.436 181.148 973.802 186.007L974.842 187.64ZM945.436 166.285C954.824 172.99 964.236 180.188 973.727 187.587L974.917 186.06C965.419 178.656 955.983 171.438 946.562 164.71L945.436 166.285ZM957.264 198.939C963.143 195.142 968.998 191.36 974.842 187.64L973.802 186.007C967.952 189.731 962.091 193.516 956.213 197.313L957.264 198.939ZM862.798 252.277C895.601 238.77 926.744 218.652 957.264 198.939L956.213 197.313C925.664 217.045 894.671 237.06 862.061 250.487L862.798 252.277ZM741.693 277.636C782.956 272.676 825.729 267.541 862.798 252.277L862.061 250.487C825.28 265.632 782.783 270.747 741.462 275.714L741.693 277.636ZM728.227 279.268C732.693 278.718 737.184 278.178 741.693 277.636L741.462 275.714C736.953 276.256 732.459 276.796 727.99 277.347L728.227 279.268ZM727.51 283.274C728.016 281.718 728.523 280.163 729.029 278.607L727.188 278.008C726.682 279.563 726.175 281.119 725.669 282.675L727.51 283.274ZM684.17 401.171C701.421 363.44 714.518 323.192 727.51 283.274L725.669 282.675C712.671 322.612 699.606 362.753 682.409 400.366L684.17 401.171ZM625.191 501.08C646.606 468.682 668.322 435.832 684.17 401.171L682.409 400.366C666.635 434.867 645.007 467.59 623.576 500.013L625.191 501.08ZM616.552 514.176C619.417 509.816 622.301 505.452 625.191 501.08L623.576 500.013C620.686 504.384 617.8 508.75 614.934 513.113L616.552 514.176ZM620.658 521.171C619.306 518.514 617.954 515.86 616.606 513.206L614.88 514.083C616.229 516.737 617.58 519.393 618.932 522.049L620.658 521.171ZM673.377 635.183C658.895 596.305 639.697 558.583 620.658 521.171L618.932 522.049C637.981 559.479 657.127 597.102 671.563 635.859L673.377 635.183ZM702.319 747.534C694.553 709.481 686.681 670.898 673.377 635.183L671.563 635.859C684.805 671.408 692.651 709.84 700.422 747.921L702.319 747.534ZM705.326 762.204C704.318 757.326 703.319 752.434 702.319 747.534L700.422 747.921C701.422 752.821 702.421 757.715 703.43 762.596L705.326 762.204ZM717.467 764.463C713.162 763.461 708.87 762.463 704.6 761.457L704.156 763.342C708.43 764.348 712.724 765.347 717.029 766.348L717.467 764.463ZM838.576 802.971C801.916 784.108 759.03 774.134 717.467 764.463L717.029 766.348C758.641 776.031 801.282 785.959 837.69 804.692L838.576 802.971ZM933.205 864.737C902.618 842.512 871.563 819.945 838.576 802.971L837.69 804.692C870.523 821.586 901.457 844.062 932.067 866.303L933.205 864.737ZM946.053 874.053C941.776 870.965 937.495 867.854 933.205 864.737L932.067 866.303C936.357 869.42 940.64 872.532 944.919 875.623L946.053 874.053ZM953.809 868.524C950.857 870.361 947.913 872.193 944.976 874.015L945.996 875.661C948.935 873.837 951.88 872.004 954.832 870.167L953.809 868.524ZM1066.67 810.117C1027.41 822.7 990.036 845.973 953.809 868.524L954.832 870.167C991.103 847.589 1028.27 824.457 1067.26 811.96L1066.67 810.117ZM1177.26 786.879C1139.92 792.792 1102 798.793 1066.67 810.117L1067.26 811.96C1102.43 800.69 1140.19 794.708 1177.56 788.791L1177.26 786.879ZM1194.02 784.206C1188.45 785.107 1182.86 785.992 1177.26 786.879L1177.56 788.791C1183.17 787.904 1188.76 787.018 1194.33 786.117L1194.02 784.206ZM1197.68 768.442C1196.2 773.948 1194.73 779.441 1193.24 784.907L1195.11 785.416C1196.6 779.945 1198.07 774.449 1199.55 768.943L1197.68 768.442ZM1234.65 656.977C1218.24 691.73 1207.87 730.424 1197.68 768.442L1199.55 768.943C1209.75 730.892 1220.08 692.372 1236.4 657.803L1234.65 656.977ZM1296.32 558.956C1273.78 590.56 1250.82 622.731 1234.65 656.977L1236.4 657.803C1252.49 623.742 1275.33 591.712 1297.9 560.08L1296.32 558.956ZM1305.25 546.412C1302.29 550.586 1299.31 554.766 1296.32 558.956L1297.9 560.08C1300.89 555.891 1303.87 551.709 1306.83 547.531L1305.25 546.412ZM1296.18 531.777C1299.21 537.015 1302.22 542.238 1305.2 547.452L1306.88 546.491C1303.9 541.273 1300.88 536.046 1297.86 530.81L1296.18 531.777ZM1243.51 426.815C1256.48 462.995 1276.51 497.688 1296.18 531.777L1297.86 530.81C1278.17 496.69 1258.23 462.149 1245.33 426.162L1243.51 426.815ZM1217.8 313.896C1224.21 352.186 1230.73 391.165 1243.51 426.815L1245.33 426.162C1232.62 390.704 1226.13 351.901 1219.71 313.577L1217.8 313.896ZM1215.05 297.541C1215.98 302.972 1216.89 308.427 1217.8 313.896L1219.71 313.577C1218.8 308.109 1217.89 302.65 1216.96 297.215L1215.05 297.541ZM1193.38 293.438C1200.89 295.055 1208.38 296.665 1215.79 298.322L1216.21 296.433C1208.79 294.774 1201.3 293.162 1193.79 291.546L1193.38 293.438ZM1088.87 264.357C1121.61 278.001 1157.86 285.797 1193.38 293.438L1193.79 291.546C1158.23 283.897 1122.16 276.134 1089.61 262.57L1088.87 264.357ZM985.3 196.654C1017.98 222.324 1051.86 248.938 1088.87 264.357L1089.61 262.57C1052.89 247.271 1019.23 220.838 986.496 195.131L985.3 196.654ZM973.727 187.587C977.571 190.584 981.427 193.612 985.3 196.654L986.496 195.131C982.623 192.09 978.765 189.059 974.917 186.06L973.727 187.587Z" fill="#94C8B2" mask="url(#path-1-inside-1_1654_16843)"/>
</mask>
<g mask="url(#mask0_1654_16843)">
<path d="M766.897 15.4753L1120.55 1072.83M1468.11 346.309L427.332 726.686M1190.57 27.6659L683.931 1032.28M1454.17 765.444L408.86 305.596M1376.02 891.478L503.137 178.844M1407.85 207.894L500.107 860.529M1261.76 991.891L629.036 85.1329M1503.01 493.132L396.652 577.458M951.503 1087.03L922.255 -22.0312M1495.32 618.429L403.324 434.419M842.377 1078.75L1040.5 -9.84241M1484.52 391.205L415.298 680.192M1064.43 1082.12L819.402 -3.71394M1433.2 811.924L440.905 261.106M638.607 997.954L1237.19 53.7546M1337.19 926.813L545.792 146.865M552.788 918.908L1329.38 131.336M1217.72 1020.06L674.297 57.1296M467.55 818.085L1424.82 254.33M402.055 506.477L1511.49 556.453M792.591 1067.61L1087.58 0.173181M393.12 373.455L1492.22 671.316M1493.22 441.503L399.692 632.415M1010.8 1091.14L868.338 -13.7871M1403.57 851.218L466.028 216.559M593.152 967.987L1282.44 85.5213M1301.73 964.346L591.098 114.767M718.66 716.823L1369.1 166.85M1168.83 1049.15L718.196 33.274M448.392 770.744L1451.42 300.653M889.528 1087.39L992.727 -15.7013M733.821 1064.94L1139.11 11.9677M681.099 432.121L1476.66 718.409" stroke="#333333" stroke-width="0.967927"/>
</g>
<path d="M691.714 282.871L691.703 282.873L691.692 282.875C652.285 291.412 619.149 320.341 600.08 355.879C581.012 391.414 575.97 433.635 592.871 468.78C601.308 486.456 610.283 504.093 619.284 521.78L619.286 521.782C638.332 559.208 657.491 596.856 671.939 635.643C685.196 671.233 693.048 709.704 700.819 747.777L700.819 747.781C704.378 765.216 707.919 782.568 711.954 799.51L711.954 799.51L711.956 799.519C721.629 837.003 750.116 872.014 786.553 892.352C823 912.695 867.45 918.381 909.025 897.123L909.033 897.119L909.042 897.114C924.055 888.659 939.187 879.24 954.491 869.713L954.498 869.709C990.758 847.138 1027.98 823.971 1067.04 811.452C1102.24 800.169 1140.05 794.182 1177.41 788.266L1177.42 788.264C1194.41 785.574 1211.31 782.898 1227.82 779.745L1227.83 779.744L1227.84 779.742C1306.43 761.946 1365.37 665.444 1323.18 576.997L1323.18 576.987L1323.17 576.978C1315.08 561.699 1306.25 546.405 1297.37 531.015L1297.36 531.004C1277.67 496.892 1257.71 462.313 1244.8 426.278C1232.07 390.772 1225.57 351.925 1219.16 313.61L1219.16 313.607C1216.26 296.258 1213.37 279.019 1209.94 262.262L1209.93 262.251L1209.93 262.241C1196.93 210.732 1161.56 178.726 1120.49 164.351C1079.43 149.982 1032.68 153.222 996.862 172.208L996.852 172.213L996.841 172.219C983.399 180.233 969.949 188.92 956.403 197.669L956.398 197.672C925.856 217.399 894.826 237.44 862.168 250.888C825.315 266.063 782.749 271.182 741.442 276.147L741.436 276.148C724.482 278.186 707.742 280.198 691.714 282.871ZM611.436 470.896L611.435 470.895C595.565 437.895 600.268 398.167 618.254 364.648C636.238 331.133 667.461 303.904 704.517 295.873C719.694 293.342 735.551 291.436 751.636 289.503L751.673 289.498C790.818 284.793 831.317 279.925 866.406 265.476C897.474 252.684 926.977 233.628 955.929 214.928L955.949 214.915C968.8 206.614 981.542 198.384 994.275 190.793C1028 172.918 1072.08 169.855 1110.78 183.403C1149.48 196.946 1182.78 227.079 1195.03 275.595C1198.28 291.468 1201.02 307.802 1203.77 324.259L1203.77 324.26L1203.77 324.282C1209.85 360.606 1216.03 397.535 1228.13 431.303C1240.42 465.573 1259.39 498.443 1278.06 530.781L1278.07 530.803C1286.5 545.405 1294.86 559.899 1302.53 574.375C1342.26 657.684 1286.74 748.607 1212.73 765.37C1197.09 768.357 1181.07 770.893 1164.95 773.446L1164.93 773.449C1129.5 779.058 1093.58 784.747 1060.11 795.475C1022.93 807.389 987.533 829.426 953.166 850.818L953.136 850.837C938.615 859.875 924.279 868.799 910.059 876.808C870.957 896.797 829.131 891.468 794.777 872.293C760.412 853.112 733.572 820.101 724.466 784.821C720.643 768.767 717.287 752.322 713.911 735.78L713.907 735.76C706.54 699.663 699.078 663.102 686.474 629.265C672.748 592.416 654.551 556.658 636.489 521.168L636.483 521.155C627.943 504.374 619.433 487.653 611.436 470.896Z" fill="white" stroke="#333333" stroke-width="0.967927"/>
<path d="M945.637 165.151L945.628 165.144L945.618 165.138C911.708 143.304 867.809 140.329 829.186 151.977C790.565 163.624 757.136 189.921 744.232 226.733C737.697 245.202 731.571 264.024 725.428 282.899L725.427 282.904C712.427 322.847 699.35 363.026 682.135 400.679C666.338 435.229 644.682 467.993 623.249 500.418L623.247 500.422C613.431 515.271 603.663 530.048 594.534 544.885L594.53 544.893C574.858 578.247 570.244 623.159 581.631 663.316C593.022 703.483 620.439 738.944 664.88 753.315L664.89 753.317L664.899 753.32C681.499 757.959 698.865 762 716.429 766.087L716.434 766.088C758.045 775.77 800.759 785.712 837.239 804.483C870.119 821.401 901.093 843.906 931.705 866.149L931.708 866.151C945.63 876.268 959.478 886.33 973.388 895.779L973.394 895.784L973.401 895.788C1041.58 938.789 1151.52 912.218 1184.24 819.821L1184.24 819.812L1184.24 819.802C1189.33 803.269 1193.9 786.205 1198.5 769.035L1198.51 769.03C1208.71 730.976 1219.05 692.402 1235.4 657.778C1251.51 623.661 1274.39 591.588 1296.96 559.954L1296.96 559.946C1307.18 545.625 1317.33 531.393 1326.75 517.113L1326.76 517.104L1326.76 517.094C1354 471.469 1351.62 423.808 1332.74 384.592C1313.86 345.392 1278.5 314.612 1239.74 302.71L1239.73 302.706L1239.72 302.703C1224.54 298.863 1208.88 295.494 1193.11 292.102L1193.11 292.101C1157.55 284.452 1121.43 276.679 1088.82 263.091C1052.02 247.758 1018.29 221.272 985.565 195.568L985.56 195.564C972.128 185.014 958.864 174.597 945.637 165.151ZM755.866 241.361L755.867 241.36C767.983 206.795 799.409 182.021 835.839 171.034C872.263 160.049 913.606 162.874 945.497 183.403C958.022 192.349 970.585 202.216 983.329 212.225L983.359 212.248C1014.37 236.607 1046.46 261.809 1081.5 276.408C1112.52 289.334 1146.87 296.723 1180.57 303.975L1180.6 303.98C1195.56 307.198 1210.39 310.39 1224.77 314.027C1261.26 325.239 1294.6 354.248 1312.4 391.207C1330.19 428.152 1332.43 473.023 1306.78 516C1297.85 529.529 1288.23 543.015 1278.54 556.603L1278.53 556.622C1257.13 586.612 1235.38 617.1 1220.06 649.547C1204.51 682.476 1194.68 719.145 1185.01 755.221L1185 755.242C1180.64 771.532 1176.3 787.701 1171.49 803.364C1140.66 890.387 1037.08 915.428 972.883 874.94C959.704 865.986 946.581 856.451 933.373 846.854L933.359 846.844C904.335 825.754 874.899 804.365 843.637 788.28C808.918 770.415 768.291 760.961 728.852 751.784L728.819 751.777C712.156 747.899 695.704 744.071 679.982 739.678C638.186 726.16 612.372 692.807 601.636 654.946C590.896 617.072 595.261 574.74 613.775 543.346C622.425 529.287 631.683 515.282 640.995 501.194L641.006 501.177C661.327 470.434 681.909 439.298 696.927 406.45C713.282 370.678 725.702 332.516 738.029 294.639L738.034 294.625C743.863 276.716 749.671 258.87 755.866 241.361Z" fill="white" stroke="#333333" stroke-width="0.96819"/>
</g>
</svg>
