<svg width="1920" height="1080" viewBox="0 0 1920 1080" fill="none" xmlns="http://www.w3.org/2000/svg">
<g opacity="0.34">
<mask id="mask0_1654_16851" style="mask-type:alpha" maskUnits="userSpaceOnUse" x="387" y="-42" width="1146" height="1145">
<mask id="path-1-inside-1_1654_16851" fill="white">
<path fill-rule="evenodd" clip-rule="evenodd" d="M1120.07 33.5823C1050.77 -57.8886 891.104 -68.2143 820.721 17.4938C804.37 37.2856 788.334 57.6468 772.281 78.1097C754.978 74.1008 737.892 70.2985 721.149 67.1623C607.468 51.4833 487.266 157.083 498.102 267.456C500.355 291.128 503.146 314.955 506.023 338.859C491.679 349.518 477.495 360.207 463.724 371.09C378.543 441.041 351.162 602.364 455.898 684.178C470.986 695.015 486.827 705.61 502.964 716.218C500.305 734.236 497.778 752.159 495.697 769.922C484.928 879.617 579.64 1013.05 711.55 996.842C731.152 993.628 751.167 989.609 771.42 985.402C780.91 999.424 790.43 1013.29 800.133 1026.78C870.276 1117.59 1030.3 1135.78 1119.21 1028.22C1129.35 1014.85 1139.29 1001.03 1149.2 987.03C1165.31 990.127 1181.33 993.092 1197.21 995.684C1311.03 1010.3 1437.05 910.01 1423.86 771.08C1421.64 754.935 1418.99 738.624 1416.19 722.207C1430.75 712.163 1445.12 702.091 1459.02 691.809C1576.46 596.407 1539.42 432.264 1447.4 362.553C1437.73 355.963 1427.82 349.482 1417.77 343.039C1420.86 326.202 1423.79 309.475 1426.26 292.927C1441.85 142.419 1299.58 52.5497 1185.22 68.3225C1172.79 70.6773 1160.24 73.321 1147.62 76.0972C1138.51 61.5067 1129.4 47.2093 1120.07 33.5823ZM1147.62 76.0972C1137.95 78.2243 1128.23 80.4291 1118.48 82.6413C1067.82 94.1342 1016.28 105.828 965.774 107.86C908.755 110.154 849.017 96.1186 791.159 82.5248C784.842 81.0406 778.547 79.5616 772.281 78.1097C770.838 79.9495 769.394 81.79 767.95 83.6311C730.924 130.847 693.649 178.379 652.051 220.494C613.867 259.152 568.696 292.527 524.043 325.519C518.021 329.969 512.008 334.411 506.023 338.859C506.531 343.082 507.043 347.309 507.554 351.537C514.758 411.105 522.011 471.073 522.377 530.267C522.712 584.602 514.371 640.143 506.126 695.046C505.064 702.115 504.004 709.174 502.964 716.218C508.204 719.663 513.476 723.109 518.762 726.565C569.834 759.954 622.35 794.286 662.164 837.438C698.029 876.311 728.583 921.743 758.745 966.594C762.973 972.882 767.194 979.157 771.42 985.402C776.259 984.397 781.111 983.381 785.975 982.362C845.697 969.859 907.108 957.001 965.774 959.361C1018.62 961.488 1072.35 972.009 1125.39 982.395C1133.35 983.953 1141.29 985.507 1149.2 987.03C1153.88 980.42 1158.55 973.77 1163.24 967.104C1195.58 921.056 1228.41 874.315 1267.38 835.822C1305.78 797.893 1352.26 766.041 1398.05 734.667C1404.11 730.51 1410.17 726.361 1416.19 722.207C1414.75 713.742 1413.26 705.25 1411.77 696.737C1402.08 641.306 1392.24 585.042 1392.58 530.267C1392.92 476.294 1403.26 420.904 1413.45 366.345C1414.9 358.557 1416.36 350.787 1417.77 343.039C1408.63 337.173 1399.37 331.339 1390.08 325.483C1346.13 297.789 1301.42 269.611 1264.27 235.336C1222.33 196.64 1190.01 144.474 1158.71 93.9506C1155 87.9681 1151.31 82.0086 1147.62 76.0972Z"/>
</mask>
<path fill-rule="evenodd" clip-rule="evenodd" d="M1120.07 33.5823C1050.77 -57.8886 891.104 -68.2143 820.721 17.4938C804.37 37.2856 788.334 57.6468 772.281 78.1097C754.978 74.1008 737.892 70.2985 721.149 67.1623C607.468 51.4833 487.266 157.083 498.102 267.456C500.355 291.128 503.146 314.955 506.023 338.859C491.679 349.518 477.495 360.207 463.724 371.09C378.543 441.041 351.162 602.364 455.898 684.178C470.986 695.015 486.827 705.61 502.964 716.218C500.305 734.236 497.778 752.159 495.697 769.922C484.928 879.617 579.64 1013.05 711.55 996.842C731.152 993.628 751.167 989.609 771.42 985.402C780.91 999.424 790.43 1013.29 800.133 1026.78C870.276 1117.59 1030.3 1135.78 1119.21 1028.22C1129.35 1014.85 1139.29 1001.03 1149.2 987.03C1165.31 990.127 1181.33 993.092 1197.21 995.684C1311.03 1010.3 1437.05 910.01 1423.86 771.08C1421.64 754.935 1418.99 738.624 1416.19 722.207C1430.75 712.163 1445.12 702.091 1459.02 691.809C1576.46 596.407 1539.42 432.264 1447.4 362.553C1437.73 355.963 1427.82 349.482 1417.77 343.039C1420.86 326.202 1423.79 309.475 1426.26 292.927C1441.85 142.419 1299.58 52.5497 1185.22 68.3225C1172.79 70.6773 1160.24 73.321 1147.62 76.0972C1138.51 61.5067 1129.4 47.2093 1120.07 33.5823ZM1147.62 76.0972C1137.95 78.2243 1128.23 80.4291 1118.48 82.6413C1067.82 94.1342 1016.28 105.828 965.774 107.86C908.755 110.154 849.017 96.1186 791.159 82.5248C784.842 81.0406 778.547 79.5616 772.281 78.1097C770.838 79.9495 769.394 81.79 767.95 83.6311C730.924 130.847 693.649 178.379 652.051 220.494C613.867 259.152 568.696 292.527 524.043 325.519C518.021 329.969 512.008 334.411 506.023 338.859C506.531 343.082 507.043 347.309 507.554 351.537C514.758 411.105 522.011 471.073 522.377 530.267C522.712 584.602 514.371 640.143 506.126 695.046C505.064 702.115 504.004 709.174 502.964 716.218C508.204 719.663 513.476 723.109 518.762 726.565C569.834 759.954 622.35 794.286 662.164 837.438C698.029 876.311 728.583 921.743 758.745 966.594C762.973 972.882 767.194 979.157 771.42 985.402C776.259 984.397 781.111 983.381 785.975 982.362C845.697 969.859 907.108 957.001 965.774 959.361C1018.62 961.488 1072.35 972.009 1125.39 982.395C1133.35 983.953 1141.29 985.507 1149.2 987.03C1153.88 980.42 1158.55 973.77 1163.24 967.104C1195.58 921.056 1228.41 874.315 1267.38 835.822C1305.78 797.893 1352.26 766.041 1398.05 734.667C1404.11 730.51 1410.17 726.361 1416.19 722.207C1414.75 713.742 1413.26 705.25 1411.77 696.737C1402.08 641.306 1392.24 585.042 1392.58 530.267C1392.92 476.294 1403.26 420.904 1413.45 366.345C1414.9 358.557 1416.36 350.787 1417.77 343.039C1408.63 337.173 1399.37 331.339 1390.08 325.483C1346.13 297.789 1301.42 269.611 1264.27 235.336C1222.33 196.64 1190.01 144.474 1158.71 93.9506C1155 87.9681 1151.31 82.0086 1147.62 76.0972Z" fill="#D9D9D9" fill-opacity="0.5"/>
<path d="M820.721 17.4938L821.787 18.3748L821.79 18.3716L820.721 17.4938ZM1120.07 33.5823L1121.21 32.801L1121.19 32.7736L1121.17 32.747L1120.07 33.5823ZM721.149 67.1623L721.403 65.8028L721.371 65.7967L721.338 65.7921L721.149 67.1623ZM498.102 267.456L499.479 267.325L499.479 267.321L498.102 267.456ZM463.724 371.09L462.866 370.005L462.856 370.013L462.846 370.021L463.724 371.09ZM455.898 684.178L455.047 685.268L455.069 685.285L455.091 685.301L455.898 684.178ZM495.697 769.922L494.324 769.761L494.322 769.774L494.321 769.787L495.697 769.922ZM711.55 996.842L711.719 998.215L711.747 998.211L711.774 998.207L711.55 996.842ZM800.133 1026.78L799.01 1027.58L799.024 1027.6L799.039 1027.62L800.133 1026.78ZM1119.21 1028.22L1120.28 1029.1L1120.3 1029.08L1120.32 1029.05L1119.21 1028.22ZM1197.21 995.684L1196.99 997.049L1197.02 997.053L1197.04 997.056L1197.21 995.684ZM1423.86 771.08L1425.24 770.949L1425.23 770.92L1425.23 770.891L1423.86 771.08ZM1459.02 691.809L1459.84 692.921L1459.86 692.902L1459.89 692.882L1459.02 691.809ZM1447.4 362.553L1448.23 361.45L1448.2 361.429L1448.18 361.41L1447.4 362.553ZM1426.26 292.927L1427.62 293.131L1427.63 293.1L1427.63 293.069L1426.26 292.927ZM1185.22 68.3225L1185.03 66.9523L1185 66.957L1184.97 66.9635L1185.22 68.3225ZM1118.48 82.6413L1118.17 81.2924L1118.48 82.6413ZM965.774 107.86L965.829 109.242L965.774 107.86ZM791.159 82.5248L790.843 83.8714L791.159 82.5248ZM767.95 83.6311L766.862 82.7776L767.95 83.6311ZM652.051 220.494L651.067 219.522L652.051 220.494ZM524.043 325.519L523.221 324.407L524.043 325.519ZM507.554 351.537L508.927 351.371L507.554 351.537ZM522.377 530.267L520.994 530.275L522.377 530.267ZM506.126 695.046L507.494 695.252L506.126 695.046ZM518.762 726.565L519.519 725.408L518.762 726.565ZM662.164 837.438L661.147 838.376L662.164 837.438ZM758.745 966.594L757.598 967.366L758.745 966.594ZM785.975 982.362L785.691 981.009L785.975 982.362ZM965.774 959.361L965.718 960.744L965.774 959.361ZM1125.39 982.395L1125.13 983.752L1125.39 982.395ZM1163.24 967.104L1162.1 966.309L1163.24 967.104ZM1267.38 835.822L1268.35 836.806L1267.38 835.822ZM1398.05 734.667L1398.83 735.808L1398.05 734.667ZM1411.77 696.737L1410.41 696.975L1411.77 696.737ZM1392.58 530.267L1391.2 530.258L1392.58 530.267ZM1413.45 366.345L1414.81 366.599L1413.45 366.345ZM1390.08 325.483L1389.34 326.653L1390.08 325.483ZM1264.27 235.336L1263.33 236.353L1264.27 235.336ZM1158.71 93.9506L1157.53 94.679L1158.71 93.9506ZM821.79 18.3716C856.631 -24.0554 913.663 -42.8066 970.722 -39.5231C1027.78 -36.2399 1084.61 -10.9341 1118.97 34.4176L1121.17 32.747C1086.23 -13.3722 1028.58 -38.9647 970.881 -42.285C913.187 -45.605 855.194 -26.6651 819.652 16.616L821.79 18.3716ZM773.369 78.9634C789.422 58.5002 805.448 38.1515 821.787 18.3748L819.655 16.6128C803.291 36.4196 787.245 56.7934 771.193 77.256L773.369 78.9634ZM720.894 68.5219C737.608 71.6525 754.672 75.4496 771.969 79.4572L772.593 76.7622C755.285 72.752 738.176 68.9444 721.403 65.8028L720.894 68.5219ZM499.479 267.321C494.115 212.684 521.183 159.097 563.852 121.072C606.518 83.0498 664.596 60.7588 720.96 68.5326L721.338 65.7921C664.02 57.8868 605.158 80.556 562.011 119.007C518.868 157.455 491.253 211.855 496.726 267.591L499.479 267.321ZM507.396 338.693C504.519 314.791 501.731 290.979 499.479 267.325L496.725 267.587C498.98 291.278 501.772 315.119 504.65 339.024L507.396 338.693ZM464.581 372.176C478.336 361.305 492.508 350.626 506.848 339.969L505.198 337.749C490.85 348.411 476.653 359.109 462.866 370.005L464.581 372.176ZM456.75 683.088C404.816 642.52 385.598 582.225 389.971 523.288C394.347 464.32 422.336 406.868 464.602 372.159L462.846 370.021C419.931 405.263 391.638 463.449 387.213 523.083C382.785 582.749 402.245 644.022 455.047 685.268L456.75 683.088ZM503.724 715.062C487.591 704.457 471.769 693.875 456.705 683.055L455.091 685.301C470.203 696.156 486.063 706.763 502.204 717.374L503.724 715.062ZM497.071 770.083C499.149 752.341 501.674 734.434 504.333 716.42L501.596 716.016C498.936 734.039 496.407 751.978 494.324 769.761L497.071 770.083ZM711.382 995.469C645.973 1003.51 589.749 974.46 551.167 929.693C512.564 884.901 491.73 824.486 497.074 770.057L494.321 769.787C488.895 825.052 510.032 886.201 549.071 931.499C588.13 976.82 645.217 1006.39 711.719 998.215L711.382 995.469ZM771.139 984.047C750.889 988.254 730.897 992.268 711.327 995.477L711.774 998.207C731.406 994.988 751.445 990.964 771.702 986.756L771.139 984.047ZM801.256 1025.97C791.564 1012.5 782.053 998.645 772.566 984.626L770.275 986.177C779.768 1000.2 789.296 1014.08 799.01 1027.58L801.256 1025.97ZM1118.15 1027.34C1029.85 1134.16 870.873 1116.1 801.228 1025.93L799.039 1027.62C869.679 1119.08 1030.76 1137.4 1120.28 1029.1L1118.15 1027.34ZM1148.08 986.231C1138.17 1000.23 1128.24 1014.03 1118.11 1027.38L1120.32 1029.05C1130.47 1015.67 1140.42 1001.84 1150.33 987.829L1148.08 986.231ZM1197.44 994.319C1181.57 991.73 1165.56 988.767 1149.47 985.671L1148.94 988.388C1165.05 991.486 1181.09 994.454 1196.99 997.049L1197.44 994.319ZM1422.48 771.21C1435.58 909.187 1310.39 1008.82 1197.39 994.312L1197.04 997.056C1311.66 1011.77 1438.52 910.834 1425.24 770.949L1422.48 771.21ZM1414.83 722.44C1417.63 738.85 1420.27 755.145 1422.49 771.268L1425.23 770.891C1423 754.725 1420.36 738.398 1417.55 721.974L1414.83 722.44ZM1458.19 690.697C1444.32 700.966 1429.96 711.027 1415.4 721.068L1416.98 723.346C1431.54 713.298 1445.93 703.217 1459.84 692.921L1458.19 690.697ZM1446.56 363.655C1492.25 398.266 1524.33 456.371 1530.38 517.683C1536.42 578.948 1516.47 643.359 1458.14 690.735L1459.89 692.882C1519.01 644.857 1539.26 579.495 1533.13 517.411C1527.01 455.374 1494.57 396.551 1448.23 361.45L1446.56 363.655ZM1417.03 344.203C1427.07 350.642 1436.96 357.116 1446.62 363.696L1448.18 361.41C1438.49 354.811 1428.57 348.322 1418.52 341.875L1417.03 344.203ZM1424.89 292.723C1422.42 309.249 1419.5 325.958 1416.41 342.79L1419.14 343.288C1422.22 326.445 1425.15 309.702 1427.62 293.131L1424.89 292.723ZM1185.41 69.6928C1242.19 61.8618 1305.96 80.2607 1353.59 119.339C1401.19 158.387 1432.62 218.043 1424.88 292.784L1427.63 293.069C1435.48 217.303 1403.58 156.77 1355.35 117.2C1307.15 77.6597 1242.62 59.0104 1185.03 66.9523L1185.41 69.6928ZM1147.92 77.4481C1160.53 74.6735 1173.06 72.0329 1185.48 69.6816L1184.97 66.9635C1172.51 69.3217 1159.95 71.9685 1147.32 74.7463L1147.92 77.4481ZM1118.93 34.3636C1128.24 47.9667 1137.34 62.2448 1146.45 76.8299L1148.79 75.3645C1139.68 60.7686 1130.55 46.452 1121.21 32.801L1118.93 34.3636ZM1118.79 83.9902C1128.54 81.7778 1138.25 79.574 1147.92 77.4481L1147.32 74.7463C1137.65 76.8745 1127.92 79.0803 1118.17 81.2924L1118.79 83.9902ZM965.829 109.242C1016.48 107.204 1068.15 95.4775 1118.79 83.9902L1118.17 81.2924C1067.49 92.7908 1016.07 104.452 965.718 106.478L965.829 109.242ZM790.843 83.8714C848.66 97.4555 908.588 111.545 965.829 109.242L965.718 106.478C908.922 108.763 849.374 94.7816 791.476 81.1783L790.843 83.8714ZM771.969 79.4572C778.233 80.9085 784.525 82.387 790.843 83.8714L791.476 81.1783C785.159 79.6941 778.862 78.2147 772.593 76.7622L771.969 79.4572ZM769.039 84.4847C770.483 82.6436 771.926 80.8031 773.369 78.9634L771.193 77.256C769.749 79.0958 768.306 80.9365 766.862 82.7776L769.039 84.4847ZM653.035 221.466C694.698 179.285 732.021 131.689 769.039 84.4847L766.862 82.7776C729.826 130.004 692.599 177.473 651.067 219.522L653.035 221.466ZM524.865 326.632C569.501 293.652 614.762 260.214 653.035 221.466L651.067 219.522C612.972 258.09 567.89 291.402 523.221 324.407L524.865 326.632ZM506.848 339.969C512.831 335.523 518.842 331.081 524.865 326.632L523.221 324.407C517.199 328.856 511.185 333.3 505.198 337.749L506.848 339.969ZM508.927 351.371C508.416 347.142 507.905 342.917 507.396 338.693L504.65 339.024C505.158 343.248 505.669 347.475 506.181 351.703L508.927 351.371ZM523.76 530.258C523.394 470.972 516.13 410.925 508.927 351.371L506.181 351.703C513.387 411.285 520.629 471.174 520.994 530.275L523.76 530.258ZM507.494 695.252C515.736 640.369 524.096 584.72 523.76 530.258L520.994 530.275C521.328 584.485 513.006 639.917 504.758 694.841L507.494 695.252ZM504.333 716.42C505.372 709.378 506.432 702.321 507.494 695.252L504.758 694.841C503.696 701.91 502.636 708.97 501.596 716.016L504.333 716.42ZM519.519 725.408C514.232 721.951 508.962 718.506 503.724 715.062L502.204 717.374C507.446 720.82 512.719 724.267 518.005 727.723L519.519 725.408ZM663.18 836.501C623.229 793.2 570.56 758.776 519.519 725.408L518.005 727.723C569.108 761.132 621.471 795.373 661.147 838.376L663.18 836.501ZM759.893 965.823C729.742 920.988 699.13 875.465 663.18 836.501L661.147 838.376C696.928 877.157 727.423 922.498 757.598 967.366L759.893 965.823ZM772.566 984.626C768.341 978.384 764.121 972.11 759.893 965.823L757.598 967.366C761.825 973.653 766.047 979.93 770.275 986.177L772.566 984.626ZM785.691 981.009C780.828 982.027 775.976 983.043 771.139 984.047L771.702 986.756C776.541 985.751 781.395 984.734 786.258 983.716L785.691 981.009ZM965.829 957.979C906.961 955.611 845.377 968.512 785.691 981.009L786.258 983.716C846.017 971.205 907.255 958.391 965.718 960.744L965.829 957.979ZM1125.66 981.038C1072.64 970.655 1018.8 960.111 965.829 957.979L965.718 960.744C1018.44 962.865 1072.07 973.362 1125.13 983.752L1125.66 981.038ZM1149.47 985.671C1141.55 984.149 1133.61 982.595 1125.66 981.038L1125.13 983.752C1133.08 985.31 1141.02 986.865 1148.94 988.388L1149.47 985.671ZM1162.1 966.309C1157.42 972.975 1152.75 979.624 1148.08 986.231L1150.33 987.829C1155.01 981.217 1159.69 974.564 1164.37 967.899L1162.1 966.309ZM1266.41 834.838C1227.33 873.433 1194.43 920.281 1162.1 966.309L1164.37 967.899C1196.72 921.83 1229.48 875.196 1268.35 836.806L1266.41 834.838ZM1397.26 733.526C1351.5 764.886 1304.91 796.806 1266.41 834.838L1268.35 836.806C1306.65 798.979 1353.02 767.196 1398.83 735.808L1397.26 733.526ZM1415.4 721.068C1409.38 725.221 1403.33 729.369 1397.26 733.526L1398.83 735.808C1404.89 731.651 1410.95 727.501 1416.98 723.346L1415.4 721.068ZM1410.41 696.975C1411.9 705.488 1413.38 713.978 1414.83 722.44L1417.55 721.974C1416.11 713.506 1414.62 705.011 1413.14 696.499L1410.41 696.975ZM1391.2 530.258C1390.86 585.18 1400.72 641.569 1410.41 696.975L1413.14 696.499C1403.44 641.044 1393.63 584.905 1393.97 530.275L1391.2 530.258ZM1412.09 366.091C1401.91 420.626 1391.53 476.14 1391.2 530.258L1393.97 530.275C1394.3 476.448 1404.62 421.182 1414.81 366.599L1412.09 366.091ZM1416.41 342.79C1415 350.535 1413.55 358.303 1412.09 366.091L1414.81 366.599C1416.26 358.812 1417.72 351.039 1419.14 343.288L1416.41 342.79ZM1389.34 326.653C1398.63 332.509 1407.89 338.341 1417.03 344.203L1418.52 341.875C1409.37 336.005 1400.11 330.168 1390.81 324.312L1389.34 326.653ZM1263.33 236.353C1300.59 270.729 1345.41 298.972 1389.34 326.653L1390.81 324.312C1346.85 296.605 1302.24 268.493 1265.2 234.319L1263.33 236.353ZM1157.53 94.679C1188.81 145.167 1221.22 197.505 1263.33 236.353L1265.2 234.319C1223.43 195.774 1191.21 143.781 1159.89 93.2221L1157.53 94.679ZM1146.45 76.8299C1150.14 82.7388 1153.83 88.6961 1157.53 94.679L1159.89 93.2221C1156.18 87.24 1152.49 81.2784 1148.79 75.3645L1146.45 76.8299Z" fill="#94C8B2" mask="url(#path-1-inside-1_1654_16851)"/>
</mask>
<g mask="url(#mask0_1654_16851)">
<path d="M953.266 -255.637L909.271 1337.02M1732.14 532.377L148.629 532.377M1515.93 -31.449L343.129 1068.42M1507.83 1088.1L330.396 -41.8688M1341.11 1218.93L519.11 -165.748M1719.16 317.035L180.652 747.72M1138.51 1297.65L734.06 -229.769M1706.96 746.562L180.652 317.035M675.405 1273.16L1180.19 -229.769M1635.18 910.963L259.773 128.321M533.001 1208.51L1332.92 -155.405M1732.14 600.685L155.283 464.07M829.386 1321.97L1033.15 -255.637M1456.89 1140.2L395.231 -85.8634M299.134 1000.11L1565.72 26.4388M1271.66 1247.3L592.049 -187.746M222.723 851.917L1651.39 175.789M1065.57 1313.86L808.546 -245.152M157.774 674.781L1719.16 387.686M222.723 224.415L1687.28 835.709M471.64 1169.14L1391.19 -118.868M275.982 41.4895L1605.08 980.428M1719.16 672.466L157.774 392.289M752.974 1307.75L1103.77 -245.152M1397.84 1178.4L450.803 -133.331M252.824 937.591L1610.87 91.273M1205.66 1280.29L668.603 -208.604M544.486 662.046L1687.28 242.939M985.683 1328.91L879.169 -255.637M155.283 601.843L1732.14 462.912M592.046 1243.24L1271.67 -186.704M394.07 1136.73L1454.57 -77.7591M633.728 261.495L1561.09 1036" stroke="#333333" stroke-width="1.38319"/>
</g>
<path d="M721.182 66.3735L721.166 66.3705L721.149 66.3682C664.07 58.4957 605.404 81.0704 562.378 119.414C519.353 157.757 491.875 211.952 497.32 267.414C499.972 295.277 503.368 323.352 506.773 351.506L506.773 351.511C513.979 411.086 521.226 471.015 521.591 530.162C521.926 584.434 513.595 639.921 505.348 694.834L505.347 694.84C501.57 719.988 497.812 745.014 494.917 769.732H494.917L494.915 769.745C489.51 824.802 510.571 885.767 549.501 930.938C588.441 976.121 645.312 1005.56 711.541 997.419L711.555 997.417L711.568 997.415C735.868 993.431 760.8 988.211 786.016 982.932L786.023 982.93C845.763 970.422 907.088 957.587 965.652 959.943C1018.44 962.067 1072.11 972.576 1125.17 982.965L1125.17 982.965C1149.3 987.69 1173.3 992.389 1197.01 996.258L1197.02 996.259L1197.03 996.261C1311.25 1010.93 1437.69 910.313 1424.45 770.905L1424.45 770.891L1424.45 770.876C1421.08 746.394 1416.73 721.531 1412.36 696.513L1412.36 696.51C1402.67 641.066 1392.84 584.865 1393.18 530.162C1393.51 476.262 1403.84 420.933 1414.04 366.362L1414.04 366.344C1418.65 341.64 1423.24 317.091 1426.85 292.92L1426.85 292.905L1426.85 292.889C1434.67 217.379 1402.89 157.065 1354.82 117.626C1306.76 78.2009 1242.42 59.6142 1185.03 67.5284L1185.02 67.5307L1185 67.534C1163.03 71.6953 1140.71 76.7579 1118.24 81.8566L1118.23 81.8578C1067.56 93.3534 1016.08 105.031 965.652 107.06C908.744 109.35 849.101 95.3411 791.224 81.7425L791.215 81.7404C767.46 76.1593 744.005 70.6483 721.182 66.3735ZM521.198 279.361L521.198 279.359C516.085 227.282 541.886 176.266 582.469 140.099C623.047 103.937 678.311 82.7073 731.988 90.1047C753.6 94.1533 775.818 99.3733 798.355 104.668L798.407 104.681C853.256 117.568 910.001 130.9 964.185 128.72C1012.16 126.79 1061.11 115.685 1109.14 104.788L1109.17 104.78C1130.49 99.9432 1151.63 95.1472 1172.44 91.2052C1226.48 83.7577 1287.14 101.268 1332.45 138.438C1377.74 175.595 1407.66 232.378 1400.3 303.502C1396.88 326.404 1392.54 349.668 1388.16 373.109L1388.15 373.144C1378.49 424.876 1368.67 477.471 1368.35 528.732C1368.03 580.756 1377.37 634.181 1386.56 686.742L1386.56 686.775C1390.71 710.509 1394.83 734.067 1398.02 757.259C1410.48 888.564 1291.36 983.365 1183.81 969.561C1161.34 965.896 1138.6 961.443 1115.72 956.962L1115.71 956.961L1115.68 956.955C1065.38 947.106 1014.37 937.117 964.185 935.098C908.448 932.855 850.122 945.067 793.501 956.921L793.453 956.932C769.53 961.94 745.91 966.885 722.896 970.659C660.607 978.308 607.083 950.638 570.378 908.049C533.663 865.447 513.831 807.974 518.916 756.155C521.66 732.732 525.222 709.013 528.805 685.154L528.809 685.126C536.628 633.062 544.548 580.331 544.229 528.732C543.882 472.54 536.998 415.62 530.165 359.125L530.163 359.105C526.932 332.392 523.713 305.775 521.198 279.361Z" fill="white" stroke="#333333" stroke-width="1.38319"/>
<path d="M1119.74 32.9375L1119.73 32.9237L1119.72 32.9105C1084.92 -13.0293 1027.46 -38.5571 969.903 -41.869C912.353 -45.1808 854.585 -26.2834 819.209 16.7947C801.377 38.3784 783.921 60.6377 766.416 82.9596L766.413 82.9637C729.371 130.198 692.11 177.711 650.534 219.804C612.384 258.428 567.245 291.781 522.572 324.788L522.568 324.791C502.109 339.907 481.75 354.95 462.219 370.385L462.209 370.393C419.444 405.512 391.22 463.529 386.806 523.013C382.39 582.513 401.795 643.558 454.394 684.646L454.405 684.654L454.416 684.662C474.421 699.031 495.747 712.974 517.316 727.074L517.323 727.079C568.424 760.486 620.877 794.782 660.633 837.872C696.466 876.709 726.999 922.108 757.175 966.98C770.9 987.388 784.552 1007.69 798.587 1027.2L798.594 1027.2L798.601 1027.21C869.012 1118.37 1029.61 1136.64 1118.85 1028.67L1118.86 1028.66L1118.87 1028.65C1133.8 1008.95 1148.31 988.292 1162.91 967.503L1162.92 967.502C1195.27 921.43 1228.08 874.73 1267.01 836.278C1305.37 798.39 1351.81 766.564 1397.61 735.175L1397.63 735.164C1418.37 720.954 1438.97 706.834 1458.62 692.29L1458.63 692.28L1458.65 692.271C1517.59 644.394 1537.76 579.253 1531.66 517.356C1525.56 455.483 1493.19 396.824 1447.01 361.837L1446.99 361.826L1446.98 361.816C1428.49 349.217 1409.13 337.015 1389.63 324.725L1389.62 324.723C1345.65 297.014 1300.98 268.862 1263.88 234.628C1222.01 195.997 1189.73 143.903 1158.41 93.3484L1158.41 93.3395C1145.55 72.5911 1132.86 52.1033 1119.74 32.9375ZM827.647 42.1365L827.648 42.1349C860.866 1.68484 915.198 -16.1503 969.483 -13.0265C1023.76 -9.90303 1077.86 14.1689 1110.6 57.3662C1123.02 75.5164 1135.04 94.9231 1147.24 114.609L1147.27 114.655C1176.95 162.564 1207.65 212.13 1247.52 248.912C1282.82 281.479 1325.29 308.244 1366.97 334.51L1367 334.528L1367 334.53C1385.5 346.188 1403.85 357.748 1421.36 369.68C1464.84 402.633 1495.36 457.923 1501.12 516.258C1506.87 574.572 1487.87 635.899 1432.36 680.998C1413.74 694.779 1394.21 708.16 1374.54 721.643L1374.51 721.661C1331.09 751.418 1286.94 781.671 1250.46 817.705C1213.43 854.275 1182.25 898.67 1151.57 942.346L1151.56 942.372C1137.7 962.094 1123.95 981.67 1109.81 1000.33C1025.75 1102.01 874.444 1084.81 808.133 998.979C794.836 980.496 781.899 961.26 768.879 941.9L768.866 941.88C740.255 899.336 711.238 856.188 677.169 819.263C639.332 778.253 589.44 745.636 541.006 713.972L540.967 713.946C520.503 700.568 500.299 687.36 481.352 673.75C431.886 635.104 413.599 577.676 417.761 521.592C421.924 465.491 448.548 410.814 488.796 377.759C507.304 363.132 526.6 348.875 546.01 334.534L546.033 334.517C588.388 303.222 631.286 271.527 667.556 234.806C707.056 194.816 742.446 149.687 777.572 104.896L777.584 104.88C794.193 83.7008 810.743 62.5972 827.647 42.1365Z" fill="white" stroke="#333333" stroke-width="1.38357"/>
</g>
</svg>
