<svg width="1365" height="535" viewBox="0 0 1365 535" fill="none" xmlns="http://www.w3.org/2000/svg">
<path d="M1206 535V288H150.998V535" stroke="#BDBDBD" stroke-width="0.821374"/>
<path d="M607.696 183.541C586.236 177.734 540.134 162.787 527.409 149.456C515.252 136.721 510.617 125.312 517.561 119.627M607.696 183.541C600.123 179.754 589.517 172.937 584.215 167.635C578.913 162.333 546.345 113.857 527.409 116.13C522.946 116.665 519.703 117.874 517.561 119.627M607.696 183.541H709.948L703.889 167.635C685.711 116.886 628.903 80.5299 605.423 70.6833C581.943 60.8367 569.067 79.0151 567.552 80.5299C566.037 82.0448 558.463 89.6191 546.344 96.4359C536.649 101.889 523.116 114.169 517.561 119.627M600.122 184.303H485.75C478.428 181.778 462.876 174.002 459.24 163.095C455.604 152.188 462.775 146.432 466.814 144.917L514.532 131.283M514.532 120.679C510.778 117.968 504.235 111.365 503.094 103.686C502.618 100.477 504.453 97.522 506.831 95.3144L524.378 79.0204M514.532 38.5034C510.891 37.9215 509.801 56.9194 516.804 69.1738C524.075 81.8986 541.042 91.1393 548.616 94.169C544.829 91.8984 524.378 63.8718 518.319 44.9361C516.928 40.5889 515.616 38.6768 514.532 38.5034ZM514.532 38.5034C514.532 37.6174 517.864 36.2997 531.195 38.1176C547.859 40.3898 586.487 44.9361 592.547 44.9361C598.606 44.9361 610.725 41.9052 613.755 48.722C616.785 55.5389 622.087 69.1726 622.087 75.9895V79.0204M606.938 43.42C608.705 31.5536 615.27 6.76044 627.389 2.51884C642.537 -2.78317 671.32 10.0931 696.315 10.0931C716.311 10.0931 720.805 11.1014 720.552 11.6056M720.552 11.6056C729.642 11.6056 736.963 29.2789 739.488 38.1156M720.552 11.6056C714.493 15.1403 702.374 24.3304 702.374 32.8136M628.903 83.5614C636.478 66.6455 660.564 32.8136 696.315 32.8136C719.887 32.8136 740.931 37.8716 757.666 50.322M757.666 50.322C772.658 61.4749 784.193 78.5597 790.993 103.255M757.666 50.322L814 26.9048M706.919 172.938C721.815 163.091 748.842 135.945 760.696 128.25C786.5 111.5 783.97 113.614 803.87 104.769C810.687 101.74 815.989 102.497 823.563 107.042C829.622 110.677 872.038 140.369 892.489 154.76M794.998 106.9C793.483 101.348 792.495 85.033 793.266 79.0204C794.998 65.5 796.802 53.5 798.5 49C800.772 42.9784 812.959 10.8482 825.835 36.6008C838.711 62.3534 830.27 95.5375 827.998 109.929M708.434 168.393C704.141 147.945 697.83 101.443 706.919 79.0204C718.28 50.9919 750.85 61.5959 751.607 83.5614C752.364 105.527 742.518 152.484 708.434 168.393ZM835.682 184.303C843.256 180.262 858.234 170.271 862.192 166.879C867.494 162.334 877.34 156.275 881.885 154.76C886.429 153.245 898.548 152.487 895.519 165.364C892.489 178.24 878.098 184.303 835.682 184.303Z" stroke="#BDBDBD" stroke-width="0.8"/>
<rect x="67.9961" y="181" width="1221" height="107" fill="white" stroke="#BDBDBD" stroke-width="0.821374"/>
<rect x="619.994" y="181" width="117" height="107" fill="white" stroke="#BDBDBD" stroke-width="0.821374"/>
<path d="M1052.99 98.9987C946.522 137.582 919.479 169.171 840.994 180.184C912.815 185.69 949.765 162 1020.49 162C1091.22 162 1144.98 170.538 1170.5 193.154C1202.5 221.501 1213.33 273.986 1226.02 303.159C1249.95 358.223 1277.94 369.235 1299.43 383.001C1287.47 327.937 1284.51 324.266 1287.47 286.64C1311.16 304.308 1328.21 307.572 1362.99 305.706C1346.88 293.501 1322.43 293.093 1277.94 193.154C1226.02 76.5011 1093 84.5013 1052.99 98.9987Z" fill="white" stroke="#BDBDBD" stroke-width="0.8"/>
<path d="M272.999 111.998C329.343 104.068 402.999 135.498 476.999 180.5C403.999 156.498 377.079 159.766 348.999 157.998C285.5 154 245.089 200 233 259C224.908 298.495 225.572 333.52 221 365C213.592 416 202.405 463.466 188.724 485.007C176.352 430.036 177.49 425.458 158.942 392.588C144.913 418.595 130.825 428.744 98.4963 441.716C107.964 423.855 126.471 407.059 134.998 297.999C145.944 157.999 221.632 119.227 272.999 111.998Z" fill="white" stroke="#BDBDBD" stroke-width="0.8"/>
</svg>
