<svg width="327" height="195" viewBox="0 0 327 195" fill="none" xmlns="http://www.w3.org/2000/svg">
<rect x="0.184225" y="1.18423" width="326.632" height="192.632" rx="14.8567" fill="#F5F5F5" stroke="black" stroke-width="0.368451"/>
<g clip-path="url(#clip0_1654_16889)">
<path d="M5.57031 22.5836C5.57031 12.0794 5.57031 6.82726 8.83355 3.56402C12.0968 0.300781 17.3489 0.300781 27.8531 0.300781H304.717C315.221 0.300781 320.473 0.300781 323.736 3.56402C327 6.82726 327 12.0794 327 22.5836V171.878C327 182.383 327 187.635 323.736 190.898C320.473 194.161 315.221 194.161 304.717 194.161H27.8531C17.3489 194.161 12.0968 194.161 8.83355 190.898C5.57031 187.635 5.57031 182.383 5.57031 171.878V22.5836Z" fill="white"/>
<path d="M327 237.105L6.00006 237.105M327 220.211L6.00006 220.211M327 203.316L6.00006 203.316M327 186.421L6.00006 186.421M327 169.526L6.00006 169.526M327 152.632L6.00006 152.632M327 135.737L6.00006 135.737M327 118.842L6.00006 118.842M327 101.948L6.00005 101.948M327 85.0529L6.00005 85.0529M327 68.1581L6.00005 68.1582M327 51.2634L6.00005 51.2635M327 34.3687L6.00005 34.3688M327 17.474L6.00005 17.4741M327 0.579271L6.00005 0.579327M327 -16.3155L6.00005 -16.3154M327 -33.2102L6.00005 -33.2101M327 -50.1049L6.00005 -50.1048M327 -66.9996L6.00005 -66.9996M327 -67L327 254L6.00006 254L6 -67M310.105 -67L310.105 254M293.21 -67L293.211 254M276.316 -67L276.316 254M259.421 -67L259.421 254M242.526 -67V254M225.632 -67L225.632 254M208.737 -67L208.737 254M191.842 -67L191.842 254M174.947 -67L174.947 254M158.053 -67L158.053 254M141.158 -67L141.158 254M124.263 -67L124.263 254M107.368 -67L107.368 254M90.4737 -67L90.4738 254M73.579 -67L73.579 254M56.6842 -67L56.6843 254M39.7895 -67L39.7895 254M22.8947 -67L22.8948 254" stroke="black" stroke-opacity="0.2" stroke-width="0.4"/>
<path d="M327 32.7188C320.922 39.1851 311.696 47.2237 301.231 52.9843C289.411 59.4905 275.329 63.4461 262.371 57.8666C247.644 51.5249 239.64 48.181 234.002 47.0751C231.305 46.546 229.306 46.5693 227.467 46.9819C225.583 47.4045 223.664 48.2793 221.151 49.7533C219.841 50.5211 218.26 52.0421 216.422 54.4207C214.616 56.7582 212.716 59.7185 210.714 63.1366C208.216 67.4006 205.669 72.1812 203.007 77.1767C201.361 80.2659 199.672 83.4372 197.923 86.6193C193.42 94.8123 188.585 102.957 183.443 109.075C178.412 115.061 172.469 119.86 165.646 119.86C159.122 119.86 153.553 116.354 148.789 111.817C144.018 107.273 139.639 101.289 135.542 95.5929C135.279 95.2274 135.017 94.8632 134.756 94.5005C130.872 89.0953 127.238 84.0371 123.538 80.2444C119.539 76.1458 116.066 74.1677 112.799 74.2587C109.063 74.3626 105.412 75.9703 101.565 78.8866C97.699 81.8179 93.8586 85.8988 89.7594 90.6184C88.3992 92.1845 87.0117 93.8215 85.5908 95.498C78.6183 103.724 70.8396 112.902 61.5186 119.319C52.0528 125.836 40.1885 124.207 29.8327 120.019C20.5158 116.25 11.7306 110.155 5.57031 104.602V171.877C5.57031 182.381 5.57031 187.633 8.83355 190.897C12.0968 194.16 17.3489 194.16 27.8531 194.16H304.717C315.221 194.16 320.473 194.16 323.736 190.897C327 187.633 327 182.381 327 171.877V32.7188Z" fill="#E9F9F2"/>
<mask id="mask0_1654_16889" style="mask-type:alpha" maskUnits="userSpaceOnUse" x="5" y="32" width="322" height="163">
<path d="M301.365 53.2283C311.59 47.6005 320.629 39.8087 326.721 33.4182V171.877C326.721 177.137 326.72 181.054 326.316 184.065C325.912 187.068 325.111 189.129 323.539 190.7C321.968 192.271 319.908 193.072 316.905 193.476C313.894 193.881 309.977 193.881 304.717 193.881H27.8531C22.5931 193.881 18.6762 193.881 15.6651 193.476C12.662 193.072 10.6017 192.271 9.03051 190.7C7.45926 189.129 6.65802 187.068 6.25427 184.065C5.84944 181.054 5.84885 177.137 5.84885 171.877V105.225C12.0008 110.681 20.6074 116.587 29.7283 120.277C40.1137 124.478 52.0939 126.146 61.6765 119.549C71.0282 113.111 78.8267 103.909 85.7915 95.692L85.8032 95.6781C87.2244 94.0013 88.6108 92.3656 89.9697 90.801C94.0675 86.0831 97.8919 82.0211 101.734 79.1085C105.553 76.2123 109.15 74.6388 112.806 74.5371C115.953 74.4495 119.353 76.3544 123.338 80.4389C127.021 84.2135 130.643 89.2527 134.53 94.6631L134.557 94.7008C134.809 95.051 135.062 95.4027 135.316 95.7556C139.41 101.448 143.804 107.454 148.597 112.019C153.382 116.576 159.017 120.138 165.646 120.138C172.601 120.138 178.617 115.251 183.657 109.254C188.817 103.114 193.663 94.9478 198.167 86.7535C199.916 83.5701 201.607 80.3977 203.252 77.3092L203.253 77.3076C205.916 72.311 208.46 67.5356 210.954 63.2774C212.954 59.8636 214.847 56.9149 216.643 54.591C218.473 52.2221 220.028 50.7344 221.292 49.9936C223.795 48.5252 225.685 47.667 227.528 47.2537C229.322 46.8513 231.28 46.8251 233.949 47.3485C239.55 48.4471 247.52 51.7747 262.261 58.1224C275.337 63.7527 289.517 59.7499 301.365 53.2283Z" fill="#E9F9F2" stroke="#1AB36C" stroke-width="0.55707"/>
</mask>
<g mask="url(#mask0_1654_16889)">
<path d="M327 254V-66.9996M293.21 -67L293.21 254M259.421 -67L259.421 254M225.631 -67L225.631 254M191.842 -67L191.842 254M158.052 -67L158.053 254M124.263 -67L124.263 254M90.4735 -67L90.4735 254M56.684 -67L56.6841 254M22.8945 -67L22.8946 254" stroke="black" stroke-opacity="0.3" stroke-width="0.4"/>
</g>
<path d="M9.5 107.5C15.6603 113.053 20.5158 116.25 29.8327 120.019C40.1885 124.207 52.0528 125.836 61.5186 119.319C70.8396 112.902 78.6183 103.724 85.5908 95.498C87.0117 93.8215 88.3992 92.1845 89.7594 90.6184C93.8586 85.8988 97.699 81.8179 101.565 78.8866C105.412 75.9703 109.063 74.3626 112.799 74.2587C116.066 74.1677 119.539 76.1458 123.538 80.2444C127.238 84.0371 130.872 89.0953 134.756 94.5005C135.017 94.8632 135.279 95.2274 135.542 95.5929C139.639 101.289 144.018 107.273 148.789 111.817C153.553 116.354 159.122 119.86 165.646 119.86C172.469 119.86 178.412 115.061 183.443 109.075C188.585 102.957 193.42 94.8123 197.923 86.6193C199.672 83.4372 201.361 80.2659 203.007 77.1767C205.669 72.1812 208.216 67.4006 210.714 63.1366C212.716 59.7185 214.616 56.7582 216.422 54.4207C218.26 52.0421 219.841 50.5211 221.151 49.7533C223.664 48.2793 225.583 47.4045 227.467 46.9819C229.306 46.5693 231.305 46.546 234.002 47.0751C239.64 48.181 247.644 51.5249 262.371 57.8666C275.329 63.4461 289.411 59.4905 301.231 52.9843C310.496 47.8845 318.79 40.9992 324.787 35" stroke="#1AB36C" stroke-width="3.68451" stroke-linecap="round"/>
<circle cx="113" cy="75" r="8.30765" stroke="#1AB36C" stroke-width="1.38469"/>
<circle cx="112.999" cy="75.0005" r="4.15381" fill="#1AB36C" stroke="#1AB36C" stroke-width="1.38469"/>
<circle cx="166" cy="120" r="8.30765" stroke="#1AB36C" stroke-width="1.38469"/>
<circle cx="165.999" cy="120" r="4.15381" fill="#1AB36C" stroke="#1AB36C" stroke-width="1.38469"/>
<circle cx="226" cy="48" r="8.30765" stroke="#1AB36C" stroke-width="1.38469"/>
<circle cx="225.999" cy="48.0005" r="4.15381" fill="#1AB36C" stroke="#1AB36C" stroke-width="1.38469"/>
<circle cx="278" cy="61" r="8.30765" stroke="#1AB36C" stroke-width="1.38469"/>
<circle cx="277.999" cy="61.0005" r="4.15381" fill="#1AB36C" stroke="#1AB36C" stroke-width="1.38469"/>
<circle cx="44" cy="124" r="8.30765" stroke="#1AB36C" stroke-width="1.38469"/>
<circle cx="43.9995" cy="124" r="4.15381" fill="#1AB36C" stroke="#1AB36C" stroke-width="1.38469"/>
</g>
<path d="M5.77031 22.5836C5.77031 17.3258 5.77074 13.4026 6.17643 10.3851C6.58136 7.3733 7.38671 5.29371 8.97497 3.70544C10.5632 2.11718 12.6428 1.31183 15.6546 0.906903C18.6721 0.501206 22.5953 0.500781 27.8531 0.500781H304.717C309.975 0.500781 313.898 0.501206 316.915 0.906903C319.927 1.31183 322.007 2.11718 323.595 3.70544C325.183 5.29371 325.989 7.3733 326.393 10.3851C326.799 13.4026 326.8 17.3258 326.8 22.5836V171.878C326.8 177.136 326.799 181.059 326.393 184.077C325.989 187.089 325.183 189.168 323.595 190.756C322.007 192.345 319.927 193.15 316.915 193.555C313.898 193.961 309.975 193.961 304.717 193.961H27.8531C22.5953 193.961 18.6721 193.961 15.6546 193.555C12.6428 193.15 10.5632 192.345 8.97497 190.756C7.38671 189.168 6.58136 187.089 6.17643 184.077C5.77074 181.059 5.77031 177.136 5.77031 171.878V22.5836Z" stroke="black" stroke-opacity="0.7" stroke-width="0.4"/>
<defs>
<clipPath id="clip0_1654_16889">
<path d="M5.57031 22.5836C5.57031 12.0794 5.57031 6.82726 8.83355 3.56402C12.0968 0.300781 17.3489 0.300781 27.8531 0.300781H304.717C315.221 0.300781 320.473 0.300781 323.736 3.56402C327 6.82726 327 12.0794 327 22.5836V171.878C327 182.383 327 187.635 323.736 190.898C320.473 194.161 315.221 194.161 304.717 194.161H27.8531C17.3489 194.161 12.0968 194.161 8.83355 190.898C5.57031 187.635 5.57031 182.383 5.57031 171.878V22.5836Z" fill="white"/>
</clipPath>
</defs>
</svg>
