<svg width="1920" height="1080" viewBox="0 0 1920 1080" fill="none" xmlns="http://www.w3.org/2000/svg">
<g opacity="0.4">
<mask id="mask0_1654_16834" style="mask-type:alpha" maskUnits="userSpaceOnUse" x="700" y="270" width="521" height="521">
<mask id="path-1-inside-1_1654_16834" fill="white">
<path fill-rule="evenodd" clip-rule="evenodd" d="M1032.95 304.578C1001.45 263.007 928.887 258.314 896.9 297.266C889.468 306.261 882.18 315.516 874.883 324.817C867.021 322.995 859.258 321.268 851.65 319.843C799.985 312.717 745.356 360.709 750.281 410.871C751.305 421.627 752.573 432.454 753.88 443.316C747.361 448.161 740.914 453.019 734.655 457.966C695.942 489.757 683.498 563.073 731.098 600.256C737.956 605.181 745.156 609.997 752.491 614.819C751.282 623.008 750.134 631.154 749.188 639.228C744.294 689.081 787.338 749.723 847.287 742.357C856.196 740.896 865.292 739.07 874.497 737.157C878.809 743.529 883.135 749.829 887.544 755.957C919.422 797.228 992.149 805.498 1032.56 756.612C1037.16 750.537 1041.68 744.259 1046.18 737.896C1053.51 739.304 1060.79 740.652 1068.01 741.83C1119.73 748.472 1177.01 702.894 1171.01 639.754C1170 632.415 1168.8 625 1167.53 617.538C1174.14 612.973 1180.67 608.396 1186.99 603.724C1240.36 560.366 1223.53 485.768 1181.71 454.086C1177.31 451.092 1172.81 448.147 1168.25 445.219C1169.65 437.568 1170.98 429.967 1172.1 422.446C1179.19 354.045 1114.53 313.201 1062.56 320.37C1056.91 321.44 1051.21 322.641 1045.47 323.903C1041.33 317.271 1037.19 310.772 1032.95 304.578ZM1045.47 323.903C1041.07 324.87 1036.66 325.872 1032.23 326.877C1009.2 332.1 985.778 337.415 962.825 338.338C936.911 339.381 909.762 333.002 883.468 326.824C880.595 326.149 877.733 325.477 874.883 324.817C874.228 325.652 873.573 326.488 872.917 327.323C856.09 348.782 839.149 370.384 820.244 389.524C802.891 407.093 782.361 422.261 762.068 437.255C759.332 439.277 756.6 441.295 753.88 443.316C754.111 445.237 754.344 447.16 754.577 449.083C757.851 476.155 761.147 503.409 761.313 530.311C761.466 555.005 757.675 580.247 753.927 605.199C753.445 608.411 752.963 611.618 752.491 614.819C754.872 616.384 757.266 617.949 759.668 619.52C782.879 634.694 806.746 650.297 824.84 669.908C841.14 687.575 855.026 708.223 868.734 728.606C870.656 731.465 872.575 734.318 874.497 737.157C876.696 736.701 878.901 736.239 881.111 735.776C908.253 730.093 936.163 724.25 962.825 725.323C986.843 726.289 1011.26 731.071 1035.37 735.791C1038.98 736.499 1042.59 737.205 1046.18 737.896C1048.31 734.892 1050.44 731.868 1052.56 728.838C1067.26 707.91 1082.18 686.668 1099.89 669.174C1117.35 651.936 1138.47 637.46 1159.28 623.202C1162.04 621.312 1164.79 619.426 1167.53 617.538C1166.87 613.692 1166.2 609.834 1165.52 605.967C1161.11 580.776 1156.64 555.205 1156.8 530.311C1156.95 505.782 1161.65 480.608 1166.28 455.813C1166.94 452.273 1167.6 448.741 1168.25 445.219C1164.09 442.553 1159.88 439.9 1155.66 437.238C1135.68 424.652 1115.36 411.846 1098.48 396.269C1079.42 378.683 1064.73 354.975 1050.51 332.013C1048.82 329.296 1047.15 326.588 1045.47 323.903Z"/>
</mask>
<path fill-rule="evenodd" clip-rule="evenodd" d="M1032.95 304.578C1001.45 263.007 928.887 258.314 896.9 297.266C889.468 306.261 882.18 315.516 874.883 324.817C867.021 322.995 859.258 321.268 851.65 319.843C799.985 312.717 745.356 360.709 750.281 410.871C751.305 421.627 752.573 432.454 753.88 443.316C747.361 448.161 740.914 453.019 734.655 457.966C695.942 489.757 683.498 563.073 731.098 600.256C737.956 605.181 745.156 609.997 752.491 614.819C751.282 623.008 750.134 631.154 749.188 639.228C744.294 689.081 787.338 749.723 847.287 742.357C856.196 740.896 865.292 739.07 874.497 737.157C878.809 743.529 883.135 749.829 887.544 755.957C919.422 797.228 992.149 805.498 1032.56 756.612C1037.16 750.537 1041.68 744.259 1046.18 737.896C1053.51 739.304 1060.79 740.652 1068.01 741.83C1119.73 748.472 1177.01 702.894 1171.01 639.754C1170 632.415 1168.8 625 1167.53 617.538C1174.14 612.973 1180.67 608.396 1186.99 603.724C1240.36 560.366 1223.53 485.768 1181.71 454.086C1177.31 451.092 1172.81 448.147 1168.25 445.219C1169.65 437.568 1170.98 429.967 1172.1 422.446C1179.19 354.045 1114.53 313.201 1062.56 320.37C1056.91 321.44 1051.21 322.641 1045.47 323.903C1041.33 317.271 1037.19 310.772 1032.95 304.578ZM1045.47 323.903C1041.07 324.87 1036.66 325.872 1032.23 326.877C1009.2 332.1 985.778 337.415 962.825 338.338C936.911 339.381 909.762 333.002 883.468 326.824C880.595 326.149 877.733 325.477 874.883 324.817C874.228 325.652 873.573 326.488 872.917 327.323C856.09 348.782 839.149 370.384 820.244 389.524C802.891 407.093 782.361 422.261 762.068 437.255C759.332 439.277 756.6 441.295 753.88 443.316C754.111 445.237 754.344 447.16 754.577 449.083C757.851 476.155 761.147 503.409 761.313 530.311C761.466 555.005 757.675 580.247 753.927 605.199C753.445 608.411 752.963 611.618 752.491 614.819C754.872 616.384 757.266 617.949 759.668 619.52C782.879 634.694 806.746 650.297 824.84 669.908C841.14 687.575 855.026 708.223 868.734 728.606C870.656 731.465 872.575 734.318 874.497 737.157C876.696 736.701 878.901 736.239 881.111 735.776C908.253 730.093 936.163 724.25 962.825 725.323C986.843 726.289 1011.26 731.071 1035.37 735.791C1038.98 736.499 1042.59 737.205 1046.18 737.896C1048.31 734.892 1050.44 731.868 1052.56 728.838C1067.26 707.91 1082.18 686.668 1099.89 669.174C1117.35 651.936 1138.47 637.46 1159.28 623.202C1162.04 621.312 1164.79 619.426 1167.53 617.538C1166.87 613.692 1166.2 609.834 1165.52 605.967C1161.11 580.776 1156.64 555.205 1156.8 530.311C1156.95 505.782 1161.65 480.608 1166.28 455.813C1166.94 452.273 1167.6 448.741 1168.25 445.219C1164.09 442.553 1159.88 439.9 1155.66 437.238C1135.68 424.652 1115.36 411.846 1098.48 396.269C1079.42 378.683 1064.73 354.975 1050.51 332.013C1048.82 329.296 1047.15 326.588 1045.47 323.903Z" fill="#D9D9D9" fill-opacity="0.5"/>
<path d="M896.9 297.266L897.385 297.666L897.386 297.665L896.9 297.266ZM1032.95 304.578L1033.46 304.222L1033.46 304.21L1033.45 304.198L1032.95 304.578ZM851.65 319.843L851.765 319.225L851.75 319.222L851.735 319.22L851.65 319.843ZM750.281 410.871L750.907 410.811L750.907 410.809L750.281 410.871ZM734.655 457.966L734.265 457.473L734.256 457.48L734.655 457.966ZM731.098 600.256L730.711 600.751L730.721 600.759L730.731 600.766L731.098 600.256ZM749.188 639.228L748.564 639.155L748.563 639.166L749.188 639.228ZM847.287 742.357L847.364 742.981L847.377 742.979L847.389 742.977L847.287 742.357ZM887.544 755.957L887.033 756.324L887.039 756.333L887.046 756.341L887.544 755.957ZM1032.56 756.612L1033.04 757.013L1033.05 757.003L1033.06 756.992L1032.56 756.612ZM1068.01 741.83L1067.91 742.451L1067.92 742.453L1067.93 742.454L1068.01 741.83ZM1171.01 639.754L1171.64 639.694L1171.64 639.681L1171.63 639.668L1171.01 639.754ZM1186.99 603.724L1187.36 604.229L1187.37 604.221L1187.38 604.212L1186.99 603.724ZM1181.71 454.086L1182.09 453.585L1182.07 453.575L1182.06 453.566L1181.71 454.086ZM1172.1 422.446L1172.72 422.539L1172.73 422.525L1172.73 422.511L1172.1 422.446ZM1062.56 320.37L1062.47 319.747L1062.46 319.749L1062.44 319.752L1062.56 320.37ZM1032.23 326.877L1032.36 327.49L1032.23 326.877ZM962.825 338.338L962.85 338.967L962.825 338.338ZM883.468 326.824L883.611 326.212L883.468 326.824ZM872.917 327.323L872.423 326.936L872.917 327.323ZM820.244 389.524L819.797 389.082L820.244 389.524ZM762.068 437.255L761.694 436.749L762.068 437.255ZM754.577 449.083L755.201 449.007L754.577 449.083ZM761.313 530.311L760.685 530.315L761.313 530.311ZM753.927 605.199L753.306 605.105L753.927 605.199ZM759.668 619.52L760.012 618.993L759.668 619.52ZM824.84 669.908L825.302 669.482L824.84 669.908ZM868.734 728.606L869.255 728.255L868.734 728.606ZM881.111 735.776L880.982 735.161L881.111 735.776ZM962.825 725.323L962.8 725.951L962.825 725.323ZM1035.37 735.791L1035.25 736.408L1035.37 735.791ZM1052.56 728.838L1052.05 728.477L1052.56 728.838ZM1099.89 669.174L1100.34 669.621L1099.89 669.174ZM1159.28 623.202L1158.92 622.683L1159.28 623.202ZM1165.52 605.967L1166.14 605.859L1165.52 605.967ZM1156.8 530.311L1157.43 530.315L1156.8 530.311ZM1166.28 455.813L1165.66 455.697L1166.28 455.813ZM1155.66 437.238L1155.32 437.77L1155.66 437.238ZM1098.48 396.269L1098.91 395.807L1098.48 396.269ZM1050.51 332.013L1051.04 331.682V331.682L1050.51 332.013ZM897.386 297.665C913.22 278.383 939.14 269.861 965.072 271.353C991.002 272.845 1016.83 284.346 1032.44 304.957L1033.45 304.198C1017.57 283.238 991.366 271.607 965.144 270.098C938.923 268.589 912.567 277.197 896.414 296.867L897.386 297.665ZM875.378 325.205C882.674 315.904 889.958 306.655 897.385 297.666L896.416 296.865C888.978 305.868 881.685 315.128 874.389 324.429L875.378 325.205ZM851.534 320.46C859.129 321.883 866.882 323.608 874.741 325.429L875.025 324.204C867.161 322.382 859.387 320.652 851.765 319.225L851.534 320.46ZM750.907 410.809C748.469 385.978 760.771 361.624 780.162 344.343C799.553 327.063 825.948 316.932 851.564 320.465L851.735 319.22C825.686 315.627 798.935 325.93 779.326 343.404C759.718 360.878 747.168 385.601 749.655 410.932L750.907 410.809ZM754.504 443.241C753.197 432.379 751.93 421.559 750.907 410.811L749.655 410.93C750.68 421.695 751.949 432.529 753.256 443.391L754.504 443.241ZM735.044 458.459C741.296 453.518 747.737 448.664 754.255 443.821L753.505 442.812C746.984 447.658 740.531 452.52 734.265 457.473L735.044 458.459ZM731.485 599.76C707.882 581.323 699.148 553.921 701.136 527.135C703.125 500.336 715.845 474.226 735.053 458.452L734.256 457.48C714.752 473.497 701.894 499.94 699.882 527.042C697.87 554.159 706.714 582.006 730.711 600.751L731.485 599.76ZM752.836 614.294C745.503 609.473 738.312 604.663 731.465 599.745L730.731 600.766C737.6 605.7 744.809 610.521 752.146 615.344L752.836 614.294ZM749.812 639.301C750.757 631.237 751.904 623.098 753.113 614.911L751.869 614.727C750.66 622.918 749.51 631.072 748.564 639.155L749.812 639.301ZM847.211 741.733C817.484 745.385 791.932 732.185 774.397 711.839C756.854 691.483 747.385 664.026 749.814 639.289L748.563 639.166C746.097 664.283 755.703 692.074 773.445 712.66C791.196 733.257 817.141 746.694 847.364 742.981L847.211 741.733ZM874.369 736.542C865.166 738.454 856.08 740.278 847.186 741.736L847.389 742.977C856.311 741.514 865.419 739.685 874.625 737.773L874.369 736.542ZM888.054 755.59C883.65 749.469 879.328 743.175 875.017 736.805L873.976 737.51C878.29 743.883 882.619 750.189 887.033 756.324L888.054 755.59ZM1032.07 756.212C991.942 804.762 919.693 796.551 888.041 755.573L887.046 756.341C919.15 797.905 992.356 806.235 1033.04 757.013L1032.07 756.212ZM1045.67 737.533C1041.17 743.894 1036.66 750.165 1032.06 756.233L1033.06 756.992C1037.67 750.909 1042.19 744.624 1046.7 738.26L1045.67 737.533ZM1068.11 741.21C1060.9 740.033 1053.62 738.686 1046.3 737.279L1046.07 738.514C1053.39 739.922 1060.68 741.271 1067.91 742.451L1068.11 741.21ZM1170.39 639.813C1176.34 702.52 1119.45 747.802 1068.09 741.207L1067.93 742.454C1120.02 749.143 1177.67 703.268 1171.64 639.694L1170.39 639.813ZM1166.91 617.643C1168.18 625.103 1169.38 632.51 1170.39 639.839L1171.63 639.668C1170.62 632.32 1169.42 624.897 1168.15 617.432L1166.91 617.643ZM1186.61 603.218C1180.31 607.885 1173.78 612.457 1167.17 617.02L1167.88 618.055C1174.5 613.489 1181.04 608.908 1187.36 604.229L1186.61 603.218ZM1181.33 454.587C1202.09 470.316 1216.67 496.723 1219.42 524.588C1222.17 552.432 1213.1 581.705 1186.59 603.236L1187.38 604.212C1214.25 582.385 1223.45 552.68 1220.67 524.465C1217.89 496.27 1203.14 469.537 1182.09 453.585L1181.33 454.587ZM1167.91 445.748C1172.47 448.674 1176.97 451.615 1181.35 454.605L1182.06 453.566C1177.66 450.568 1173.15 447.619 1168.59 444.69L1167.91 445.748ZM1171.48 422.354C1170.36 429.864 1169.03 437.457 1167.63 445.106L1168.87 445.332C1170.27 437.678 1171.6 430.069 1172.72 422.539L1171.48 422.354ZM1062.64 320.993C1088.45 317.434 1117.43 325.795 1139.08 343.555C1160.71 361.302 1175 388.414 1171.48 422.382L1172.73 422.511C1176.29 388.077 1161.8 360.567 1139.88 342.583C1117.97 324.613 1088.64 316.138 1062.47 319.747L1062.64 320.993ZM1045.6 324.517C1051.34 323.256 1057.03 322.056 1062.68 320.987L1062.44 319.752C1056.78 320.824 1051.07 322.027 1045.33 323.289L1045.6 324.517ZM1032.43 304.933C1036.66 311.116 1040.8 317.606 1044.94 324.236L1046 323.57C1041.86 316.935 1037.71 310.428 1033.46 304.222L1032.43 304.933ZM1032.36 327.49C1036.8 326.485 1041.21 325.483 1045.6 324.517L1045.33 323.289C1040.94 324.256 1036.52 325.259 1032.09 326.264L1032.36 327.49ZM962.85 338.967C985.871 338.04 1009.35 332.711 1032.36 327.49L1032.09 326.264C1009.05 331.49 985.685 336.79 962.8 337.71L962.85 338.967ZM883.324 327.436C909.6 333.61 936.835 340.013 962.85 338.967L962.8 337.71C936.987 338.749 909.924 332.395 883.611 326.212L883.324 327.436ZM874.741 325.429C877.59 326.089 880.451 326.761 883.324 327.436L883.611 326.212C880.739 325.538 877.876 324.865 875.025 324.204L874.741 325.429ZM873.412 327.711C874.067 326.876 874.723 326.04 875.378 325.205L874.389 324.429C873.733 325.264 873.078 326.1 872.423 326.936L873.412 327.711ZM820.691 389.965C839.626 370.796 856.588 349.164 873.412 327.711L872.423 326.936C855.591 348.399 838.672 369.972 819.797 389.082L820.691 389.965ZM762.441 437.76C782.728 422.772 803.297 407.575 820.691 389.965L819.797 389.082C802.484 406.61 781.995 421.75 761.694 436.749L762.441 437.76ZM754.255 443.821C756.974 441.8 759.705 439.782 762.441 437.76L761.694 436.749C758.958 438.771 756.225 440.79 753.505 442.812L754.255 443.821ZM755.201 449.007C754.968 447.084 754.736 445.162 754.504 443.241L753.256 443.391C753.487 445.313 753.72 447.235 753.952 449.158L755.201 449.007ZM761.942 530.307C761.775 503.363 758.474 476.073 755.201 449.007L753.952 449.158C757.228 476.237 760.519 503.455 760.685 530.315L761.942 530.307ZM754.549 605.292C758.295 580.349 762.095 555.058 761.942 530.307L760.685 530.315C760.837 554.951 757.055 580.144 753.306 605.105L754.549 605.292ZM753.113 614.911C753.585 611.711 754.067 608.504 754.549 605.292L753.306 605.105C752.823 608.317 752.342 611.525 751.869 614.727L753.113 614.911ZM760.012 618.993C757.61 617.423 755.216 615.858 752.836 614.294L752.146 615.344C754.527 616.91 756.922 618.476 759.324 620.046L760.012 618.993ZM825.302 669.482C807.146 649.803 783.209 634.158 760.012 618.993L759.324 620.046C782.549 635.229 806.346 650.791 824.378 670.335L825.302 669.482ZM869.255 728.255C855.553 707.879 841.64 687.19 825.302 669.482L824.378 670.335C840.64 687.96 854.499 708.566 868.212 728.957L869.255 728.255ZM875.017 736.805C873.096 733.967 871.178 731.114 869.255 728.255L868.212 728.957C870.135 731.816 872.054 734.67 873.976 737.51L875.017 736.805ZM880.982 735.161C878.772 735.624 876.567 736.085 874.369 736.542L874.625 737.773C876.824 737.316 879.03 736.854 881.24 736.391L880.982 735.161ZM962.85 724.695C936.096 723.618 908.108 729.482 880.982 735.161L881.24 736.391C908.399 730.705 936.23 724.882 962.8 725.951L962.85 724.695ZM1035.49 735.174C1011.39 730.456 986.925 725.663 962.85 724.695L962.8 725.951C986.761 726.915 1011.13 731.686 1035.25 736.408L1035.49 735.174ZM1046.3 737.279C1042.71 736.588 1039.1 735.882 1035.49 735.174L1035.25 736.408C1038.86 737.115 1042.47 737.822 1046.07 738.514L1046.3 737.279ZM1052.05 728.477C1049.92 731.507 1047.8 734.53 1045.67 737.533L1046.7 738.26C1048.83 735.254 1050.95 732.229 1053.08 729.199L1052.05 728.477ZM1099.45 668.726C1081.69 686.267 1066.74 707.558 1052.05 728.477L1053.08 729.199C1067.78 708.262 1082.67 687.068 1100.34 669.621L1099.45 668.726ZM1158.92 622.683C1138.12 636.935 1116.95 651.442 1099.45 668.726L1100.34 669.621C1117.74 652.43 1138.82 637.985 1159.63 623.72L1158.92 622.683ZM1167.17 617.02C1164.43 618.908 1161.68 620.793 1158.92 622.683L1159.63 623.72C1162.39 621.831 1165.14 619.944 1167.88 618.055L1167.17 617.02ZM1164.9 606.076C1165.58 609.943 1166.25 613.8 1166.91 617.643L1168.15 617.432C1167.49 613.585 1166.81 609.726 1166.14 605.859L1164.9 606.076ZM1156.17 530.307C1156.02 555.268 1160.5 580.895 1164.9 606.076L1166.14 605.859C1161.73 580.656 1157.27 555.142 1157.43 530.315L1156.17 530.307ZM1165.66 455.697C1161.04 480.482 1156.32 505.712 1156.17 530.307L1157.43 530.315C1157.58 505.852 1162.27 480.735 1166.9 455.928L1165.66 455.697ZM1167.63 445.106C1166.98 448.626 1166.33 452.157 1165.66 455.697L1166.9 455.928C1167.56 452.388 1168.22 448.855 1168.87 445.332L1167.63 445.106ZM1155.32 437.77C1159.55 440.432 1163.75 443.083 1167.91 445.748L1168.59 444.69C1164.43 442.022 1160.22 439.368 1155.99 436.706L1155.32 437.77ZM1098.05 396.731C1114.99 412.354 1135.36 425.19 1155.32 437.77L1155.99 436.706C1136.01 424.114 1115.74 411.338 1098.91 395.807L1098.05 396.731ZM1049.97 332.344C1064.19 355.29 1078.92 379.076 1098.05 396.731L1098.91 395.807C1079.92 378.289 1065.28 354.66 1051.04 331.682L1049.97 332.344ZM1044.94 324.236C1046.61 326.92 1048.29 329.627 1049.97 332.344L1051.04 331.682C1049.36 328.965 1047.68 326.257 1046 323.57L1044.94 324.236Z" fill="#94C8B2" mask="url(#path-1-inside-1_1654_16834)"/>
</mask>
<g mask="url(#mask0_1654_16834)">
<path d="M957.148 173.141L937.154 896.959M1311.13 531.272L591.463 531.272M1212.87 275.028L679.858 774.888M1209.18 783.832L674.071 270.293M1133.41 843.289L759.837 213.993M1305.22 433.405L606.016 629.139M1041.34 879.069L857.525 184.897M1299.68 628.613L606.016 433.405M830.868 867.938L1060.28 184.897M1267.06 703.329L641.975 347.639M766.149 838.554L1129.69 218.693M1311.13 562.316L594.487 500.228M900.848 890.118L993.454 173.141M1186.03 807.51L703.537 250.298M659.864 743.844L1235.49 301.336M1101.85 856.186L792.985 203.995M625.136 676.494L1274.43 369.212M1008.19 886.435L891.377 177.906M595.619 595.991L1305.22 465.514M625.136 391.311L1290.74 669.128M738.263 820.664L1156.17 235.298M649.341 308.177L1253.38 734.899M1305.22 594.938L595.619 467.606M866.121 883.659L1025.55 177.906M1159.2 824.874L728.793 228.725M638.817 715.431L1256.01 330.802M1071.85 871.176L827.777 194.516M771.369 590.203L1290.74 399.73M971.881 893.275L923.474 173.141M594.487 562.842L1311.13 499.702M792.984 854.339L1101.85 204.469M703.009 805.931L1184.98 253.981M811.927 408.163L1233.39 760.155" stroke="#333333" stroke-width="0.628623"/>
</g>
<path d="M851.676 319.499L851.668 319.497L851.661 319.496C825.72 315.918 799.058 326.178 779.503 343.604C759.95 361.03 747.462 385.66 749.936 410.866C751.142 423.529 752.685 436.288 754.233 449.084L754.233 449.086C757.507 476.161 760.801 503.397 760.967 530.278C761.119 554.943 757.333 580.16 753.585 605.117L753.585 605.12C751.868 616.548 750.16 627.922 748.844 639.156H748.844L748.844 639.162C746.387 664.184 755.959 691.891 773.651 712.42C791.348 732.954 817.195 746.332 847.294 742.634L847.294 742.634L847.307 742.632C858.348 740.821 869.677 738.45 881.135 736.051L881.144 736.049C908.294 730.364 936.165 724.531 962.781 725.602C986.77 726.567 1011.16 731.343 1035.28 736.064C1046.24 738.212 1057.15 740.348 1067.93 742.106L1067.94 742.107C1119.84 748.773 1177.31 703.046 1171.29 639.689L1171.29 639.676C1169.76 628.549 1167.79 617.25 1165.8 605.88L1165.8 605.878C1161.39 580.681 1156.93 555.139 1157.08 530.278C1157.23 505.782 1161.93 480.636 1166.56 455.835L1166.56 455.83C1168.66 444.601 1170.74 433.444 1172.38 422.458L1172.38 422.458L1172.38 422.444C1175.94 388.126 1161.49 360.716 1139.64 342.791C1117.81 324.874 1088.56 316.427 1062.48 320.023L1062.48 320.024L1062.47 320.026C1052.48 321.917 1042.34 324.218 1032.13 326.535L1032.12 326.536C1009.1 331.76 985.7 337.067 962.781 337.989C936.918 339.03 909.812 332.664 883.508 326.483L883.504 326.482C872.708 323.946 862.048 321.441 851.676 319.499ZM760.789 416.296L760.788 416.295C758.465 392.627 770.191 369.442 788.634 353.005C807.076 336.57 832.192 326.922 856.586 330.284C866.409 332.124 876.506 334.496 886.749 336.903L886.772 336.908C911.7 342.765 937.489 348.824 962.114 347.833C983.917 346.956 1006.16 341.909 1027.99 336.957L1028.01 336.953C1037.7 334.755 1047.3 332.575 1056.76 330.784C1081.32 327.399 1108.89 335.357 1129.48 352.25C1150.06 369.137 1163.66 394.943 1160.32 427.268C1158.76 437.676 1156.79 448.248 1154.8 458.901L1154.8 458.916C1150.4 482.427 1145.94 506.331 1145.8 529.628C1145.65 553.272 1149.89 577.552 1154.07 601.439L1154.07 601.454L1154.07 601.457C1155.96 612.242 1157.83 622.948 1159.28 633.487C1164.94 693.161 1110.81 736.246 1061.93 729.973C1051.72 728.307 1041.38 726.283 1030.98 724.246L1030.96 724.244C1008.11 719.768 984.922 715.228 962.114 714.31C936.783 713.291 910.275 718.841 884.542 724.229L884.521 724.233C873.648 726.509 862.913 728.757 852.454 730.472C824.146 733.948 799.82 721.373 783.139 702.017C766.453 682.656 757.44 656.536 759.751 632.985C760.998 622.341 762.617 611.561 764.246 600.718L764.248 600.705C767.801 577.043 771.4 553.078 771.255 529.628C771.098 504.09 767.969 478.221 764.864 452.546L764.863 452.537C763.394 440.397 761.931 428.3 760.789 416.296Z" fill="white" stroke="#333333" stroke-width="0.628623"/>
<path d="M1032.81 304.3L1032.8 304.294L1032.8 304.288C1016.98 283.41 990.868 271.808 964.711 270.303C938.556 268.798 912.302 277.386 896.224 296.965C888.12 306.774 880.187 316.89 872.232 327.034L872.231 327.036C855.396 348.502 838.462 370.096 819.567 389.226C802.229 406.78 781.714 421.938 761.412 436.938L761.411 436.939C752.113 443.809 742.859 450.646 733.983 457.661L733.978 457.665C714.543 473.625 701.716 499.993 699.709 527.026C697.703 554.067 706.522 581.811 730.427 600.484L730.426 600.484L730.437 600.492C739.528 607.022 749.221 613.359 759.023 619.767L759.026 619.769C782.25 634.952 806.089 650.538 824.157 670.121C840.442 687.772 854.318 708.404 868.032 728.797C874.27 738.072 880.474 747.298 886.853 756.164L886.859 756.172C918.859 797.601 991.846 805.903 1032.4 756.836L1032.4 756.836L1032.41 756.826C1039.2 747.875 1045.79 738.487 1052.43 729.041L1052.43 729.034C1067.14 708.096 1082.04 686.872 1099.74 669.397C1117.17 652.178 1138.28 637.714 1159.09 623.448C1168.52 616.988 1177.89 610.57 1186.82 603.958L1186.82 603.958L1186.83 603.949C1213.62 582.191 1222.79 552.586 1220.01 524.456C1217.24 496.336 1202.53 469.677 1181.54 453.776L1181.54 453.771L1181.53 453.767C1173.13 448.042 1164.33 442.497 1155.47 436.912L1155.46 436.909C1135.48 424.316 1115.18 411.522 1098.31 395.963C1079.29 378.407 1064.62 354.731 1050.38 331.755L1050.38 331.749C1044.54 322.32 1038.77 313.01 1032.81 304.3ZM900.06 308.481L900.06 308.48C915.157 290.097 939.85 281.991 964.521 283.411C989.189 284.83 1013.78 295.771 1028.65 315.403C1034.3 323.652 1039.76 332.471 1045.31 341.418L1045.32 341.439C1058.81 363.212 1072.76 385.738 1090.88 402.455C1106.92 417.256 1126.23 429.42 1145.17 441.357L1145.18 441.365C1153.59 446.664 1161.93 451.917 1169.88 457.341C1189.65 472.317 1203.52 497.445 1206.13 523.956C1208.75 550.458 1200.11 578.33 1174.89 598.827C1166.43 605.089 1157.55 611.169 1148.61 617.296L1148.61 617.298L1148.6 617.307C1128.86 630.83 1108.79 644.579 1092.21 660.956C1075.39 677.576 1061.22 697.752 1047.28 717.602L1047.27 717.614C1040.97 726.577 1034.72 735.473 1028.29 743.954C990.091 790.166 921.327 782.35 891.191 743.339C885.148 734.941 879.27 726.199 873.353 717.402L873.352 717.399L873.345 717.39C860.343 698.055 847.155 678.445 831.672 661.664C814.476 643.026 791.801 628.202 769.789 613.812L769.772 613.8C760.472 607.72 751.29 601.718 742.679 595.533C720.197 577.969 711.886 551.869 713.778 526.381C715.67 500.884 727.77 476.034 746.062 461.012C754.473 454.365 763.242 447.885 772.064 441.368L772.074 441.36C791.323 427.138 810.819 412.733 827.303 396.044C845.254 377.87 861.338 357.36 877.302 337.004L877.308 336.996C884.856 327.371 892.377 317.78 900.06 308.481Z" fill="white" stroke="#333333" stroke-width="0.628794"/>
<g opacity="0.66">
<mask id="mask1_1654_16834" style="mask-type:alpha" maskUnits="userSpaceOnUse" x="576" y="145" width="772" height="771">
<mask id="path-6-inside-2_1654_16834" fill="white">
<path fill-rule="evenodd" clip-rule="evenodd" d="M945.999 165.497C878.481 122.023 771.058 153.59 745.386 226.829C739.393 243.766 733.744 261.002 728.109 278.308C715.773 279.829 703.63 281.434 691.872 283.395C613.388 300.397 559.751 398.677 593.386 468.618C600.553 483.635 608.11 498.624 615.743 513.644C608.876 524.095 602.121 534.527 595.685 544.988C556.502 611.425 577.257 724.033 665.748 752.647C678.267 756.145 691.224 759.304 704.378 762.4C706.958 774.882 709.603 787.27 712.503 799.445C731.774 874.13 826.076 939.079 908.882 896.74C920.994 889.919 933.184 882.469 945.486 874.838C955.091 881.774 964.678 888.6 974.295 895.133C1042.21 937.97 1151.76 911.491 1184.36 819.434C1187.81 808.212 1191.03 796.745 1194.18 785.162C1205.51 783.329 1216.75 781.43 1227.81 779.317C1306.12 761.584 1364.86 665.396 1322.82 577.252C1317.48 567.174 1311.83 557.089 1306.04 546.971C1313.2 536.871 1320.23 526.799 1326.89 516.703C1381.16 425.787 1317.39 326.803 1240.16 303.088C1232.22 301.079 1224.15 299.2 1216 297.378C1213.99 285.572 1211.89 273.875 1209.54 262.406C1183.63 159.739 1068.54 134.845 997.167 172.682C989.561 177.216 981.951 181.967 974.322 186.823C964.828 179.422 955.403 172.214 945.999 165.497ZM974.322 186.823C968.475 190.545 962.617 194.329 956.739 198.126C926.204 217.848 895.136 237.915 862.43 251.382C825.505 266.587 782.87 271.711 741.577 276.675C737.069 277.217 732.576 277.757 728.109 278.308C727.602 279.863 727.096 281.419 726.589 282.975C713.595 322.902 700.513 363.097 683.289 400.769C667.479 435.35 645.807 468.136 624.383 500.546C621.494 504.918 618.608 509.283 615.743 513.644C617.092 516.298 618.443 518.954 619.795 521.61C638.839 559.031 658.011 596.703 672.47 635.521C685.743 671.153 693.602 709.661 701.371 747.727C702.371 752.628 703.37 757.521 704.378 762.4C708.65 763.405 712.943 764.404 717.248 765.406C758.835 775.083 801.599 785.033 838.133 803.831C871.043 820.765 902.038 843.287 932.636 865.52C936.926 868.637 941.208 871.749 945.486 874.838C948.424 873.015 951.369 871.183 954.32 869.345C990.569 846.781 1027.84 823.579 1066.97 811.038C1102.21 799.741 1140.06 793.75 1177.41 787.835C1183.02 786.948 1188.61 786.063 1194.18 785.162C1195.66 779.693 1197.14 774.199 1198.61 768.692C1208.81 730.658 1219.16 692.051 1235.53 657.39C1251.65 623.237 1274.55 591.136 1297.11 559.518C1300.1 555.328 1303.08 551.148 1306.04 546.971C1303.06 541.755 1300.04 536.53 1297.02 531.294C1277.34 497.189 1257.35 462.572 1244.42 426.489C1231.67 390.935 1225.17 352.044 1218.76 313.737C1217.84 308.268 1216.93 302.811 1216 297.378C1208.58 295.719 1201.1 294.109 1193.58 292.492C1158.05 284.847 1121.89 277.068 1089.24 263.464C1052.38 248.105 1018.61 221.581 985.898 195.892C982.025 192.851 978.168 189.821 974.322 186.823Z"/>
</mask>
<path fill-rule="evenodd" clip-rule="evenodd" d="M945.999 165.497C878.481 122.023 771.058 153.59 745.386 226.829C739.393 243.766 733.744 261.002 728.109 278.308C715.773 279.829 703.63 281.434 691.872 283.395C613.388 300.397 559.751 398.677 593.386 468.618C600.553 483.635 608.11 498.624 615.743 513.644C608.876 524.095 602.121 534.527 595.685 544.988C556.502 611.425 577.257 724.033 665.748 752.647C678.267 756.145 691.224 759.304 704.378 762.4C706.958 774.882 709.603 787.27 712.503 799.445C731.774 874.13 826.076 939.079 908.882 896.74C920.994 889.919 933.184 882.469 945.486 874.838C955.091 881.774 964.678 888.6 974.295 895.133C1042.21 937.97 1151.76 911.491 1184.36 819.434C1187.81 808.212 1191.03 796.745 1194.18 785.162C1205.51 783.329 1216.75 781.43 1227.81 779.317C1306.12 761.584 1364.86 665.396 1322.82 577.252C1317.48 567.174 1311.83 557.089 1306.04 546.971C1313.2 536.871 1320.23 526.799 1326.89 516.703C1381.16 425.787 1317.39 326.803 1240.16 303.088C1232.22 301.079 1224.15 299.2 1216 297.378C1213.99 285.572 1211.89 273.875 1209.54 262.406C1183.63 159.739 1068.54 134.845 997.167 172.682C989.561 177.216 981.951 181.967 974.322 186.823C964.828 179.422 955.403 172.214 945.999 165.497ZM974.322 186.823C968.475 190.545 962.617 194.329 956.739 198.126C926.204 217.848 895.136 237.915 862.43 251.382C825.505 266.587 782.87 271.711 741.577 276.675C737.069 277.217 732.576 277.757 728.109 278.308C727.602 279.863 727.096 281.419 726.589 282.975C713.595 322.902 700.513 363.097 683.289 400.769C667.479 435.35 645.807 468.136 624.383 500.546C621.494 504.918 618.608 509.283 615.743 513.644C617.092 516.298 618.443 518.954 619.795 521.61C638.839 559.031 658.011 596.703 672.47 635.521C685.743 671.153 693.602 709.661 701.371 747.727C702.371 752.628 703.37 757.521 704.378 762.4C708.65 763.405 712.943 764.404 717.248 765.406C758.835 775.083 801.599 785.033 838.133 803.831C871.043 820.765 902.038 843.287 932.636 865.52C936.926 868.637 941.208 871.749 945.486 874.838C948.424 873.015 951.369 871.183 954.32 869.345C990.569 846.781 1027.84 823.579 1066.97 811.038C1102.21 799.741 1140.06 793.75 1177.41 787.835C1183.02 786.948 1188.61 786.063 1194.18 785.162C1195.66 779.693 1197.14 774.199 1198.61 768.692C1208.81 730.658 1219.16 692.051 1235.53 657.39C1251.65 623.237 1274.55 591.136 1297.11 559.518C1300.1 555.328 1303.08 551.148 1306.04 546.971C1303.06 541.755 1300.04 536.53 1297.02 531.294C1277.34 497.189 1257.35 462.572 1244.42 426.489C1231.67 390.935 1225.17 352.044 1218.76 313.737C1217.84 308.268 1216.93 302.811 1216 297.378C1208.58 295.719 1201.1 294.109 1193.58 292.492C1158.05 284.847 1121.89 277.068 1089.24 263.464C1052.38 248.105 1018.61 221.581 985.898 195.892C982.025 192.851 978.168 189.821 974.322 186.823Z" fill="#D9D9D9" fill-opacity="0.5"/>
<path d="M745.386 226.829L746.299 227.152L746.3 227.149L745.386 226.829ZM945.999 165.497L946.562 164.71L946.543 164.696L946.523 164.684L945.999 165.497ZM691.872 283.395L691.713 282.44L691.69 282.444L691.667 282.449L691.872 283.395ZM593.386 468.618L594.259 468.201L594.258 468.198L593.386 468.618ZM595.685 544.988L594.86 544.481L594.856 544.488L594.851 544.496L595.685 544.988ZM665.748 752.647L665.45 753.568L665.469 753.574L665.488 753.579L665.748 752.647ZM712.503 799.445L711.561 799.669L711.563 799.678L711.565 799.687L712.503 799.445ZM908.882 896.74L909.323 897.601L909.34 897.593L909.357 897.583L908.882 896.74ZM974.295 895.133L973.751 895.934L973.765 895.943L973.778 895.952L974.295 895.133ZM1184.36 819.434L1185.27 819.758L1185.28 819.738L1185.28 819.719L1184.36 819.434ZM1227.81 779.317L1227.99 780.268L1228.01 780.265L1228.02 780.261L1227.81 779.317ZM1322.82 577.252L1323.7 576.835L1323.69 576.817L1323.68 576.799L1322.82 577.252ZM1326.89 516.703L1327.7 517.236L1327.71 517.218L1327.72 517.199L1326.89 516.703ZM1240.16 303.088L1240.45 302.163L1240.42 302.155L1240.4 302.149L1240.16 303.088ZM1209.54 262.406L1210.49 262.212L1210.48 262.191L1210.48 262.169L1209.54 262.406ZM997.167 172.682L996.714 171.827L996.692 171.838L996.671 171.851L997.167 172.682ZM956.739 198.126L956.213 197.313L956.739 198.126ZM862.43 251.382L862.798 252.277L862.43 251.382ZM741.577 276.675L741.693 277.636L741.577 276.675ZM726.589 282.975L727.51 283.274L726.589 282.975ZM683.289 400.769L684.17 401.171L683.289 400.769ZM624.383 500.546L625.191 501.08L625.191 501.08L624.383 500.546ZM619.795 521.61L620.658 521.171L619.795 521.61ZM672.47 635.521L671.563 635.859L672.47 635.521ZM701.371 747.727L702.319 747.534L701.371 747.727ZM717.248 765.406L717.029 766.348L717.248 765.406ZM838.133 803.831L838.576 802.971L838.133 803.831ZM932.636 865.52L933.205 864.737L932.636 865.52ZM954.32 869.345L953.809 868.524L954.32 869.345ZM1066.97 811.038L1066.67 810.117L1066.97 811.038ZM1177.41 787.835L1177.56 788.791L1177.41 787.835ZM1198.61 768.692L1199.55 768.943L1198.61 768.692ZM1235.53 657.39L1234.65 656.977L1235.53 657.39ZM1297.11 559.518L1296.32 558.956L1297.11 559.518ZM1297.02 531.294L1297.86 530.81L1297.02 531.294ZM1244.42 426.489L1245.33 426.162L1244.42 426.489ZM1218.76 313.737L1217.8 313.896L1218.76 313.737ZM1193.58 292.492L1193.38 293.438L1193.58 292.492ZM1089.24 263.464L1088.87 264.357L1089.24 263.464ZM985.898 195.892L985.3 196.654L985.3 196.654L985.898 195.892ZM746.3 227.149C759.008 190.895 791.989 164.871 830.28 153.323C868.568 141.775 911.999 144.757 945.475 166.311L946.523 164.684C912.481 142.764 868.441 139.792 829.721 151.469C791.003 163.146 757.437 189.525 744.473 226.509L746.3 227.149ZM729.029 278.607C734.665 261.301 740.31 244.076 746.299 227.152L744.474 226.506C738.476 243.456 732.824 260.702 727.188 278.008L729.029 278.607ZM692.031 284.35C703.769 282.392 715.896 280.789 728.227 279.268L727.99 277.347C715.651 278.869 703.491 280.476 691.713 282.44L692.031 284.35ZM594.258 468.198C577.608 433.576 582.527 391.854 601.437 356.612C620.346 321.373 653.164 292.771 692.077 284.341L691.667 282.449C652.096 291.021 618.854 320.06 599.731 355.697C580.611 391.331 575.528 433.718 592.513 469.037L594.258 468.198ZM616.606 513.206C608.973 498.187 601.421 483.206 594.259 468.201L592.512 469.035C599.685 484.063 607.247 499.062 614.88 514.083L616.606 513.206ZM596.509 545.495C602.938 535.047 609.687 524.624 616.552 514.176L614.934 513.113C608.065 523.567 601.304 534.008 594.86 544.481L596.509 545.495ZM666.046 751.726C622.167 737.537 595.052 702.524 583.77 662.737C572.481 622.928 577.076 578.445 596.518 545.48L594.851 544.496C575.11 577.968 570.491 623.007 581.907 663.265C593.329 703.544 620.838 739.142 665.45 753.568L666.046 751.726ZM704.6 761.457C691.449 758.362 678.508 755.208 666.009 751.715L665.488 753.579C678.027 757.083 690.999 760.245 704.156 763.342L704.6 761.457ZM713.444 799.221C710.548 787.06 707.905 774.683 705.326 762.204L703.43 762.596C706.011 775.081 708.658 787.48 711.561 799.669L713.444 799.221ZM908.441 895.878C867.382 916.872 823.451 911.287 787.339 891.131C751.208 870.965 723.002 836.261 713.44 799.203L711.565 799.687C721.275 837.314 749.856 872.427 786.395 892.821C822.954 913.227 867.577 918.947 909.323 897.601L908.441 895.878ZM944.976 874.015C932.676 881.645 920.5 889.086 908.407 895.896L909.357 897.583C921.488 890.751 933.693 883.293 945.996 875.661L944.976 874.015ZM974.839 894.332C965.234 887.807 955.655 880.987 946.053 874.053L944.919 875.623C954.528 882.561 964.123 889.393 973.751 895.934L974.839 894.332ZM1183.45 819.111C1151.07 910.535 1042.24 936.848 974.811 894.314L973.778 895.952C1042.18 939.093 1152.45 912.446 1185.27 819.758L1183.45 819.111ZM1193.24 784.907C1190.09 796.486 1186.88 807.943 1183.43 819.15L1185.28 819.719C1188.74 808.482 1191.96 797.003 1195.11 785.416L1193.24 784.907ZM1227.63 778.366C1216.58 780.477 1205.35 782.374 1194.02 784.206L1194.33 786.117C1205.66 784.284 1216.91 782.383 1227.99 780.268L1227.63 778.366ZM1321.95 577.669C1363.7 665.208 1305.36 760.766 1227.6 778.373L1228.02 780.261C1306.89 762.402 1366.03 665.585 1323.7 576.835L1321.95 577.669ZM1305.2 547.452C1310.98 557.566 1316.64 567.641 1321.97 577.705L1323.68 576.799C1318.33 566.708 1312.67 556.612 1306.88 546.491L1305.2 547.452ZM1326.08 516.17C1319.43 526.253 1312.41 536.315 1305.25 546.412L1306.83 547.531C1313.99 537.428 1321.03 527.345 1327.7 517.236L1326.08 516.17ZM1239.88 304.013C1278.22 315.787 1313.26 346.27 1331.97 385.115C1350.65 423.931 1353.01 471.059 1326.06 516.207L1327.72 517.199C1355.04 471.432 1352.65 423.61 1333.71 384.275C1314.79 344.97 1279.33 314.103 1240.45 302.163L1239.88 304.013ZM1215.79 298.322C1223.94 300.143 1232 302.021 1239.92 304.026L1240.4 302.149C1232.45 300.138 1224.37 298.256 1216.21 296.433L1215.79 298.322ZM1208.59 262.601C1210.94 274.055 1213.03 285.739 1215.05 297.541L1216.96 297.215C1214.94 285.404 1212.84 273.696 1210.49 262.212L1208.59 262.601ZM997.62 173.537C1033.06 154.752 1079.39 151.526 1120.08 165.769C1160.75 180.001 1195.74 211.659 1208.6 262.643L1210.48 262.169C1197.44 210.486 1161.93 178.364 1120.72 163.941C1079.55 149.53 1032.65 152.775 996.714 171.827L997.62 173.537ZM974.842 187.64C982.467 182.786 990.067 178.041 997.663 173.514L996.671 171.851C989.054 176.392 981.436 181.148 973.802 186.007L974.842 187.64ZM945.436 166.285C954.824 172.99 964.236 180.188 973.727 187.587L974.917 186.06C965.419 178.656 955.983 171.438 946.562 164.71L945.436 166.285ZM957.264 198.939C963.143 195.142 968.998 191.36 974.842 187.64L973.802 186.007C967.952 189.731 962.091 193.516 956.213 197.313L957.264 198.939ZM862.798 252.277C895.601 238.77 926.744 218.652 957.264 198.939L956.213 197.313C925.664 217.045 894.671 237.06 862.061 250.487L862.798 252.277ZM741.693 277.636C782.956 272.676 825.729 267.541 862.798 252.277L862.061 250.487C825.28 265.632 782.783 270.747 741.462 275.714L741.693 277.636ZM728.227 279.268C732.693 278.718 737.184 278.178 741.693 277.636L741.462 275.714C736.953 276.256 732.459 276.796 727.99 277.347L728.227 279.268ZM727.51 283.274C728.016 281.718 728.523 280.163 729.029 278.607L727.188 278.008C726.682 279.563 726.175 281.119 725.669 282.675L727.51 283.274ZM684.17 401.171C701.421 363.44 714.518 323.192 727.51 283.274L725.669 282.675C712.671 322.612 699.606 362.753 682.409 400.366L684.17 401.171ZM625.191 501.08C646.606 468.682 668.322 435.832 684.17 401.171L682.409 400.366C666.635 434.867 645.007 467.59 623.576 500.013L625.191 501.08ZM616.552 514.176C619.417 509.816 622.301 505.452 625.191 501.08L623.576 500.013C620.686 504.384 617.8 508.75 614.934 513.113L616.552 514.176ZM620.658 521.171C619.306 518.514 617.954 515.86 616.606 513.206L614.88 514.083C616.229 516.737 617.58 519.393 618.932 522.049L620.658 521.171ZM673.377 635.183C658.895 596.305 639.697 558.583 620.658 521.171L618.932 522.049C637.981 559.479 657.127 597.102 671.563 635.859L673.377 635.183ZM702.319 747.534C694.553 709.481 686.681 670.898 673.377 635.183L671.563 635.859C684.805 671.408 692.651 709.84 700.422 747.921L702.319 747.534ZM705.326 762.204C704.318 757.326 703.319 752.434 702.319 747.534L700.422 747.921C701.422 752.821 702.421 757.715 703.43 762.596L705.326 762.204ZM717.467 764.463C713.162 763.461 708.87 762.463 704.6 761.457L704.156 763.342C708.43 764.348 712.724 765.347 717.029 766.348L717.467 764.463ZM838.576 802.971C801.916 784.108 759.03 774.134 717.467 764.463L717.029 766.348C758.641 776.031 801.282 785.959 837.69 804.692L838.576 802.971ZM933.205 864.737C902.618 842.512 871.563 819.945 838.576 802.971L837.69 804.692C870.523 821.586 901.457 844.062 932.067 866.303L933.205 864.737ZM946.053 874.053C941.776 870.965 937.495 867.854 933.205 864.737L932.067 866.303C936.357 869.42 940.64 872.532 944.919 875.623L946.053 874.053ZM953.809 868.524C950.857 870.361 947.913 872.193 944.976 874.015L945.996 875.661C948.935 873.837 951.88 872.004 954.832 870.167L953.809 868.524ZM1066.67 810.117C1027.41 822.7 990.036 845.973 953.809 868.524L954.832 870.167C991.103 847.589 1028.27 824.457 1067.26 811.96L1066.67 810.117ZM1177.26 786.879C1139.92 792.792 1102 798.793 1066.67 810.117L1067.26 811.96C1102.43 800.69 1140.19 794.708 1177.56 788.791L1177.26 786.879ZM1194.02 784.206C1188.45 785.107 1182.86 785.992 1177.26 786.879L1177.56 788.791C1183.17 787.904 1188.76 787.018 1194.33 786.117L1194.02 784.206ZM1197.68 768.442C1196.2 773.948 1194.73 779.441 1193.24 784.907L1195.11 785.416C1196.6 779.945 1198.07 774.449 1199.55 768.943L1197.68 768.442ZM1234.65 656.977C1218.24 691.73 1207.87 730.424 1197.68 768.442L1199.55 768.943C1209.75 730.892 1220.08 692.372 1236.4 657.803L1234.65 656.977ZM1296.32 558.956C1273.78 590.56 1250.82 622.731 1234.65 656.977L1236.4 657.803C1252.49 623.742 1275.33 591.712 1297.9 560.08L1296.32 558.956ZM1305.25 546.412C1302.29 550.586 1299.31 554.766 1296.32 558.956L1297.9 560.08C1300.89 555.891 1303.87 551.709 1306.83 547.531L1305.25 546.412ZM1296.18 531.777C1299.21 537.015 1302.22 542.238 1305.2 547.452L1306.88 546.491C1303.9 541.273 1300.88 536.046 1297.86 530.81L1296.18 531.777ZM1243.51 426.815C1256.48 462.995 1276.51 497.688 1296.18 531.777L1297.86 530.81C1278.17 496.69 1258.23 462.149 1245.33 426.162L1243.51 426.815ZM1217.8 313.896C1224.21 352.186 1230.73 391.165 1243.51 426.815L1245.33 426.162C1232.62 390.704 1226.13 351.901 1219.71 313.577L1217.8 313.896ZM1215.05 297.541C1215.98 302.972 1216.89 308.427 1217.8 313.896L1219.71 313.577C1218.8 308.109 1217.89 302.65 1216.96 297.215L1215.05 297.541ZM1193.38 293.438C1200.89 295.055 1208.38 296.665 1215.79 298.322L1216.21 296.433C1208.79 294.774 1201.3 293.162 1193.79 291.546L1193.38 293.438ZM1088.87 264.357C1121.61 278.001 1157.86 285.797 1193.38 293.438L1193.79 291.546C1158.23 283.897 1122.16 276.134 1089.61 262.57L1088.87 264.357ZM985.3 196.654C1017.98 222.324 1051.86 248.938 1088.87 264.357L1089.61 262.57C1052.89 247.271 1019.23 220.838 986.496 195.131L985.3 196.654ZM973.727 187.587C977.571 190.584 981.427 193.612 985.3 196.654L986.496 195.131C982.623 192.09 978.765 189.059 974.917 186.06L973.727 187.587Z" fill="#94C8B2" mask="url(#path-6-inside-2_1654_16834)"/>
</mask>
<g mask="url(#mask1_1654_16834)">
<path d="M766.897 15.4753L1120.55 1072.83M1468.11 346.309L427.332 726.686M1190.57 27.6659L683.931 1032.28M1454.17 765.444L408.86 305.596M1376.02 891.478L503.137 178.844M1407.85 207.894L500.107 860.529M1261.76 991.891L629.036 85.1329M1503.01 493.132L396.652 577.458M951.503 1087.03L922.255 -22.0312M1495.32 618.429L403.324 434.419M842.377 1078.75L1040.5 -9.84241M1484.52 391.205L415.298 680.192M1064.43 1082.12L819.402 -3.71394M1433.2 811.924L440.905 261.106M638.607 997.954L1237.19 53.7546M1337.19 926.813L545.792 146.865M552.788 918.908L1329.38 131.336M1217.72 1020.06L674.297 57.1296M467.55 818.085L1424.82 254.33M402.055 506.477L1511.49 556.453M792.591 1067.61L1087.58 0.173181M393.12 373.455L1492.22 671.316M1493.22 441.503L399.692 632.415M1010.8 1091.14L868.338 -13.7871M1403.57 851.218L466.028 216.559M593.152 967.987L1282.44 85.5213M1301.73 964.346L591.098 114.767M718.66 716.823L1369.1 166.85M1168.83 1049.15L718.196 33.274M448.392 770.744L1451.42 300.653M889.528 1087.39L992.727 -15.7013M733.821 1064.94L1139.11 11.9677M681.099 432.121L1476.66 718.409" stroke="#333333" stroke-width="0.967927"/>
</g>
<path d="M691.714 282.871L691.703 282.873L691.692 282.875C652.285 291.412 619.149 320.341 600.08 355.879C581.012 391.414 575.97 433.635 592.871 468.78C601.308 486.456 610.283 504.093 619.284 521.78L619.286 521.782C638.332 559.208 657.491 596.856 671.939 635.643C685.196 671.233 693.048 709.704 700.819 747.777L700.819 747.781C704.378 765.216 707.919 782.568 711.954 799.51L711.954 799.51L711.956 799.519C721.629 837.003 750.116 872.014 786.553 892.352C823 912.695 867.45 918.381 909.025 897.123L909.033 897.119L909.042 897.114C924.055 888.659 939.187 879.24 954.491 869.713L954.498 869.709C990.758 847.138 1027.98 823.971 1067.04 811.452C1102.24 800.169 1140.05 794.182 1177.41 788.266L1177.42 788.264C1194.41 785.574 1211.31 782.898 1227.82 779.745L1227.83 779.744L1227.84 779.742C1306.43 761.946 1365.37 665.444 1323.18 576.997L1323.18 576.987L1323.17 576.978C1315.08 561.699 1306.25 546.405 1297.37 531.015L1297.36 531.004C1277.67 496.892 1257.71 462.313 1244.8 426.278C1232.07 390.772 1225.57 351.925 1219.16 313.61L1219.16 313.607C1216.26 296.258 1213.37 279.019 1209.94 262.262L1209.93 262.251L1209.93 262.241C1196.93 210.732 1161.56 178.726 1120.49 164.351C1079.43 149.982 1032.68 153.222 996.862 172.208L996.852 172.213L996.841 172.219C983.399 180.233 969.949 188.92 956.403 197.669L956.398 197.672C925.856 217.399 894.826 237.44 862.168 250.888C825.315 266.063 782.749 271.182 741.442 276.147L741.436 276.148C724.482 278.186 707.742 280.198 691.714 282.871ZM611.436 470.896L611.435 470.895C595.565 437.895 600.268 398.167 618.254 364.648C636.238 331.133 667.461 303.904 704.517 295.873C719.694 293.342 735.551 291.436 751.636 289.503L751.673 289.498C790.818 284.793 831.317 279.925 866.406 265.476C897.474 252.684 926.977 233.628 955.929 214.928L955.949 214.915C968.8 206.614 981.542 198.384 994.275 190.793C1028 172.918 1072.08 169.855 1110.78 183.403C1149.48 196.946 1182.78 227.079 1195.03 275.595C1198.28 291.468 1201.02 307.802 1203.77 324.259L1203.77 324.26L1203.77 324.282C1209.85 360.606 1216.03 397.535 1228.13 431.303C1240.42 465.573 1259.39 498.443 1278.06 530.781L1278.07 530.803C1286.5 545.405 1294.86 559.899 1302.53 574.375C1342.26 657.684 1286.74 748.607 1212.73 765.37C1197.09 768.357 1181.07 770.893 1164.95 773.446L1164.93 773.449C1129.5 779.058 1093.58 784.747 1060.11 795.475C1022.93 807.389 987.533 829.426 953.166 850.818L953.136 850.837C938.615 859.875 924.279 868.799 910.059 876.808C870.957 896.797 829.131 891.468 794.777 872.293C760.412 853.112 733.572 820.101 724.466 784.821C720.643 768.767 717.287 752.322 713.911 735.78L713.907 735.76C706.54 699.663 699.078 663.102 686.474 629.265C672.748 592.416 654.551 556.658 636.489 521.168L636.483 521.155C627.943 504.374 619.433 487.653 611.436 470.896Z" fill="white" stroke="#333333" stroke-width="0.967927"/>
<path d="M945.637 165.151L945.628 165.144L945.618 165.138C911.708 143.304 867.809 140.329 829.186 151.977C790.565 163.624 757.136 189.921 744.232 226.733C737.697 245.202 731.571 264.024 725.428 282.899L725.427 282.904C712.427 322.847 699.35 363.026 682.135 400.679C666.338 435.229 644.682 467.993 623.249 500.418L623.247 500.422C613.431 515.271 603.663 530.048 594.534 544.885L594.53 544.893C574.858 578.247 570.244 623.159 581.631 663.316C593.022 703.483 620.439 738.944 664.88 753.315L664.89 753.317L664.899 753.32C681.499 757.959 698.865 762 716.429 766.087L716.434 766.088C758.045 775.77 800.759 785.712 837.239 804.483C870.119 821.401 901.093 843.906 931.705 866.149L931.708 866.151C945.63 876.268 959.478 886.33 973.388 895.779L973.394 895.784L973.401 895.788C1041.58 938.789 1151.52 912.218 1184.24 819.821L1184.24 819.812L1184.24 819.802C1189.33 803.269 1193.9 786.205 1198.5 769.035L1198.51 769.03C1208.71 730.976 1219.05 692.402 1235.4 657.778C1251.51 623.661 1274.39 591.588 1296.96 559.954L1296.96 559.946C1307.18 545.625 1317.33 531.393 1326.75 517.113L1326.76 517.104L1326.76 517.094C1354 471.469 1351.62 423.808 1332.74 384.592C1313.86 345.392 1278.5 314.612 1239.74 302.71L1239.73 302.706L1239.72 302.703C1224.54 298.863 1208.88 295.494 1193.11 292.102L1193.11 292.101C1157.55 284.452 1121.43 276.679 1088.82 263.091C1052.02 247.758 1018.29 221.272 985.565 195.568L985.56 195.564C972.128 185.014 958.864 174.597 945.637 165.151ZM755.866 241.361L755.867 241.36C767.983 206.795 799.409 182.021 835.839 171.034C872.263 160.049 913.606 162.874 945.497 183.403C958.022 192.349 970.585 202.216 983.329 212.225L983.359 212.248C1014.37 236.607 1046.46 261.809 1081.5 276.408C1112.52 289.334 1146.87 296.723 1180.57 303.975L1180.6 303.98C1195.56 307.198 1210.39 310.39 1224.77 314.027C1261.26 325.239 1294.6 354.248 1312.4 391.207C1330.19 428.152 1332.43 473.023 1306.78 516C1297.85 529.529 1288.23 543.015 1278.54 556.603L1278.53 556.622C1257.13 586.612 1235.38 617.1 1220.06 649.547C1204.51 682.476 1194.68 719.145 1185.01 755.221L1185 755.242C1180.64 771.532 1176.3 787.701 1171.49 803.364C1140.66 890.387 1037.08 915.428 972.883 874.94C959.704 865.986 946.581 856.451 933.373 846.854L933.359 846.844C904.335 825.754 874.899 804.365 843.637 788.28C808.918 770.415 768.291 760.961 728.852 751.784L728.819 751.777C712.156 747.899 695.704 744.071 679.982 739.678C638.186 726.16 612.372 692.807 601.636 654.946C590.896 617.072 595.261 574.74 613.775 543.346C622.425 529.287 631.683 515.282 640.995 501.194L641.006 501.177C661.327 470.434 681.909 439.298 696.927 406.45C713.282 370.678 725.702 332.516 738.029 294.639L738.034 294.625C743.863 276.716 749.671 258.87 755.866 241.361Z" fill="white" stroke="#333333" stroke-width="0.96819"/>
</g>
<g opacity="0.34">
<mask id="mask2_1654_16834" style="mask-type:alpha" maskUnits="userSpaceOnUse" x="387" y="-42" width="1146" height="1145">
<mask id="path-11-inside-3_1654_16834" fill="white">
<path fill-rule="evenodd" clip-rule="evenodd" d="M1120.07 33.5823C1050.77 -57.8886 891.104 -68.2143 820.721 17.4938C804.37 37.2856 788.334 57.6468 772.281 78.1097C754.978 74.1008 737.892 70.2985 721.149 67.1623C607.468 51.4833 487.266 157.083 498.102 267.456C500.355 291.128 503.146 314.955 506.023 338.859C491.679 349.518 477.495 360.207 463.724 371.09C378.543 441.041 351.162 602.364 455.898 684.178C470.986 695.015 486.827 705.61 502.964 716.218C500.305 734.236 497.778 752.159 495.697 769.922C484.928 879.617 579.64 1013.05 711.55 996.842C731.152 993.628 751.167 989.609 771.42 985.402C780.91 999.424 790.43 1013.29 800.133 1026.78C870.276 1117.59 1030.3 1135.78 1119.21 1028.22C1129.35 1014.85 1139.29 1001.03 1149.2 987.03C1165.31 990.127 1181.33 993.092 1197.21 995.684C1311.03 1010.3 1437.05 910.01 1423.86 771.08C1421.64 754.935 1418.99 738.624 1416.19 722.207C1430.75 712.163 1445.12 702.091 1459.02 691.809C1576.46 596.407 1539.42 432.264 1447.4 362.553C1437.73 355.963 1427.82 349.482 1417.77 343.039C1420.86 326.202 1423.79 309.475 1426.26 292.927C1441.85 142.419 1299.58 52.5497 1185.22 68.3225C1172.79 70.6773 1160.24 73.321 1147.62 76.0972C1138.51 61.5067 1129.4 47.2093 1120.07 33.5823ZM1147.62 76.0972C1137.95 78.2243 1128.23 80.4291 1118.48 82.6413C1067.82 94.1342 1016.28 105.828 965.774 107.86C908.755 110.154 849.017 96.1186 791.159 82.5248C784.842 81.0406 778.547 79.5616 772.281 78.1097C770.838 79.9495 769.394 81.79 767.95 83.6311C730.924 130.847 693.649 178.379 652.051 220.494C613.867 259.152 568.696 292.527 524.043 325.519C518.021 329.969 512.008 334.411 506.023 338.859C506.531 343.082 507.043 347.309 507.554 351.537C514.758 411.105 522.011 471.073 522.377 530.267C522.712 584.602 514.371 640.143 506.126 695.046C505.064 702.115 504.004 709.174 502.964 716.218C508.204 719.663 513.476 723.109 518.762 726.565C569.834 759.954 622.35 794.286 662.164 837.438C698.029 876.311 728.583 921.743 758.745 966.594C762.973 972.882 767.194 979.157 771.42 985.402C776.259 984.397 781.111 983.381 785.975 982.362C845.697 969.859 907.108 957.001 965.774 959.361C1018.62 961.488 1072.35 972.009 1125.39 982.395C1133.35 983.953 1141.29 985.507 1149.2 987.03C1153.88 980.42 1158.55 973.77 1163.24 967.104C1195.58 921.056 1228.41 874.315 1267.38 835.822C1305.78 797.893 1352.26 766.041 1398.05 734.667C1404.11 730.51 1410.17 726.361 1416.19 722.207C1414.75 713.742 1413.26 705.25 1411.77 696.737C1402.08 641.306 1392.24 585.042 1392.58 530.267C1392.92 476.294 1403.26 420.904 1413.45 366.345C1414.9 358.557 1416.36 350.787 1417.77 343.039C1408.63 337.173 1399.37 331.339 1390.08 325.483C1346.13 297.789 1301.42 269.611 1264.27 235.336C1222.33 196.64 1190.01 144.474 1158.71 93.9506C1155 87.9681 1151.31 82.0086 1147.62 76.0972Z"/>
</mask>
<path fill-rule="evenodd" clip-rule="evenodd" d="M1120.07 33.5823C1050.77 -57.8886 891.104 -68.2143 820.721 17.4938C804.37 37.2856 788.334 57.6468 772.281 78.1097C754.978 74.1008 737.892 70.2985 721.149 67.1623C607.468 51.4833 487.266 157.083 498.102 267.456C500.355 291.128 503.146 314.955 506.023 338.859C491.679 349.518 477.495 360.207 463.724 371.09C378.543 441.041 351.162 602.364 455.898 684.178C470.986 695.015 486.827 705.61 502.964 716.218C500.305 734.236 497.778 752.159 495.697 769.922C484.928 879.617 579.64 1013.05 711.55 996.842C731.152 993.628 751.167 989.609 771.42 985.402C780.91 999.424 790.43 1013.29 800.133 1026.78C870.276 1117.59 1030.3 1135.78 1119.21 1028.22C1129.35 1014.85 1139.29 1001.03 1149.2 987.03C1165.31 990.127 1181.33 993.092 1197.21 995.684C1311.03 1010.3 1437.05 910.01 1423.86 771.08C1421.64 754.935 1418.99 738.624 1416.19 722.207C1430.75 712.163 1445.12 702.091 1459.02 691.809C1576.46 596.407 1539.42 432.264 1447.4 362.553C1437.73 355.963 1427.82 349.482 1417.77 343.039C1420.86 326.202 1423.79 309.475 1426.26 292.927C1441.85 142.419 1299.58 52.5497 1185.22 68.3225C1172.79 70.6773 1160.24 73.321 1147.62 76.0972C1138.51 61.5067 1129.4 47.2093 1120.07 33.5823ZM1147.62 76.0972C1137.95 78.2243 1128.23 80.4291 1118.48 82.6413C1067.82 94.1342 1016.28 105.828 965.774 107.86C908.755 110.154 849.017 96.1186 791.159 82.5248C784.842 81.0406 778.547 79.5616 772.281 78.1097C770.838 79.9495 769.394 81.79 767.95 83.6311C730.924 130.847 693.649 178.379 652.051 220.494C613.867 259.152 568.696 292.527 524.043 325.519C518.021 329.969 512.008 334.411 506.023 338.859C506.531 343.082 507.043 347.309 507.554 351.537C514.758 411.105 522.011 471.073 522.377 530.267C522.712 584.602 514.371 640.143 506.126 695.046C505.064 702.115 504.004 709.174 502.964 716.218C508.204 719.663 513.476 723.109 518.762 726.565C569.834 759.954 622.35 794.286 662.164 837.438C698.029 876.311 728.583 921.743 758.745 966.594C762.973 972.882 767.194 979.157 771.42 985.402C776.259 984.397 781.111 983.381 785.975 982.362C845.697 969.859 907.108 957.001 965.774 959.361C1018.62 961.488 1072.35 972.009 1125.39 982.395C1133.35 983.953 1141.29 985.507 1149.2 987.03C1153.88 980.42 1158.55 973.77 1163.24 967.104C1195.58 921.056 1228.41 874.315 1267.38 835.822C1305.78 797.893 1352.26 766.041 1398.05 734.667C1404.11 730.51 1410.17 726.361 1416.19 722.207C1414.75 713.742 1413.26 705.25 1411.77 696.737C1402.08 641.306 1392.24 585.042 1392.58 530.267C1392.92 476.294 1403.26 420.904 1413.45 366.345C1414.9 358.557 1416.36 350.787 1417.77 343.039C1408.63 337.173 1399.37 331.339 1390.08 325.483C1346.13 297.789 1301.42 269.611 1264.27 235.336C1222.33 196.64 1190.01 144.474 1158.71 93.9506C1155 87.9681 1151.31 82.0086 1147.62 76.0972Z" fill="#D9D9D9" fill-opacity="0.5"/>
<path d="M820.721 17.4938L821.787 18.3748L821.79 18.3716L820.721 17.4938ZM1120.07 33.5823L1121.21 32.801L1121.19 32.7736L1121.17 32.747L1120.07 33.5823ZM721.149 67.1623L721.403 65.8028L721.371 65.7967L721.338 65.7921L721.149 67.1623ZM498.102 267.456L499.479 267.325L499.479 267.321L498.102 267.456ZM463.724 371.09L462.866 370.005L462.856 370.013L462.846 370.021L463.724 371.09ZM455.898 684.178L455.047 685.268L455.069 685.285L455.091 685.301L455.898 684.178ZM495.697 769.922L494.324 769.761L494.322 769.774L494.321 769.787L495.697 769.922ZM711.55 996.842L711.719 998.215L711.747 998.211L711.774 998.207L711.55 996.842ZM800.133 1026.78L799.01 1027.58L799.024 1027.6L799.039 1027.62L800.133 1026.78ZM1119.21 1028.22L1120.28 1029.1L1120.3 1029.08L1120.32 1029.05L1119.21 1028.22ZM1197.21 995.684L1196.99 997.049L1197.02 997.053L1197.04 997.056L1197.21 995.684ZM1423.86 771.08L1425.24 770.949L1425.23 770.92L1425.23 770.891L1423.86 771.08ZM1459.02 691.809L1459.84 692.921L1459.86 692.902L1459.89 692.882L1459.02 691.809ZM1447.4 362.553L1448.23 361.45L1448.2 361.429L1448.18 361.41L1447.4 362.553ZM1426.26 292.927L1427.62 293.131L1427.63 293.1L1427.63 293.069L1426.26 292.927ZM1185.22 68.3225L1185.03 66.9523L1185 66.957L1184.97 66.9635L1185.22 68.3225ZM1118.48 82.6413L1118.17 81.2924L1118.48 82.6413ZM965.774 107.86L965.829 109.242L965.774 107.86ZM791.159 82.5248L790.843 83.8714L791.159 82.5248ZM767.95 83.6311L766.862 82.7776L767.95 83.6311ZM652.051 220.494L651.067 219.522L652.051 220.494ZM524.043 325.519L523.221 324.407L524.043 325.519ZM507.554 351.537L508.927 351.371L507.554 351.537ZM522.377 530.267L520.994 530.275L522.377 530.267ZM506.126 695.046L507.494 695.252L506.126 695.046ZM518.762 726.565L519.519 725.408L518.762 726.565ZM662.164 837.438L661.147 838.376L662.164 837.438ZM758.745 966.594L757.598 967.366L758.745 966.594ZM785.975 982.362L785.691 981.009L785.975 982.362ZM965.774 959.361L965.718 960.744L965.774 959.361ZM1125.39 982.395L1125.13 983.752L1125.39 982.395ZM1163.24 967.104L1162.1 966.309L1163.24 967.104ZM1267.38 835.822L1268.35 836.806L1267.38 835.822ZM1398.05 734.667L1398.83 735.808L1398.05 734.667ZM1411.77 696.737L1410.41 696.975L1411.77 696.737ZM1392.58 530.267L1391.2 530.258L1392.58 530.267ZM1413.45 366.345L1414.81 366.599L1413.45 366.345ZM1390.08 325.483L1389.34 326.653L1390.08 325.483ZM1264.27 235.336L1263.33 236.353L1264.27 235.336ZM1158.71 93.9506L1157.53 94.679L1158.71 93.9506ZM821.79 18.3716C856.631 -24.0554 913.663 -42.8066 970.722 -39.5231C1027.78 -36.2399 1084.61 -10.9341 1118.97 34.4176L1121.17 32.747C1086.23 -13.3722 1028.58 -38.9647 970.881 -42.285C913.187 -45.605 855.194 -26.6651 819.652 16.616L821.79 18.3716ZM773.369 78.9634C789.422 58.5002 805.448 38.1515 821.787 18.3748L819.655 16.6128C803.291 36.4196 787.245 56.7934 771.193 77.256L773.369 78.9634ZM720.894 68.5219C737.608 71.6525 754.672 75.4496 771.969 79.4572L772.593 76.7622C755.285 72.752 738.176 68.9444 721.403 65.8028L720.894 68.5219ZM499.479 267.321C494.115 212.684 521.183 159.097 563.852 121.072C606.518 83.0498 664.596 60.7588 720.96 68.5326L721.338 65.7921C664.02 57.8868 605.158 80.556 562.011 119.007C518.868 157.455 491.253 211.855 496.726 267.591L499.479 267.321ZM507.396 338.693C504.519 314.791 501.731 290.979 499.479 267.325L496.725 267.587C498.98 291.278 501.772 315.119 504.65 339.024L507.396 338.693ZM464.581 372.176C478.336 361.305 492.508 350.626 506.848 339.969L505.198 337.749C490.85 348.411 476.653 359.109 462.866 370.005L464.581 372.176ZM456.75 683.088C404.816 642.52 385.598 582.225 389.971 523.288C394.347 464.32 422.336 406.868 464.602 372.159L462.846 370.021C419.931 405.263 391.638 463.449 387.213 523.083C382.785 582.749 402.245 644.022 455.047 685.268L456.75 683.088ZM503.724 715.062C487.591 704.457 471.769 693.875 456.705 683.055L455.091 685.301C470.203 696.156 486.063 706.763 502.204 717.374L503.724 715.062ZM497.071 770.083C499.149 752.341 501.674 734.434 504.333 716.42L501.596 716.016C498.936 734.039 496.407 751.978 494.324 769.761L497.071 770.083ZM711.382 995.469C645.973 1003.51 589.749 974.46 551.167 929.693C512.564 884.901 491.73 824.486 497.074 770.057L494.321 769.787C488.895 825.052 510.032 886.201 549.071 931.499C588.13 976.82 645.217 1006.39 711.719 998.215L711.382 995.469ZM771.139 984.047C750.889 988.254 730.897 992.268 711.327 995.477L711.774 998.207C731.406 994.988 751.445 990.964 771.702 986.756L771.139 984.047ZM801.256 1025.97C791.564 1012.5 782.053 998.645 772.566 984.626L770.275 986.177C779.768 1000.2 789.296 1014.08 799.01 1027.58L801.256 1025.97ZM1118.15 1027.34C1029.85 1134.16 870.873 1116.1 801.228 1025.93L799.039 1027.62C869.679 1119.08 1030.76 1137.4 1120.28 1029.1L1118.15 1027.34ZM1148.08 986.231C1138.17 1000.23 1128.24 1014.03 1118.11 1027.38L1120.32 1029.05C1130.47 1015.67 1140.42 1001.84 1150.33 987.829L1148.08 986.231ZM1197.44 994.319C1181.57 991.73 1165.56 988.767 1149.47 985.671L1148.94 988.388C1165.05 991.486 1181.09 994.454 1196.99 997.049L1197.44 994.319ZM1422.48 771.21C1435.58 909.187 1310.39 1008.82 1197.39 994.312L1197.04 997.056C1311.66 1011.77 1438.52 910.834 1425.24 770.949L1422.48 771.21ZM1414.83 722.44C1417.63 738.85 1420.27 755.145 1422.49 771.268L1425.23 770.891C1423 754.725 1420.36 738.398 1417.55 721.974L1414.83 722.44ZM1458.19 690.697C1444.32 700.966 1429.96 711.027 1415.4 721.068L1416.98 723.346C1431.54 713.298 1445.93 703.217 1459.84 692.921L1458.19 690.697ZM1446.56 363.655C1492.25 398.266 1524.33 456.371 1530.38 517.683C1536.42 578.948 1516.47 643.359 1458.14 690.735L1459.89 692.882C1519.01 644.857 1539.26 579.495 1533.13 517.411C1527.01 455.374 1494.57 396.551 1448.23 361.45L1446.56 363.655ZM1417.03 344.203C1427.07 350.642 1436.96 357.116 1446.62 363.696L1448.18 361.41C1438.49 354.811 1428.57 348.322 1418.52 341.875L1417.03 344.203ZM1424.89 292.723C1422.42 309.249 1419.5 325.958 1416.41 342.79L1419.14 343.288C1422.22 326.445 1425.15 309.702 1427.62 293.131L1424.89 292.723ZM1185.41 69.6928C1242.19 61.8618 1305.96 80.2607 1353.59 119.339C1401.19 158.387 1432.62 218.043 1424.88 292.784L1427.63 293.069C1435.48 217.303 1403.58 156.77 1355.35 117.2C1307.15 77.6597 1242.62 59.0104 1185.03 66.9523L1185.41 69.6928ZM1147.92 77.4481C1160.53 74.6735 1173.06 72.0329 1185.48 69.6816L1184.97 66.9635C1172.51 69.3217 1159.95 71.9685 1147.32 74.7463L1147.92 77.4481ZM1118.93 34.3636C1128.24 47.9667 1137.34 62.2448 1146.45 76.8299L1148.79 75.3645C1139.68 60.7686 1130.55 46.452 1121.21 32.801L1118.93 34.3636ZM1118.79 83.9902C1128.54 81.7778 1138.25 79.574 1147.92 77.4481L1147.32 74.7463C1137.65 76.8745 1127.92 79.0803 1118.17 81.2924L1118.79 83.9902ZM965.829 109.242C1016.48 107.204 1068.15 95.4775 1118.79 83.9902L1118.17 81.2924C1067.49 92.7908 1016.07 104.452 965.718 106.478L965.829 109.242ZM790.843 83.8714C848.66 97.4555 908.588 111.545 965.829 109.242L965.718 106.478C908.922 108.763 849.374 94.7816 791.476 81.1783L790.843 83.8714ZM771.969 79.4572C778.233 80.9085 784.525 82.387 790.843 83.8714L791.476 81.1783C785.159 79.6941 778.862 78.2147 772.593 76.7622L771.969 79.4572ZM769.039 84.4847C770.483 82.6436 771.926 80.8031 773.369 78.9634L771.193 77.256C769.749 79.0958 768.306 80.9365 766.862 82.7776L769.039 84.4847ZM653.035 221.466C694.698 179.285 732.021 131.689 769.039 84.4847L766.862 82.7776C729.826 130.004 692.599 177.473 651.067 219.522L653.035 221.466ZM524.865 326.632C569.501 293.652 614.762 260.214 653.035 221.466L651.067 219.522C612.972 258.09 567.89 291.402 523.221 324.407L524.865 326.632ZM506.848 339.969C512.831 335.523 518.842 331.081 524.865 326.632L523.221 324.407C517.199 328.856 511.185 333.3 505.198 337.749L506.848 339.969ZM508.927 351.371C508.416 347.142 507.905 342.917 507.396 338.693L504.65 339.024C505.158 343.248 505.669 347.475 506.181 351.703L508.927 351.371ZM523.76 530.258C523.394 470.972 516.13 410.925 508.927 351.371L506.181 351.703C513.387 411.285 520.629 471.174 520.994 530.275L523.76 530.258ZM507.494 695.252C515.736 640.369 524.096 584.72 523.76 530.258L520.994 530.275C521.328 584.485 513.006 639.917 504.758 694.841L507.494 695.252ZM504.333 716.42C505.372 709.378 506.432 702.321 507.494 695.252L504.758 694.841C503.696 701.91 502.636 708.97 501.596 716.016L504.333 716.42ZM519.519 725.408C514.232 721.951 508.962 718.506 503.724 715.062L502.204 717.374C507.446 720.82 512.719 724.267 518.005 727.723L519.519 725.408ZM663.18 836.501C623.229 793.2 570.56 758.776 519.519 725.408L518.005 727.723C569.108 761.132 621.471 795.373 661.147 838.376L663.18 836.501ZM759.893 965.823C729.742 920.988 699.13 875.465 663.18 836.501L661.147 838.376C696.928 877.157 727.423 922.498 757.598 967.366L759.893 965.823ZM772.566 984.626C768.341 978.384 764.121 972.11 759.893 965.823L757.598 967.366C761.825 973.653 766.047 979.93 770.275 986.177L772.566 984.626ZM785.691 981.009C780.828 982.027 775.976 983.043 771.139 984.047L771.702 986.756C776.541 985.751 781.395 984.734 786.258 983.716L785.691 981.009ZM965.829 957.979C906.961 955.611 845.377 968.512 785.691 981.009L786.258 983.716C846.017 971.205 907.255 958.391 965.718 960.744L965.829 957.979ZM1125.66 981.038C1072.64 970.655 1018.8 960.111 965.829 957.979L965.718 960.744C1018.44 962.865 1072.07 973.362 1125.13 983.752L1125.66 981.038ZM1149.47 985.671C1141.55 984.149 1133.61 982.595 1125.66 981.038L1125.13 983.752C1133.08 985.31 1141.02 986.865 1148.94 988.388L1149.47 985.671ZM1162.1 966.309C1157.42 972.975 1152.75 979.624 1148.08 986.231L1150.33 987.829C1155.01 981.217 1159.69 974.564 1164.37 967.899L1162.1 966.309ZM1266.41 834.838C1227.33 873.433 1194.43 920.281 1162.1 966.309L1164.37 967.899C1196.72 921.83 1229.48 875.196 1268.35 836.806L1266.41 834.838ZM1397.26 733.526C1351.5 764.886 1304.91 796.806 1266.41 834.838L1268.35 836.806C1306.65 798.979 1353.02 767.196 1398.83 735.808L1397.26 733.526ZM1415.4 721.068C1409.38 725.221 1403.33 729.369 1397.26 733.526L1398.83 735.808C1404.89 731.651 1410.95 727.501 1416.98 723.346L1415.4 721.068ZM1410.41 696.975C1411.9 705.488 1413.38 713.978 1414.83 722.44L1417.55 721.974C1416.11 713.506 1414.62 705.011 1413.14 696.499L1410.41 696.975ZM1391.2 530.258C1390.86 585.18 1400.72 641.569 1410.41 696.975L1413.14 696.499C1403.44 641.044 1393.63 584.905 1393.97 530.275L1391.2 530.258ZM1412.09 366.091C1401.91 420.626 1391.53 476.14 1391.2 530.258L1393.97 530.275C1394.3 476.448 1404.62 421.182 1414.81 366.599L1412.09 366.091ZM1416.41 342.79C1415 350.535 1413.55 358.303 1412.09 366.091L1414.81 366.599C1416.26 358.812 1417.72 351.039 1419.14 343.288L1416.41 342.79ZM1389.34 326.653C1398.63 332.509 1407.89 338.341 1417.03 344.203L1418.52 341.875C1409.37 336.005 1400.11 330.168 1390.81 324.312L1389.34 326.653ZM1263.33 236.353C1300.59 270.729 1345.41 298.972 1389.34 326.653L1390.81 324.312C1346.85 296.605 1302.24 268.493 1265.2 234.319L1263.33 236.353ZM1157.53 94.679C1188.81 145.167 1221.22 197.505 1263.33 236.353L1265.2 234.319C1223.43 195.774 1191.21 143.781 1159.89 93.2221L1157.53 94.679ZM1146.45 76.8299C1150.14 82.7388 1153.83 88.6961 1157.53 94.679L1159.89 93.2221C1156.18 87.24 1152.49 81.2784 1148.79 75.3645L1146.45 76.8299Z" fill="#94C8B2" mask="url(#path-11-inside-3_1654_16834)"/>
</mask>
<g mask="url(#mask2_1654_16834)">
<path d="M953.266 -255.637L909.271 1337.02M1732.14 532.377L148.629 532.377M1515.93 -31.449L343.129 1068.42M1507.83 1088.1L330.396 -41.8688M1341.11 1218.93L519.11 -165.748M1719.16 317.035L180.652 747.72M1138.51 1297.65L734.06 -229.769M1706.96 746.562L180.652 317.035M675.405 1273.16L1180.19 -229.769M1635.18 910.963L259.773 128.321M533.001 1208.51L1332.92 -155.405M1732.14 600.685L155.283 464.07M829.386 1321.97L1033.15 -255.637M1456.89 1140.2L395.231 -85.8634M299.134 1000.11L1565.72 26.4388M1271.66 1247.3L592.049 -187.746M222.723 851.917L1651.39 175.789M1065.57 1313.86L808.546 -245.152M157.774 674.781L1719.16 387.686M222.723 224.415L1687.28 835.709M471.64 1169.14L1391.19 -118.868M275.982 41.4895L1605.08 980.428M1719.16 672.466L157.774 392.289M752.974 1307.75L1103.77 -245.152M1397.84 1178.4L450.803 -133.331M252.824 937.591L1610.87 91.273M1205.66 1280.29L668.603 -208.604M544.486 662.046L1687.28 242.939M985.683 1328.91L879.169 -255.637M155.283 601.843L1732.14 462.912M592.046 1243.24L1271.67 -186.704M394.07 1136.73L1454.57 -77.7591M633.728 261.495L1561.09 1036" stroke="#333333" stroke-width="1.38319"/>
</g>
<path d="M721.182 66.3735L721.166 66.3705L721.149 66.3682C664.07 58.4957 605.404 81.0704 562.378 119.414C519.353 157.757 491.875 211.952 497.32 267.414C499.972 295.277 503.368 323.352 506.773 351.506L506.773 351.511C513.979 411.086 521.226 471.015 521.591 530.162C521.926 584.434 513.595 639.921 505.348 694.834L505.347 694.84C501.57 719.988 497.812 745.014 494.917 769.732H494.917L494.915 769.745C489.51 824.802 510.571 885.767 549.501 930.938C588.441 976.121 645.312 1005.56 711.541 997.419L711.555 997.417L711.568 997.415C735.868 993.431 760.8 988.211 786.016 982.932L786.023 982.93C845.763 970.422 907.088 957.587 965.652 959.943C1018.44 962.067 1072.11 972.576 1125.17 982.965L1125.17 982.965C1149.3 987.69 1173.3 992.389 1197.01 996.258L1197.02 996.259L1197.03 996.261C1311.25 1010.93 1437.69 910.313 1424.45 770.905L1424.45 770.891L1424.45 770.876C1421.08 746.394 1416.73 721.531 1412.36 696.513L1412.36 696.51C1402.67 641.066 1392.84 584.865 1393.18 530.162C1393.51 476.262 1403.84 420.933 1414.04 366.362L1414.04 366.344C1418.65 341.64 1423.24 317.091 1426.85 292.92L1426.85 292.905L1426.85 292.889C1434.67 217.379 1402.89 157.065 1354.82 117.626C1306.76 78.2009 1242.42 59.6142 1185.03 67.5284L1185.02 67.5307L1185 67.534C1163.03 71.6953 1140.71 76.7579 1118.24 81.8566L1118.23 81.8578C1067.56 93.3534 1016.08 105.031 965.652 107.06C908.744 109.35 849.101 95.3411 791.224 81.7425L791.215 81.7404C767.46 76.1593 744.005 70.6483 721.182 66.3735ZM521.198 279.361L521.198 279.359C516.085 227.282 541.886 176.266 582.469 140.099C623.047 103.937 678.311 82.7073 731.988 90.1047C753.6 94.1533 775.818 99.3733 798.355 104.668L798.407 104.681C853.256 117.568 910.001 130.9 964.185 128.72C1012.16 126.79 1061.11 115.685 1109.14 104.788L1109.17 104.78C1130.49 99.9432 1151.63 95.1472 1172.44 91.2052C1226.48 83.7577 1287.14 101.268 1332.45 138.438C1377.74 175.595 1407.66 232.378 1400.3 303.502C1396.88 326.404 1392.54 349.668 1388.16 373.109L1388.15 373.144C1378.49 424.876 1368.67 477.471 1368.35 528.732C1368.03 580.756 1377.37 634.181 1386.56 686.742L1386.56 686.775C1390.71 710.509 1394.83 734.067 1398.02 757.259C1410.48 888.564 1291.36 983.365 1183.81 969.561C1161.34 965.896 1138.6 961.443 1115.72 956.962L1115.71 956.961L1115.68 956.955C1065.38 947.106 1014.37 937.117 964.185 935.098C908.448 932.855 850.122 945.067 793.501 956.921L793.453 956.932C769.53 961.94 745.91 966.885 722.896 970.659C660.607 978.308 607.083 950.638 570.378 908.049C533.663 865.447 513.831 807.974 518.916 756.155C521.66 732.732 525.222 709.013 528.805 685.154L528.809 685.126C536.628 633.062 544.548 580.331 544.229 528.732C543.882 472.54 536.998 415.62 530.165 359.125L530.163 359.105C526.932 332.392 523.713 305.775 521.198 279.361Z" fill="white" stroke="#333333" stroke-width="1.38319"/>
<path d="M1119.74 32.9375L1119.73 32.9237L1119.72 32.9105C1084.92 -13.0293 1027.46 -38.5571 969.903 -41.869C912.353 -45.1808 854.585 -26.2834 819.209 16.7947C801.377 38.3784 783.921 60.6377 766.416 82.9596L766.413 82.9637C729.371 130.198 692.11 177.711 650.534 219.804C612.384 258.428 567.245 291.781 522.572 324.788L522.568 324.791C502.109 339.907 481.75 354.95 462.219 370.385L462.209 370.393C419.444 405.512 391.22 463.529 386.806 523.013C382.39 582.513 401.795 643.558 454.394 684.646L454.405 684.654L454.416 684.662C474.421 699.031 495.747 712.974 517.316 727.074L517.323 727.079C568.424 760.486 620.877 794.782 660.633 837.872C696.466 876.709 726.999 922.108 757.175 966.98C770.9 987.388 784.552 1007.69 798.587 1027.2L798.594 1027.2L798.601 1027.21C869.012 1118.37 1029.61 1136.64 1118.85 1028.67L1118.86 1028.66L1118.87 1028.65C1133.8 1008.95 1148.31 988.292 1162.91 967.503L1162.92 967.502C1195.27 921.43 1228.08 874.73 1267.01 836.278C1305.37 798.39 1351.81 766.564 1397.61 735.175L1397.63 735.164C1418.37 720.954 1438.97 706.834 1458.62 692.29L1458.63 692.28L1458.65 692.271C1517.59 644.394 1537.76 579.253 1531.66 517.356C1525.56 455.483 1493.19 396.824 1447.01 361.837L1446.99 361.826L1446.98 361.816C1428.49 349.217 1409.13 337.015 1389.63 324.725L1389.62 324.723C1345.65 297.014 1300.98 268.862 1263.88 234.628C1222.01 195.997 1189.73 143.903 1158.41 93.3484L1158.41 93.3395C1145.55 72.5911 1132.86 52.1033 1119.74 32.9375ZM827.647 42.1365L827.648 42.1349C860.866 1.68484 915.198 -16.1503 969.483 -13.0265C1023.76 -9.90303 1077.86 14.1689 1110.6 57.3662C1123.02 75.5164 1135.04 94.9231 1147.24 114.609L1147.27 114.655C1176.95 162.564 1207.65 212.13 1247.52 248.912C1282.82 281.479 1325.29 308.244 1366.97 334.51L1367 334.528L1367 334.53C1385.5 346.188 1403.85 357.748 1421.36 369.68C1464.84 402.633 1495.36 457.923 1501.12 516.258C1506.87 574.572 1487.87 635.899 1432.36 680.998C1413.74 694.779 1394.21 708.16 1374.54 721.643L1374.51 721.661C1331.09 751.418 1286.94 781.671 1250.46 817.705C1213.43 854.275 1182.25 898.67 1151.57 942.346L1151.56 942.372C1137.7 962.094 1123.95 981.67 1109.81 1000.33C1025.75 1102.01 874.444 1084.81 808.133 998.979C794.836 980.496 781.899 961.26 768.879 941.9L768.866 941.88C740.255 899.336 711.238 856.188 677.169 819.263C639.332 778.253 589.44 745.636 541.006 713.972L540.967 713.946C520.503 700.568 500.299 687.36 481.352 673.75C431.886 635.104 413.599 577.676 417.761 521.592C421.924 465.491 448.548 410.814 488.796 377.759C507.304 363.132 526.6 348.875 546.01 334.534L546.033 334.517C588.388 303.222 631.286 271.527 667.556 234.806C707.056 194.816 742.446 149.687 777.572 104.896L777.584 104.88C794.193 83.7008 810.743 62.5972 827.647 42.1365Z" fill="white" stroke="#333333" stroke-width="1.38357"/>
</g>
</g>
</svg>
