<svg width="315" height="635" viewBox="0 0 315 635" fill="none" xmlns="http://www.w3.org/2000/svg">
<path fill-rule="evenodd" clip-rule="evenodd" d="M201 430.622C211.744 432.208 225.743 433.167 241.053 433.167C274.911 433.167 302.359 428.475 302.359 422.686C302.359 422.06 302.038 421.446 301.422 420.85C300.889 420.335 300.137 419.833 299.181 419.347C300.126 419.538 301.034 419.734 301.904 419.934C310.162 421.838 315 424.148 315 426.638V441.806C315 447.915 281.869 452.867 241 452.867C226.264 452.867 212.534 452.223 201 451.113V450.109C212.514 451.22 226.246 451.867 241 451.867C261.401 451.867 279.849 450.63 293.178 448.638C299.85 447.641 305.196 446.461 308.852 445.169C310.686 444.521 312.035 443.865 312.907 443.228C313.807 442.571 314 442.085 314 441.806V426.638C314 426.335 313.842 425.908 313.243 425.354C312.645 424.801 311.705 424.216 310.394 423.624C308.531 422.782 306.031 421.972 302.966 421.216C303.213 421.665 303.359 422.156 303.359 422.686C303.359 423.836 302.676 424.796 301.755 425.566C300.824 426.344 299.512 427.048 297.916 427.693C294.717 428.986 290.146 430.13 284.572 431.083C273.406 432.992 258.021 434.167 241.053 434.167C225.778 434.167 211.786 433.215 201 431.632V430.622ZM201 183.933C211.134 181.649 225.307 180.23 240.993 180.23C271.797 180.23 296.768 185.701 296.77 192.449V196.116V197.254C296.453 197.065 296.118 196.902 295.77 196.769C295.051 196.494 294.272 196.344 293.457 196.344C289.879 196.344 286.979 199.244 286.979 202.822V242.648V243.648H286.98V244.648V402.038C286.98 405.616 289.88 408.516 293.458 408.516C294.274 408.516 295.054 408.366 295.773 408.091C296.122 407.957 296.456 407.794 296.773 407.605V408.743V412.418C296.773 419.166 271.801 424.637 240.996 424.637C225.309 424.637 211.134 423.218 201 420.934V419.909C201.254 419.967 201.511 420.024 201.77 420.081C211.775 422.273 225.644 423.637 240.996 423.637C256.349 423.637 270.218 422.273 280.222 420.081C285.233 418.983 289.22 417.69 291.93 416.286C293.286 415.584 294.273 414.879 294.909 414.198C295.54 413.522 295.773 412.93 295.773 412.418V409.151C295.044 409.388 294.265 409.516 293.458 409.516C289.328 409.516 285.98 406.168 285.98 402.038V244.648H285.979V243.648V202.822C285.979 198.692 289.327 195.344 293.457 195.344C294.263 195.344 295.041 195.472 295.77 195.709V192.449C295.769 191.937 295.537 191.345 294.905 190.669C294.269 189.988 293.282 189.284 291.926 188.581C289.216 187.177 285.229 185.884 280.218 184.786C270.214 182.594 256.345 181.23 240.993 181.23C225.641 181.23 211.772 182.595 201.768 184.786C201.509 184.843 201.253 184.9 201 184.958V183.933ZM201 153.754C212.534 152.644 226.264 152 241 152C281.869 152 315 156.952 315 163.06V178.231C315 180.722 310.159 183.033 301.894 184.937C301.021 185.138 300.109 185.335 299.161 185.527C300.121 185.04 300.877 184.537 301.413 184.021C302.035 183.422 302.359 182.806 302.359 182.176C302.359 176.388 274.911 171.695 241.053 171.695C225.743 171.695 211.744 172.655 201 174.241V173.23C211.786 171.648 225.778 170.695 241.053 170.695C258.021 170.695 273.406 171.871 284.572 173.779C290.146 174.733 294.717 175.876 297.916 177.17C299.512 177.814 300.824 178.519 301.755 179.297C302.676 180.066 303.359 181.027 303.359 182.176C303.359 182.709 303.211 183.203 302.962 183.654C306.026 182.898 308.525 182.089 310.389 181.248C311.702 180.655 312.643 180.069 313.241 179.516C313.841 178.962 314 178.534 314 178.231V163.06C314 162.782 313.807 162.296 312.907 161.639C312.035 161.002 310.686 160.346 308.852 159.698C305.196 158.406 299.85 157.226 293.178 156.229C279.849 154.236 261.401 153 241 153C226.246 153 212.514 153.647 201 154.758V153.754ZM201 194.563C202.331 192.497 204.651 191.129 207.291 191.129C211.421 191.129 214.77 194.477 214.77 198.607L214.77 406.252C214.77 410.382 211.422 413.73 207.292 413.73C204.651 413.73 202.331 412.362 201 410.295V407.801C201.695 410.631 204.248 412.73 207.292 412.73C210.87 412.73 213.77 409.829 213.77 406.252L213.77 198.607C213.77 195.029 210.869 192.129 207.291 192.129C204.248 192.129 201.695 194.227 201 197.055V194.563ZM219.51 243.648V244.648H219.512V410.465C219.512 414.595 222.86 417.943 226.99 417.943C231.12 417.943 234.468 414.595 234.468 410.465V270.926V269.926H234.467V194.396C234.467 190.266 231.119 186.918 226.988 186.918C222.858 186.918 219.51 190.266 219.51 194.396V243.648ZM267.334 243.648V244.648H267.335V406.252C267.335 410.382 270.683 413.73 274.813 413.73C278.943 413.73 282.292 410.382 282.292 406.252V270.926V269.926H282.291V198.607C282.291 194.477 278.942 191.129 274.812 191.129C270.682 191.129 267.334 194.477 267.334 198.607V243.648ZM255.115 186.918C250.985 186.918 247.637 190.266 247.637 194.396L247.637 410.465C247.637 414.595 250.985 417.943 255.115 417.943C259.245 417.943 262.593 414.595 262.593 410.465L262.593 194.396C262.593 190.266 259.245 186.918 255.115 186.918ZM220.51 194.396V242.648V243.648H220.512V244.648V410.465C220.512 414.043 223.412 416.943 226.99 416.943C230.568 416.943 233.468 414.043 233.468 410.465V271.926V270.926H233.467V269.926V194.396C233.467 190.818 230.566 187.918 226.988 187.918C223.411 187.918 220.51 190.818 220.51 194.396ZM255.115 187.918C251.537 187.918 248.637 190.818 248.637 194.396L248.637 410.465C248.637 414.043 251.537 416.943 255.115 416.943C258.693 416.943 261.593 414.043 261.593 410.465L261.593 194.396C261.593 190.818 258.693 187.918 255.115 187.918ZM268.334 198.607V242.648V243.648H268.335V244.648V406.252C268.335 409.829 271.235 412.73 274.813 412.73C278.391 412.73 281.292 409.829 281.292 406.252V271.926V270.926H281.291V269.926V198.607C281.291 195.029 278.39 192.129 274.812 192.129C271.234 192.129 268.334 195.029 268.334 198.607Z" fill="black" fill-opacity="0.26"/>
<path d="M248 43.9529V18.5338C248 8.29787 192.483 0 124 0C55.5167 0 0 8.29787 0 18.5338V43.953C0 48.5928 10.0255 52.8592 26.8111 56.2318C23.2757 54.4556 21.3579 52.5515 21.3579 50.5708C21.3579 40.871 67.3518 33.0078 124.088 33.0078C180.824 33.0078 226.818 40.871 226.818 50.5708C226.818 52.5295 224.943 54.4133 221.482 56.1726C238.091 52.8094 248 48.5656 248 43.9529Z" fill="white"/>
<path fill-rule="evenodd" clip-rule="evenodd" d="M30.5303 67.7801V75.9582C32.1961 74.9177 34.1645 74.3164 36.2733 74.3164C42.2686 74.3164 47.1288 79.1766 47.1288 85.1719L47.1287 548.992C47.1287 554.987 42.2685 559.847 36.2732 559.847C34.1646 559.847 32.1964 559.246 30.5307 558.206V566.385C30.5307 577.693 72.3756 586.86 123.994 586.86C175.612 586.86 217.457 577.693 217.457 566.385V558.32C215.832 559.29 213.933 559.847 211.903 559.847C205.908 559.847 201.047 554.987 201.047 548.992L201.047 85.1719C201.047 79.1766 205.907 74.3164 211.902 74.3164C213.932 74.3164 215.832 74.8736 217.457 75.8433V67.7801C217.457 56.4719 175.612 47.3047 123.994 47.3047C72.3753 47.3047 30.5303 56.4719 30.5303 67.7801ZM191.516 556.052C191.516 562.047 186.656 566.908 180.66 566.908C174.665 566.908 169.805 562.047 169.805 556.052L169.805 78.1094C169.805 72.1141 174.665 67.2539 180.66 67.2539C186.655 67.2539 191.516 72.1141 191.516 78.1094L191.516 556.052ZM158.508 563.113C158.508 569.108 153.648 573.968 147.652 573.968C141.657 573.968 136.797 569.108 136.797 563.113L136.797 71.0508C136.797 65.0555 141.657 60.1953 147.652 60.1953C153.648 60.1953 158.508 65.0555 158.508 71.0508L158.508 563.113ZM111.379 71.0508C111.379 65.0555 106.519 60.1953 100.523 60.1953C94.528 60.1953 89.6678 65.0555 89.6678 71.0508L89.6682 563.113C89.6682 569.108 94.5284 573.968 100.524 573.968C106.519 573.968 111.379 569.108 111.379 563.113L111.379 71.0508ZM78.371 78.1094C78.371 72.1141 73.5108 67.2539 67.5155 67.2539C61.5201 67.2539 56.66 72.1141 56.66 78.1094L56.6604 556.052C56.6604 562.047 61.5205 566.908 67.5159 566.908C73.5112 566.908 78.3714 562.047 78.3714 556.052L78.371 78.1094Z" fill="white"/>
<path d="M0 590.213V615.63C0 625.866 55.5167 634.164 124 634.164C192.483 634.164 248 625.866 248 615.63V590.213C248 585.601 238.096 581.358 221.493 577.995C224.947 579.753 226.819 581.635 226.819 583.591C226.819 593.291 180.825 601.154 124.088 601.154C67.3519 601.154 21.358 593.291 21.358 583.591C21.358 581.613 23.2719 579.711 26.8003 577.936C10.0212 581.308 0 585.574 0 590.213Z" fill="white"/>
<path d="M247.5 18.5338V43.9529C247.5 44.9132 246.986 45.92 245.853 46.9682C244.72 48.0157 243.017 49.0574 240.764 50.0757C236.805 51.8649 231.235 53.5443 224.313 55.0648C224.89 54.6505 225.391 54.2268 225.808 53.7934C226.765 52.8 227.318 51.7217 227.318 50.5708C227.318 49.1453 226.473 47.8345 225.052 46.6475C223.626 45.4566 221.554 44.3304 218.933 43.2709C213.685 41.15 206.123 39.2505 196.814 37.659C178.188 34.4747 152.476 32.5078 124.088 32.5078C95.7007 32.5078 69.9886 34.4747 51.3626 37.659C42.0536 39.2505 34.4907 41.15 29.2435 43.2709C26.6223 44.3304 24.5499 45.4566 23.1244 46.6475C21.7037 47.8345 20.8579 49.1453 20.8579 50.5708C20.8579 51.7346 21.4236 52.8242 22.4006 53.8269C22.8304 54.268 23.346 54.6991 23.9418 55.1205C16.9481 53.5955 11.3185 51.9093 7.31581 50.1115C5.037 49.088 3.31349 48.0404 2.16715 46.9866C1.01983 45.9319 0.5 44.9188 0.5 43.953V18.5338C0.5 17.4967 1.20532 16.3775 2.81416 15.2024C4.40898 14.0375 6.79289 12.893 9.91113 11.791C16.1415 9.58938 25.1846 7.59816 36.3927 5.92293C58.801 2.57364 89.7752 0.5 124 0.5C158.225 0.5 189.199 2.57364 211.607 5.92293C222.815 7.59816 231.859 9.58938 238.089 11.791C241.207 12.893 243.591 14.0375 245.186 15.2024C246.795 16.3775 247.5 17.4967 247.5 18.5338ZM36.2733 73.8164C34.3828 73.8164 32.5991 74.2788 31.0303 75.0967V67.7801C31.0303 66.5321 31.6054 65.2681 32.7946 63.9949C33.9861 62.7193 35.7678 61.4647 38.1051 60.2541C42.7784 57.8336 49.5735 55.6389 58.0121 53.7902C74.8811 50.0947 98.2094 47.8047 123.994 47.8047C149.778 47.8047 173.106 50.0947 189.975 53.7902C198.414 55.6389 205.209 57.8336 209.882 60.2541C212.22 61.4647 214.001 62.7193 215.193 63.9949C216.382 65.2681 216.957 66.5321 216.957 67.7801V75.0008C215.434 74.2427 213.718 73.8164 211.902 73.8164C205.631 73.8164 200.547 78.9004 200.547 85.1719L200.547 548.992C200.547 555.263 205.631 560.347 211.903 560.347C213.718 560.347 215.435 559.921 216.957 559.163V566.385C216.957 567.633 216.382 568.897 215.193 570.17C214.002 571.445 212.22 572.7 209.883 573.911C205.209 576.331 198.414 578.526 189.976 580.375C173.107 584.07 149.778 586.36 123.994 586.36C98.2097 586.36 74.8814 584.07 58.0124 580.375C49.5739 578.526 42.7787 576.331 38.1054 573.911C35.7682 572.7 33.9864 571.445 32.7949 570.17C31.6057 568.897 31.0307 567.633 31.0307 566.385V559.067C32.5993 559.885 34.3828 560.347 36.2732 560.347C42.5446 560.347 47.6287 555.263 47.6287 548.992L47.6288 85.1719C47.6288 78.9004 42.5448 73.8164 36.2733 73.8164ZM180.66 567.408C186.932 567.408 192.016 562.324 192.016 556.052L192.016 78.1094C192.016 71.838 186.932 66.7539 180.66 66.7539C174.389 66.7539 169.305 71.8379 169.305 78.1094L169.305 556.052C169.305 562.324 174.389 567.408 180.66 567.408ZM147.652 574.468C153.924 574.468 159.008 569.384 159.008 563.113L159.008 71.0508C159.008 64.7794 153.924 59.6953 147.652 59.6953C141.381 59.6953 136.297 64.7793 136.297 71.0508L136.297 563.113C136.297 569.384 141.381 574.468 147.652 574.468ZM111.879 71.0508C111.879 64.7793 106.795 59.6953 100.523 59.6953C94.2518 59.6953 89.1678 64.7794 89.1678 71.0508L89.1682 563.113C89.1682 569.384 94.2522 574.468 100.524 574.468C106.795 574.468 111.879 569.384 111.879 563.113L111.879 71.0508ZM78.871 78.1094C78.871 71.8379 73.787 66.7539 67.5155 66.7539C61.244 66.7539 56.16 71.838 56.16 78.1094L56.1604 556.052C56.1604 562.324 61.2444 567.408 67.5159 567.408C73.7873 567.408 78.8714 562.324 78.8714 556.052L78.871 78.1094ZM0.5 615.63V590.213C0.5 589.247 1.01961 588.234 2.16641 587.18C3.31225 586.126 5.03502 585.079 7.31287 584.055C11.3145 582.258 16.9429 580.571 23.9352 579.046C23.3409 579.467 22.8265 579.898 22.3977 580.338C21.4226 581.34 20.858 582.429 20.858 583.591C20.858 585.017 21.7039 586.328 23.1246 587.515C24.5501 588.706 26.6224 589.832 29.2437 590.891C34.4909 593.012 42.0538 594.912 51.3628 596.503C69.9887 599.687 95.7008 601.654 124.088 601.654C152.476 601.654 178.188 599.687 196.814 596.503C206.123 594.912 213.686 593.012 218.933 590.891C221.554 589.832 223.626 588.706 225.052 587.515C226.473 586.328 227.319 585.017 227.319 583.591C227.319 582.442 226.766 581.364 225.811 580.372C225.395 579.939 224.896 579.516 224.32 579.102C231.241 580.623 236.809 582.302 240.767 584.091C243.019 585.109 244.721 586.151 245.854 587.198C246.986 588.246 247.5 589.253 247.5 590.213V615.63C247.5 616.667 246.795 617.787 245.186 618.962C243.591 620.127 241.207 621.271 238.089 622.373C231.859 624.575 222.815 626.566 211.607 628.241C189.199 631.591 158.225 633.664 124 633.664C89.7752 633.664 58.801 631.591 36.3927 628.241C25.1846 626.566 16.1415 624.575 9.91113 622.373C6.79289 621.271 4.40898 620.127 2.81416 618.962C1.20532 617.787 0.5 616.667 0.5 615.63Z" stroke="black" stroke-opacity="0.26"/>
</svg>
