<svg width="315" height="635" viewBox="0 0 315 635" fill="none" xmlns="http://www.w3.org/2000/svg">
<path fill-rule="evenodd" clip-rule="evenodd" d="M114 430.622C103.256 432.208 89.2573 433.167 73.9473 433.167C40.0885 433.167 12.6406 428.475 12.6406 422.686C12.6406 422.06 12.9621 421.446 13.5784 420.85C14.1108 420.335 14.8632 419.833 15.8185 419.347C14.8742 419.538 13.9661 419.734 13.096 419.934C4.8376 421.838 0 424.148 0 426.638V441.806C0 447.915 33.1309 452.867 74 452.867C88.7362 452.867 102.466 452.223 114 451.113V450.109C102.486 451.22 88.7539 451.867 74 451.867C53.5991 451.867 35.1508 450.63 21.8219 448.638C15.1498 447.641 9.80424 446.461 6.14847 445.169C4.31444 444.521 2.96506 443.865 2.09325 443.228C1.19342 442.571 1 442.085 1 441.806V426.638C1 426.335 1.15837 425.908 1.75739 425.354C2.35486 424.801 3.29486 424.216 4.60574 423.624C6.46883 422.782 8.96851 421.972 12.0336 421.216C11.787 421.665 11.6406 422.156 11.6406 422.686C11.6406 423.836 12.3238 424.796 13.2449 425.566C14.1757 426.344 15.4884 427.048 17.0836 427.693C20.2834 428.986 24.8538 430.13 30.4284 431.083C41.5936 432.992 56.9794 434.167 73.9473 434.167C89.2219 434.167 103.214 433.215 114 431.632V430.622ZM114 183.933C103.866 181.649 89.6926 180.23 74.007 180.23C43.2032 180.23 18.2316 185.701 18.2305 192.449V196.116V197.254C18.5473 197.065 18.8817 196.902 19.2305 196.769C19.9487 196.494 20.7284 196.344 21.5432 196.344C25.1211 196.344 28.0215 199.244 28.0215 202.822V242.648V243.648H28.0201V244.648V402.038C28.0201 405.616 25.1197 408.516 21.5418 408.516C20.7263 408.516 19.9459 408.366 19.2271 408.091C18.8782 407.957 18.5439 407.794 18.2271 407.605V408.743V412.418C18.2271 419.166 43.1991 424.637 74.0036 424.637C89.6909 424.637 103.866 423.218 114 420.934V419.909C113.746 419.967 113.489 420.024 113.23 420.081C103.225 422.273 89.3561 423.637 74.0036 423.637C58.6511 423.637 44.7821 422.273 34.7776 420.081C29.7672 418.983 25.7802 417.69 23.0702 416.286C21.7139 415.584 20.727 414.879 20.091 414.198C19.4597 413.522 19.2271 412.93 19.2271 412.418V409.151C19.9565 409.388 20.7347 409.516 21.5418 409.516C25.672 409.516 29.0201 406.168 29.0201 402.038V244.648H29.0215V243.648V202.822C29.0215 198.692 25.6733 195.344 21.5432 195.344C20.7368 195.344 19.9593 195.472 19.2305 195.709V192.449C19.2306 191.937 19.4633 191.345 20.0947 190.669C20.7309 189.988 21.7178 189.284 23.0741 188.581C25.7843 187.177 29.7714 185.884 34.7817 184.786C44.7862 182.594 58.6549 181.23 74.007 181.23C89.3591 181.23 103.228 182.595 113.232 184.786C113.491 184.843 113.747 184.9 114 184.958V183.933ZM114 153.754C102.466 152.644 88.7362 152 74 152C33.1309 152 0 156.952 0 163.06V178.231C0 180.722 4.84143 183.033 13.1058 184.937C13.9793 185.138 14.8911 185.335 15.8393 185.527C14.8793 185.04 14.1228 184.537 13.587 184.021C12.9651 183.422 12.6406 182.806 12.6406 182.176C12.6406 176.388 40.0886 171.695 73.9474 171.695C89.2573 171.695 103.256 172.655 114 174.241V173.23C103.214 171.648 89.2219 170.695 73.9474 170.695C56.9794 170.695 41.5937 171.871 30.4284 173.779C24.8539 174.733 20.2835 175.876 17.0837 177.17C15.4884 177.814 14.1758 178.519 13.245 179.297C12.3239 180.066 11.6406 181.027 11.6406 182.176C11.6406 182.709 11.7886 183.203 12.0376 183.654C8.97377 182.898 6.47459 182.089 4.61121 181.248C3.29849 180.655 2.35706 180.069 1.75862 179.516C1.15862 178.962 1 178.534 1 178.231V163.06C1 162.782 1.19342 162.296 2.09325 161.639C2.96506 161.002 4.31444 160.346 6.14847 159.698C9.80424 158.406 15.1498 157.226 21.8219 156.229C35.1508 154.236 53.5991 153 74 153C88.7539 153 102.486 153.647 114 154.758V153.754ZM114 194.563C112.669 192.497 110.349 191.129 107.709 191.129C103.579 191.129 100.23 194.477 100.23 198.607L100.23 406.252C100.23 410.382 103.578 413.73 107.708 413.73C110.349 413.73 112.669 412.362 114 410.295V407.801C113.305 410.631 110.752 412.73 107.708 412.73C104.13 412.73 101.23 409.829 101.23 406.252L101.23 198.607C101.23 195.029 104.131 192.129 107.709 192.129C110.752 192.129 113.305 194.227 114 197.055V194.563ZM95.4898 243.648V244.648H95.4883V410.465C95.4883 414.595 92.1402 417.943 88.0101 417.943C83.8799 417.943 80.5318 414.595 80.5318 410.465V270.926V269.926H80.5332V194.396C80.5332 190.266 83.8814 186.918 88.0115 186.918C92.1416 186.918 95.4898 190.266 95.4898 194.396V243.648ZM47.666 243.648V244.648H47.665V406.252C47.665 410.382 44.3168 413.73 40.1867 413.73C36.0565 413.73 32.7084 410.382 32.7084 406.252V270.926V269.926H32.7094V198.607C32.7094 194.477 36.0576 191.129 40.1877 191.129C44.3179 191.129 47.666 194.477 47.666 198.607V243.648ZM59.885 186.918C64.0151 186.918 67.3633 190.266 67.3633 194.396L67.3632 410.465C67.3632 414.595 64.015 417.943 59.8849 417.943C55.7547 417.943 52.4066 414.595 52.4066 410.465L52.4067 194.396C52.4067 190.266 55.7549 186.918 59.885 186.918ZM94.4898 194.396V242.648V243.648H94.4883V244.648V410.465C94.4883 414.043 91.5879 416.943 88.0101 416.943C84.4322 416.943 81.5318 414.043 81.5318 410.465V271.926V270.926H81.5332V269.926V194.396C81.5332 190.818 84.4336 187.918 88.0115 187.918C91.5894 187.918 94.4898 190.818 94.4898 194.396ZM59.885 187.918C63.4629 187.918 66.3633 190.818 66.3633 194.396L66.3632 410.465C66.3632 414.043 63.4628 416.943 59.8849 416.943C56.307 416.943 53.4066 414.043 53.4066 410.465L53.4067 194.396C53.4067 190.818 56.3071 187.918 59.885 187.918ZM46.666 198.607V242.648V243.648H46.665V244.648V406.252C46.665 409.829 43.7645 412.73 40.1867 412.73C36.6088 412.73 33.7084 409.829 33.7084 406.252V271.926V270.926H33.7094V269.926V198.607C33.7094 195.029 36.6099 192.129 40.1877 192.129C43.7656 192.129 46.666 195.029 46.666 198.607Z" fill="black" fill-opacity="0.26"/>
<path d="M67 43.9529V18.5338C67 8.29787 122.517 0 191 0C259.483 0 315 8.29787 315 18.5338V43.953C315 48.5928 304.975 52.8592 288.189 56.2318C291.724 54.4556 293.642 52.5515 293.642 50.5708C293.642 40.871 247.648 33.0078 190.912 33.0078C134.176 33.0078 88.1816 40.871 88.1816 50.5708C88.1816 52.5295 90.0571 54.4133 93.5178 56.1726C76.9088 52.8094 67 48.5656 67 43.9529Z" fill="white"/>
<path fill-rule="evenodd" clip-rule="evenodd" d="M284.47 67.7801V75.9582C282.804 74.9177 280.835 74.3164 278.727 74.3164C272.731 74.3164 267.871 79.1766 267.871 85.1719L267.871 548.992C267.871 554.987 272.732 559.847 278.727 559.847C280.835 559.847 282.804 559.246 284.469 558.206V566.385C284.469 577.693 242.624 586.86 191.006 586.86C139.388 586.86 97.5426 577.693 97.5426 566.385V558.32C99.1676 559.29 101.067 559.847 103.097 559.847C109.092 559.847 113.953 554.987 113.953 548.992L113.953 85.1719C113.953 79.1766 109.093 74.3164 103.098 74.3164C101.068 74.3164 99.168 74.8736 97.543 75.8433V67.7801C97.543 56.4719 139.388 47.3047 191.006 47.3047C242.625 47.3047 284.47 56.4719 284.47 67.7801ZM123.484 556.052C123.484 562.047 128.344 566.908 134.34 566.908C140.335 566.908 145.195 562.047 145.195 556.052L145.195 78.1094C145.195 72.1141 140.335 67.2539 134.34 67.2539C128.345 67.2539 123.484 72.1141 123.484 78.1094L123.484 556.052ZM156.492 563.113C156.492 569.108 161.352 573.968 167.348 573.968C173.343 573.968 178.203 569.108 178.203 563.113L178.203 71.0508C178.203 65.0555 173.343 60.1953 167.348 60.1953C161.352 60.1953 156.492 65.0555 156.492 71.0508L156.492 563.113ZM203.621 71.0508C203.621 65.0555 208.481 60.1953 214.477 60.1953C220.472 60.1953 225.332 65.0555 225.332 71.0508L225.332 563.113C225.332 569.108 220.472 573.968 214.476 573.968C208.481 573.968 203.621 569.108 203.621 563.113L203.621 71.0508ZM236.629 78.1094C236.629 72.1141 241.489 67.2539 247.485 67.2539C253.48 67.2539 258.34 72.1141 258.34 78.1094L258.34 556.052C258.34 562.047 253.479 566.908 247.484 566.908C241.489 566.908 236.629 562.047 236.629 556.052L236.629 78.1094Z" fill="white"/>
<path d="M315 590.213V615.63C315 625.866 259.483 634.164 191 634.164C122.517 634.164 67 625.866 67 615.63V590.213C67 585.601 76.9043 581.358 93.5067 577.995C90.053 579.753 88.1815 581.635 88.1815 583.591C88.1815 593.291 134.175 601.154 190.912 601.154C247.648 601.154 293.642 593.291 293.642 583.591C293.642 581.613 291.728 579.711 288.2 577.936C304.979 581.308 315 585.574 315 590.213Z" fill="white"/>
<path d="M67.5 18.5338V43.9529C67.5 44.9132 68.0137 45.92 69.1472 46.9682C70.28 48.0157 71.9834 49.0574 74.2364 50.0757C78.1953 51.8649 83.765 53.5443 90.6874 55.0648C90.1097 54.6505 89.6095 54.2268 89.1919 53.7934C88.2349 52.8 87.6816 51.7217 87.6816 50.5708C87.6816 49.1453 88.5275 47.8345 89.9482 46.6475C91.3737 45.4566 93.446 44.3304 96.0673 43.2709C101.315 41.15 108.877 39.2505 118.186 37.659C136.812 34.4747 162.524 32.5078 190.912 32.5078C219.299 32.5078 245.011 34.4747 263.637 37.659C272.946 39.2505 280.509 41.15 285.756 43.2709C288.378 44.3304 290.45 45.4566 291.876 46.6475C293.296 47.8345 294.142 49.1453 294.142 50.5708C294.142 51.7346 293.576 52.8242 292.599 53.8269C292.17 54.268 291.654 54.6991 291.058 55.1205C298.052 53.5955 303.681 51.9093 307.684 50.1115C309.963 49.088 311.687 48.0404 312.833 46.9866C313.98 45.9319 314.5 44.9188 314.5 43.953V18.5338C314.5 17.4967 313.795 16.3775 312.186 15.2024C310.591 14.0375 308.207 12.893 305.089 11.791C298.859 9.58938 289.815 7.59816 278.607 5.92293C256.199 2.57364 225.225 0.5 191 0.5C156.775 0.5 125.801 2.57364 103.393 5.92293C92.1846 7.59816 83.1415 9.58938 76.9111 11.791C73.7929 12.893 71.409 14.0375 69.8142 15.2024C68.2053 16.3775 67.5 17.4967 67.5 18.5338ZM278.727 73.8164C280.617 73.8164 282.401 74.2788 283.97 75.0967V67.7801C283.97 66.5321 283.395 65.2681 282.205 63.9949C281.014 62.7193 279.232 61.4647 276.895 60.2541C272.222 57.8336 265.426 55.6389 256.988 53.7902C240.119 50.0947 216.791 47.8047 191.006 47.8047C165.222 47.8047 141.894 50.0947 125.025 53.7902C116.586 55.6389 109.791 57.8336 105.118 60.2541C102.78 61.4647 100.999 62.7193 99.8072 63.9949C98.618 65.2681 98.043 66.5321 98.043 67.7801V75.0008C99.5656 74.2427 101.282 73.8164 103.098 73.8164C109.369 73.8164 114.453 78.9004 114.453 85.1719L114.453 548.992C114.453 555.263 109.369 560.347 103.097 560.347C101.282 560.347 99.5652 559.921 98.0426 559.163V566.385C98.0426 567.633 98.6177 568.897 99.8069 570.17C100.998 571.445 102.78 572.7 105.117 573.911C109.791 576.331 116.586 578.526 125.024 580.375C141.893 584.07 165.222 586.36 191.006 586.36C216.79 586.36 240.119 584.07 256.988 580.375C265.426 578.526 272.221 576.331 276.895 573.911C279.232 572.7 281.014 571.445 282.205 570.17C283.394 568.897 283.969 567.633 283.969 566.385V559.067C282.401 559.885 280.617 560.347 278.727 560.347C272.455 560.347 267.371 555.263 267.371 548.992L267.371 85.1719C267.371 78.9004 272.455 73.8164 278.727 73.8164ZM134.34 567.408C128.068 567.408 122.984 562.324 122.984 556.052L122.984 78.1094C122.984 71.838 128.068 66.7539 134.34 66.7539C140.611 66.7539 145.695 71.8379 145.695 78.1094L145.695 556.052C145.695 562.324 140.611 567.408 134.34 567.408ZM167.348 574.468C161.076 574.468 155.992 569.384 155.992 563.113L155.992 71.0508C155.992 64.7794 161.076 59.6953 167.348 59.6953C173.619 59.6953 178.703 64.7793 178.703 71.0508L178.703 563.113C178.703 569.384 173.619 574.468 167.348 574.468ZM203.121 71.0508C203.121 64.7793 208.205 59.6953 214.477 59.6953C220.748 59.6953 225.832 64.7794 225.832 71.0508L225.832 563.113C225.832 569.384 220.748 574.468 214.476 574.468C208.205 574.468 203.121 569.384 203.121 563.113L203.121 71.0508ZM236.129 78.1094C236.129 71.8379 241.213 66.7539 247.485 66.7539C253.756 66.7539 258.84 71.838 258.84 78.1094L258.84 556.052C258.84 562.324 253.756 567.408 247.484 567.408C241.213 567.408 236.129 562.324 236.129 556.052L236.129 78.1094ZM314.5 615.63V590.213C314.5 589.247 313.98 588.234 312.834 587.18C311.688 586.126 309.965 585.079 307.687 584.055C303.685 582.258 298.057 580.571 291.065 579.046C291.659 579.467 292.174 579.898 292.602 580.338C293.577 581.34 294.142 582.429 294.142 583.591C294.142 585.017 293.296 586.328 291.875 587.515C290.45 588.706 288.378 589.832 285.756 590.891C280.509 593.012 272.946 594.912 263.637 596.503C245.011 599.687 219.299 601.654 190.912 601.654C162.524 601.654 136.812 599.687 118.186 596.503C108.877 594.912 101.314 593.012 96.0672 590.891C93.4459 589.832 91.3736 588.706 89.948 587.515C88.5273 586.328 87.6815 585.017 87.6815 583.591C87.6815 582.442 88.2336 581.364 89.1887 580.372C89.6052 579.939 90.1043 579.516 90.6805 579.102C83.7595 580.623 78.1911 582.302 74.2334 584.091C71.9813 585.109 70.2787 586.151 69.1465 587.198C68.0135 588.246 67.5 589.253 67.5 590.213V615.63C67.5 616.667 68.2053 617.787 69.8142 618.962C71.409 620.127 73.7929 621.271 76.9111 622.373C83.1415 624.575 92.1846 626.566 103.393 628.241C125.801 631.591 156.775 633.664 191 633.664C225.225 633.664 256.199 631.591 278.607 628.241C289.815 626.566 298.859 624.575 305.089 622.373C308.207 621.271 310.591 620.127 312.186 618.962C313.795 617.787 314.5 616.667 314.5 615.63Z" stroke="black" stroke-opacity="0.26"/>
</svg>
