<svg width="331" height="199" viewBox="0 0 331 199" fill="none" xmlns="http://www.w3.org/2000/svg">
<path d="M198.196 56.3726H247.462V66.6363C247.462 77.7842 238.43 86.4057 227.25 86.4057L198.196 86.0899V56.3726Z" fill="#D3D3D3"/>
<path d="M227.255 87.3596L197.253 87.0438V55.4316H248.414V66.6428C248.414 78.2644 239.129 87.3596 227.255 87.3596ZM199.148 85.1806L227.286 85.4964C238.087 85.4964 246.55 77.2223 246.55 66.6743V57.3581H199.179V85.1806H199.148Z" fill="#1E1A15"/>
<path d="M324.632 86.979L260.511 87.2686V0.235003H285.174C296.722 0.235003 306.08 9.59239 306.08 21.1405L306.08 64.7516L306.08 64.7533L306.08 64.7551L306.08 64.7683L306.079 64.8188C306.079 64.8631 306.08 64.9283 306.081 65.0129C306.085 65.1822 306.093 65.4295 306.111 65.7436C306.149 66.3717 306.23 67.2672 306.403 68.34C306.751 70.4847 307.469 73.343 308.955 76.1907C310.443 79.0395 312.7 81.8796 316.123 83.9808C318.407 85.383 321.206 86.4528 324.632 86.979Z" fill="#E9F9F2" stroke="black" stroke-width="0.380651"/>
<path d="M281.392 0.252579C281.27 0.275205 281.145 0.299172 281.018 0.324557C278.915 0.743646 276.114 1.55044 273.325 3.10227C270.534 4.65462 267.754 6.95379 265.7 10.3568C263.645 13.7602 262.323 18.2567 262.434 24.1927V176.03C262.434 188.084 252.666 197.883 240.581 197.883H41.4032V23.8118C41.4032 10.7794 51.9922 0.190355 65.0246 0.190325C65.0246 0.190325 65.0246 0.190325 65.0246 0.190325L281.392 0.252579Z" fill="white" stroke="black" stroke-width="0.380651"/>
<path d="M0.190325 167.749H221.292C219.606 181.979 224.502 189.681 229.866 193.818C232.555 195.892 235.353 197.064 237.478 197.717C238.029 197.886 238.535 198.021 238.982 198.127H22.0748C9.98983 198.127 0.190325 188.328 0.190325 176.243V167.749Z" fill="#E9F9F2" stroke="black" stroke-width="0.380651"/>
<path d="M69.8972 42.4725H53.2071V27.993H69.8972V42.4725Z" stroke="black" stroke-width="0.363356"/>
<path d="M61.432 40.1719L61.801 40.5898L62.1356 40.1439L72.3046 26.5958L72.5773 26.2324L72.2139 25.9598L70.698 24.8229L70.3345 24.5503L70.062 24.9139L61.6189 36.1815L58.0404 32.0877L57.739 31.7429L57.3967 32.0472L55.9756 33.3104L55.6372 33.6112L55.9369 33.9506L61.432 40.1719Z" fill="#1AB36C" stroke="#1AB36C" stroke-width="0.908391"/>
<path d="M121.4 27.8108H82.3984V29.7056H121.4V27.8108Z" fill="#1AB36C"/>
<path d="M143.349 40.9126H82.3984V42.8074H143.349V40.9126Z" fill="#1AB36C"/>
<path d="M69.8963 83.5213H53.2061V69.0418H69.8963V83.5213Z" stroke="black" stroke-width="0.363356"/>
<path d="M61.431 81.2154L61.8 81.6332L62.1347 81.1874L72.3036 67.6393L72.5764 67.2759L72.2129 67.0033L70.697 65.8664L70.3335 65.5937L70.061 65.9574L61.6179 77.2249L58.0395 73.1312L57.738 72.7864L57.3957 73.0906L55.9746 74.3539L55.6362 74.6547L55.9359 74.994L61.431 81.2154Z" fill="#1AB36C" stroke="#1AB36C" stroke-width="0.908391"/>
<path d="M121.4 68.8601H82.3975V70.7549H121.4V68.8601Z" fill="#1AB36C"/>
<path d="M143.348 81.9561H82.3975V83.8509H143.348V81.9561Z" fill="#1AB36C"/>
<path d="M69.8972 124.573H53.2071V110.094H69.8972V124.573Z" stroke="black" stroke-width="0.363356"/>
<path d="M121.398 109.912H82.3955V111.807H121.398V109.912Z" fill="#1AB36C"/>
<path d="M143.346 123.011H82.3955V124.906H143.346V123.011Z" fill="#1AB36C"/>
<path d="M172.639 42.47H155.949V27.9905H172.639V42.47Z" stroke="black" stroke-width="0.363356"/>
<path d="M224.146 27.8096H185.144V29.7044H224.146V27.8096Z" fill="#1AB36C"/>
<path d="M246.094 40.9114H185.144V42.8062H246.094V40.9114Z" fill="#1AB36C"/>
<path d="M172.638 83.5218H155.948V69.0423H172.638V83.5218Z" stroke="black" stroke-width="0.363356"/>
<path d="M224.145 68.8606H185.143V70.7554H224.145V68.8606Z" fill="#1AB36C"/>
<path d="M246.093 81.9568H185.143V83.8516H246.093V81.9568Z" fill="#1AB36C"/>
<path d="M172.64 124.573H155.95V110.094H172.64V124.573Z" stroke="black" stroke-width="0.363356"/>
<path d="M224.146 109.912H185.144V111.807H224.146V109.912Z" fill="#1AB36C"/>
<path d="M246.091 123.011H185.141V124.906H246.091V123.011Z" fill="#1AB36C"/>
</svg>
