<svg width="1221" height="863" viewBox="0 0 1221 863" fill="none" xmlns="http://www.w3.org/2000/svg">
<path d="M226.404 607.597C225.298 605.386 221.428 598.972 214.793 591.011C206.5 581.059 194.89 573.595 192.402 569.449C189.914 565.302 173.327 554.521 161.717 546.228C150.107 537.935 141.813 527.153 135.179 518.857C128.544 510.561 111.129 503.933 103.665 496.469C96.2009 489.005 87.0784 458.32 87.0784 455.832C87.0784 453.344 90.3956 445.048 103.665 440.072C116.934 435.096 137.667 445.048 148.448 451.683C159.229 458.317 210.647 507.247 228.892 518.857C235.195 522.868 247.238 526.78 263.723 533.192M125.227 306.554C117.266 271.391 92.0543 273.657 80.4438 279.186C78.7852 311.53 87.0784 318.993 91.225 324.799C94.5422 329.443 106.982 399.161 112.787 433.439C99.2417 410.495 67.3406 360.295 48.1004 343.045C32.0483 328.653 14.8801 329.809 4.97591 333.316M125.227 306.554C132.414 319.27 146.623 350.177 145.96 372.071C145.131 399.439 165.864 431.785 167.522 435.929C169.181 440.072 173.327 453.344 172.498 457.491M125.227 306.554C134.902 302.96 156.243 300.087 164.205 317.336C174.157 338.899 180.791 372.071 183.279 374.559C185.767 377.047 203.183 375.389 216.452 403.585C229.721 431.782 242.99 462.467 247.137 481.541C251.283 500.616 258.747 525.132 263.723 533.192M263.723 533.192C294.956 545.34 342.132 566.461 396.414 614.229C479.346 687.209 461.1 795.85 457.782 819.07C455.128 837.647 464.97 916.377 470.222 953.42H308.506C321.775 895.092 341.845 770.309 315.97 737.8C283.627 697.164 269.528 677.26 192.402 642.429C115.275 607.597 139.325 577.742 127.715 559.497C116.105 541.252 102.835 513.884 97.8595 511.396C92.8836 508.908 68.0041 459.149 53.9057 425.977C44.3367 403.462 29.0372 374.07 16.0454 354.656M188.255 385.34C191.02 391.698 197.046 407.732 199.036 421.001C201.524 437.587 204.842 450.856 208.988 459.979C213.135 469.101 218.111 477.395 218.111 489.005M98.6888 475.736C104.77 481.265 117.763 492.322 121.08 492.322C126.261 492.322 138.483 488.535 148.189 473.863C149.387 472.052 149.113 469.672 147.629 468.086C140.95 460.942 130.143 449.874 126.056 447.539M150.107 508.909L169.181 493.981M4.97591 333.316C4.01972 333.655 3.13124 334.016 2.31801 334.386C1.21266 334.89 1.13426 336.394 2.04465 337.198C5.99447 340.687 10.8343 346.869 16.0454 354.656M4.97591 333.316C9.1225 338.218 17.5815 348.519 18.245 350.509C18.9084 352.499 17.055 354.103 16.0454 354.656M85.4197 277.529C85.6962 287.481 87.0784 308.38 90.3956 312.36C89.0135 313.743 86.0832 316.507 85.4197 316.507" stroke="#BDBDBD"/>
<path d="M993.819 607.597C994.925 605.386 998.795 598.972 1005.43 591.011C1013.72 581.059 1025.33 573.595 1027.82 569.449C1030.31 565.302 1046.9 554.521 1058.51 546.228C1070.12 537.935 1078.41 527.153 1085.04 518.857C1091.68 510.561 1109.09 503.933 1116.56 496.469C1124.02 489.005 1133.14 458.32 1133.14 455.832C1133.14 453.344 1129.83 445.048 1116.56 440.072C1103.29 435.096 1082.56 445.048 1071.77 451.683C1060.99 458.317 1009.58 507.247 991.331 518.857C985.028 522.868 972.984 526.78 956.5 533.192M1095 306.554C1102.96 271.391 1128.17 273.657 1139.78 279.186C1141.44 311.53 1133.14 318.993 1129 324.799C1125.68 329.443 1113.24 399.161 1107.44 433.439C1120.98 410.495 1152.88 360.295 1172.12 343.045C1188.17 328.653 1205.34 329.809 1215.25 333.316M1095 306.554C1087.81 319.27 1073.6 350.177 1074.26 372.071C1075.09 399.439 1054.36 431.785 1052.7 435.929C1051.04 440.072 1046.9 453.344 1047.72 457.491M1095 306.554C1085.32 302.96 1063.98 300.087 1056.02 317.336C1046.07 338.899 1039.43 372.071 1036.94 374.559C1034.46 377.047 1017.04 375.389 1003.77 403.585C990.502 431.782 977.233 462.467 973.086 481.541C968.939 500.616 961.475 525.132 956.5 533.192M956.5 533.192C925.266 545.34 878.091 566.461 823.809 614.229C740.877 687.209 759.123 795.85 762.44 819.07C765.094 837.647 755.253 916.377 750.001 953.42H911.716C898.447 895.092 878.378 770.309 904.253 737.8C936.596 697.164 950.694 677.26 1027.82 642.429C1104.95 607.597 1080.9 577.742 1092.51 559.497C1104.12 541.252 1117.39 513.884 1122.36 511.396C1127.34 508.908 1152.22 459.149 1166.32 425.977C1175.89 403.462 1191.19 374.07 1204.18 354.656M1031.97 385.34C1029.2 391.698 1023.18 407.732 1021.19 421.001C1018.7 437.587 1015.38 450.856 1011.23 459.979C1007.09 469.101 1002.11 477.395 1002.11 489.005M1121.53 475.736C1115.45 481.265 1102.46 492.322 1099.14 492.322C1093.96 492.322 1081.74 488.535 1072.03 473.863C1070.84 472.052 1071.11 469.672 1072.59 468.086C1079.27 460.942 1090.08 449.874 1094.17 447.539M1070.12 508.909L1051.04 493.981M1215.25 333.316C1216.2 333.655 1217.09 334.016 1217.9 334.386C1219.01 334.89 1219.09 336.394 1218.18 337.198C1214.23 340.687 1209.39 346.869 1204.18 354.656M1215.25 333.316C1211.1 338.218 1202.64 348.519 1201.98 350.509C1201.31 352.499 1203.17 354.103 1204.18 354.656M1134.8 277.529C1134.53 287.481 1133.14 308.38 1129.83 312.36C1131.21 313.743 1134.14 316.507 1134.8 316.507" stroke="#BDBDBD"/>
<path d="M610.611 95.6848L610.611 326.37M610.611 326.37V326.378M610.611 326.37H610.63M610.611 326.37H610.602M610.611 326.378V326.389M610.611 326.378L610.616 326.384M610.611 326.378L610.602 326.37M610.611 326.389V556.993M610.611 326.389L610.616 326.384M610.611 326.389L447.54 489.459M841.234 326.37H610.63M610.63 326.37L773.734 163.265M610.63 326.37L610.616 326.384M610.602 326.37L379.926 326.37M610.602 326.37L447.497 163.264M610.616 326.384L773.691 489.458M725.927 126.612L610.584 326.391M610.584 326.391L610.58 326.398M610.584 326.391L610.601 326.4M610.584 326.391L610.577 326.386M610.58 326.398L610.575 326.407M610.58 326.398L610.582 326.405M610.58 326.398L610.577 326.386M610.575 326.407L495.273 526.116M610.575 326.407L610.582 326.405M610.575 326.407L387.816 386.095M810.31 441.702L610.601 326.4M610.601 326.4L833.405 266.7M610.601 326.4L610.582 326.405M610.577 326.386L410.805 211.048M610.577 326.386L550.876 103.58M610.582 326.405L670.271 549.169M670.3 103.562L610.595 326.386M610.595 326.386L610.592 326.395M610.595 326.386L610.613 326.391M610.595 326.386L610.586 326.384M610.592 326.395L610.59 326.405M610.592 326.395L610.596 326.401M610.592 326.395L610.586 326.384M610.59 326.405L550.905 549.151M610.59 326.405L610.596 326.401M610.59 326.405L410.87 441.713M833.36 386.076L610.613 326.391M610.613 326.391L810.374 211.059M610.613 326.391L610.596 326.401M610.586 326.384L387.77 266.681M610.586 326.384L495.253 126.621M610.596 326.401L725.907 526.126M773.673 163.229L610.554 326.348M610.554 326.348L610.548 326.354M610.554 326.348L610.567 326.362M610.554 326.348L610.548 326.342M610.548 326.354L610.54 326.362M610.548 326.354V326.362M610.548 326.354V326.342M610.54 326.362L447.478 489.424M610.54 326.362H610.548M610.54 326.362H379.924M773.629 489.424L610.567 326.362M610.567 326.362L841.232 326.362M610.567 326.362H610.548M610.548 326.342L447.435 163.229M610.548 326.342V95.6762M610.548 326.362V556.984M654.427 1.21536L610.617 326.389M610.617 326.389L610.616 326.402M610.617 326.389L610.644 326.393M610.617 326.389L610.605 326.388M610.616 326.402L610.614 326.416M610.616 326.402L610.622 326.41M610.616 326.402L610.605 326.388M610.614 326.416L566.819 651.476M610.614 326.416L610.622 326.41M610.614 326.416L349.78 525.312M935.704 370.187L610.644 326.393M610.644 326.393L871.532 127.456M610.644 326.393L610.622 326.41M610.605 326.388L285.443 282.58M610.605 326.388L411.667 65.4982M610.622 326.41L809.523 587.25M811.103 66.7095L610.576 326.414M610.576 326.414L610.568 326.423M610.576 326.414L610.597 326.43M610.576 326.414L610.566 326.406M610.568 326.423L610.559 326.435M610.568 326.423L610.57 326.434M610.568 326.423L610.566 326.406M610.559 326.435L410.102 586.048M610.559 326.435L610.57 326.434M610.559 326.435L285.223 368.267M870.21 526.887L610.597 326.43M610.597 326.43L936.001 284.59M610.597 326.43L610.57 326.434M610.566 326.406L350.872 125.886M610.566 326.406L568.725 1M610.57 326.434L652.403 651.778M737.069 23.6543L610.591 326.409M610.591 326.409L610.587 326.421M610.591 326.409L610.616 326.42M610.591 326.409L610.58 326.405M610.587 326.421L610.581 326.435M610.587 326.421L610.591 326.431M610.587 326.421L610.58 326.405M610.581 326.435L484.147 629.084M610.581 326.435L610.591 326.431M610.581 326.435L307.157 451.044M913.266 452.854L610.616 326.42M610.616 326.42L914.103 201.784M610.616 326.42L610.591 326.431M610.58 326.405L307.836 199.931M610.58 326.405L485.943 22.9158M610.591 326.431L735.204 629.862M871.452 127.394L610.541 326.348M610.541 326.348L610.531 326.356M610.541 326.348L610.557 326.37M610.541 326.348L610.533 326.339M610.531 326.356L610.519 326.365M610.531 326.356L610.53 326.366M610.531 326.356L610.533 326.339M610.519 326.365L349.7 525.25M610.519 326.365L610.53 326.366M610.519 326.365L285.441 282.568M809.442 587.189L610.557 326.37M610.557 326.37L935.702 370.176M610.557 326.37L610.53 326.366M610.533 326.339L411.586 65.4375M610.533 326.339L654.339 1.19118M610.53 326.366L566.732 651.452" stroke="#BDBDBD"/>
<circle cx="610.553" cy="326.303" r="162.815" fill="white"/>
<circle cx="610.5" cy="326.5" r="136.5" stroke="#BDBDBD"/>
</svg>
